<?xml version="1.0" encoding="utf-8"?>
<!-- Generator: Adobe Illustrator 16.2.1, SVG Export Plug-In . SVG Version: 6.00 Build 0)  -->
<!DOCTYPE svg PUBLIC "-//W3C//DTD SVG 1.1//EN" "http://www.w3.org/Graphics/SVG/1.1/DTD/svg11.dtd">
<svg version="1.1" id="Layer_1" xmlns="http://www.w3.org/2000/svg" xmlns:xlink="http://www.w3.org/1999/xlink" x="0px" y="0px"
	 width="612px" height="792px" viewBox="0 0 612 792" enable-background="new 0 0 612 792" xml:space="preserve">
<g>
	<path id="black" fill="#1B1B1B" d="M566,517.5c22.8-0.1-7.2-2.8-13-4.6c-14.1-4.3-23.2-18.6-32.6-29.3c-9.7-21.7-28.2-8.5-51-13.3
		c-15.7-3.4-30.3-13-43-22.5c-17.5-13.1-13.3-17.7-19.4-35.2c1.5,4.7,2.8-14,1.2-22c3.2,8.2,3.3-19.6,3.4-19.9
		c0.9-8.4,3.3-14.1,4.1-22.2c1.2-11.3,16-5.4,20.1-21.5c4-15.8,31.4-91.1-8-81.5c7.2-30.6-6.3-73.1-19.7-100.9
		c-5.4-11.3-13.5-15.5-22.5-23.2c-4.8-4.1-32.2-20.8-22.5-13.8c-19.6-12.5-33.3-22.6-58.8-26.1c-30.1-4.2-63.3,12.2-86.1,30.4
		c-25.2,20-44.6,47-51.5,78.8c-3.4,15.8-3.5,31.7-1.3,47.6c2.4,16.5-6.8,15.3-5.3,29.4c3.1,29.6-0.4,59.8,22,82
		c14.2,14.1,16.7,47.5,17.3,66.9c0.9,27.1-56.1,33.5-77.5,41.5C110,462.8,99.5,470.1,91,480c-11.4,13.5-10,8.7-20.7,4.5
		c-5.3,14.1-23.6,2.7-30.9-2.5c-16.2-11.5-20.4,16.3-25.7,22.3c-2.9,3.4-16,3.8-28.2,4.8v293.9c14.1-0.2,28.2-0.3,42.3-0.3h292.4
		c102,0,204,0,305.9-0.1V530C607.8,533.1,581.7,523.5,566,517.5"/>
	<path id="light_gray" fill="#929496" d="M162.5,674.6c19.6-18.1,46.1-19.9,68.2-32.5c8-4.5,14.7,40.3,33.8,30.6
		c16.4-8.4,25.5,2.1,28.7-24.6c0.5-4,5.8-22.2-1.6-23.5c-14.9-2.6-13.6-4.2-26.6-9.8c-21.7-9.3-3.6-23.1-14.4-37.7
		c-7.2-9.8-36-3.2-43.7-16.4c-12.2-2.7-34.9-7.3-40.3-20.6c-9.1-22.3-61-26.8-81.7-31.1c-3.4-0.7,15.2-12.1,14.6-11.8
		c9.7-4.6,14.1,1.1,23.3,0.7c1.2-0.1,19.2,24.5,20.5,8.8c0.4-4.6-15.2-11.3-3.2-17.5c10.5-5.4,7-11.1,16.1-20.3
		c7.4-7.5,43.3-28,44.3-37c-23.6,11.5-50,16.6-74.3,26.3c-9.1,3.6-47.3,23.5-45.8,36.1c0.7-0.2,11.2-10.4,12.7-8.4
		c2.2,2.9-13.4,21-17,20.6c-7.3-0.9,4.3-11.8,4.3-12.2c-9.6,2.8-39.6,26-41.6,5.6c-1.2-11.5,4-5.2-1.3-15.4
		c-4.3-8.2-19.8,8.1-19,13.4C21,498.2,28.9,481,35,484.7c6.7,4.1-13.1,14.5-0.7,15.2c4.5,0.3-11.3,18.9-17,2.3
		c-5.2,2-14.1,13.6-21.3,13c-3.2,1.5-6.7,2.4-10.4,2.9v60.9c1.2,0.4,2.3,0.9,3.4,1.7c10.8,8.7,23.8-5,33.5,6.5
		c15.3,18.1,27.7,45.6,45.7,59.1c8.3,6.3,26.9-1.4,36.3-2.9c16.9-2.6-1.4,18.9,6.5,21.6c3.1,1,5-7.3,8.4-4.2
		c1,0.9,6.2,14.7,3.5,16.4c-2.2,1.4-2-3.3-3.8-1.9c-4.9,3.8,4.6,22.9-12.2,17.2c-11.6-3.9-10.8,18.8-5.5,23.4c6.3,5.4,6.9,13.3,6,20
		c-0.4,2.6-10.9,23.9-4.6,22.4c10-2.4,22.2,23.2,25.2,27.1c6.9,9.2,40.3-12.9,43.9-2.4c0.2,0.5-13.5,4.3-10.7,6.7
		c3,2.6,28-10,32.9-5.5c10.7,10.2,14.5-6.5,11.7,18.3h46.7c0.2-8.1-3.2-12.8,2.3-20.2c4.7-3.2,7.1-7.6,7.2-13.3
		c-0.9-4.1-2.3-18.4,0.7-22c16.6-19.6,16.5,40.5,30.3,31.1c0.4-0.3-2-43.1-2.6-48.4c-1.6-14.3-19.5-45.5-38-38.9
		c-6,2.1-23.7,5.8-29.9,5.7c-9.2-0.2-9.4,9.4-17.6,9.7c-12.7,0.5-15.9,8.8-23.6-0.8c-3.7-4.7-6.6-6.7-12.3-0.8
		c-5,5.2-5.2-9.1-9.9-9.1C133.5,695.5,158.5,678.3,162.5,674.6 M231.2,597c15.3,7.8,2.7,19.5-9.7,19.5c-2.8,0-17.2-1.3-19.1-4.2
		C195.9,602.2,225.5,594.1,231.2,597 M116.7,725.2c-1.3,1.5-2.5,1.6-3.6,0c1.2-2,2.4-2.1,3.6-0.4c0-0.2,0.1-0.2,0.1,0.2
		C116.8,725.6,116.7,725.5,116.7,725.2 M163.6,774.3c0,0.5,0,0.5-0.1,0.4c-0.6,2.9-8.2,5.8-8.1,3.7
		C155.8,774.1,160.7,770.9,163.6,774.3 M24.7,564.9c-18.2,5.3-19.3-17.8-2-20.9c12.8-2.3,30.4-5.3,40.7-16.5
		c6-6.5-10.8-4.4-14.8,0.7c-3.5,4.4-19.3,7.5-23.6,2.5c-16.6-19.4,30.5-17.8,33.3-19.8c7.2-5.3,57,11.7,56.7,14.3
		c-1,8.4-32.5-7.6-35.3-3.9c-2.2,2.9,6.1,6.4,6.7,8.9c5.8,6.7,15.6,5.8,21.5,11.7c5.5,5.5,15.3-10.3,21.9-6
		c11.2,7.2-34.4,25.8-39.1,28.6C65.2,580.1,48.1,558.1,24.7,564.9 M114.4,644.4C108,644,120.1,643.2,114.4,644.4 M120.8,589.1
		c-7.7,4.1-19.7,24.5-26.9,25.9c0,0,0,0-0.3,0.1c-0.8,0-0.5,0-0.1-0.1c-1.3-1.9,31.4-50.7,39.1-52.9
		C140.2,559.8,125.1,586.8,120.8,589.1 M141.6,684.7c0,0-0.1,0-0.1,0.1c-1.5,0-1.5,0-1.1-0.1c-6-0.8-6.7-8.6-0.1-9.6
		C143.4,674.6,146.3,683.2,141.6,684.7 M133.5,553.9c-7.1-9.2,26.7-3.3,27.5,7.9c0.1,0.1,0.1,0.4,0,1.1c-0.1,0.1-0.1,0.2-0.1,0.3
		C149.9,582.8,143.7,567,133.5,553.9 M93.4,615c0.2,0,0.4,0,0.4,0c-0.1,0-0.2,0-0.3,0.1C93.5,615,93.4,615,93.4,615 M116.7,725.2
		c0-0.1,0-0.2,0-0.3c0,0.1,0.1,0.1,0.1,0.2C116.8,725.1,116.8,725.2,116.7,725.2 M160.8,563.1c-1,1.6,0-1.7,0.2-1.4
		c0,0.4,0,0.7,0,1.1C160.9,563,160.8,563.1,160.8,563.1 M114.4,644.4C113.5,644.4,114.8,644.3,114.4,644.4 M163.6,774.7
		c0-0.1,0-0.5,0.1-0.4C163.6,774.4,163.6,774.6,163.6,774.7 M140.3,684.7c0.4,0,1.3-0.1,1.2,0c0,0-0.1,0-0.1,0.1
		C141,684.8,140.7,684.7,140.3,684.7 M626.2,583c-26.2,15.6-66.8,14.4-79.7,11.8c-10.3-2.1-16.1-2.7-26.7-2c-14.2,1.1-3,15.5-5,21.8
		c-2.9,9.3-9.3,10.8-14.7,18.1c-7.5,10.1-0.2,23.3-5.1,33.9c-2.9,6.3-0.7,17.8,4.4,22.4c7,6.4,1.2,16.2,7.2,21.2
		c3.3,2.7,9.4,36.2,7.4,40.9c-4.6,10.6-3,39.2-2.3,51.6h-120c-0.5-2.3,40,0,0,0c-3.7-15.6-4.4-2.2-9.1-4
		c-5.6-2.3-6.7-18.8-10.8-23.8c-9.4-11.6-9.4-20.9-16.1-36.4c-1.6-3.6-5-44.9,4-34.5c3.8,4.4,8.2-1.6,5.4-4.6
		c-1.9-2-12.1-5.7-15.5-8.2c-0.8-0.6,11.7-23.2,12.3-23.4c16.6-3.7-1.7-1.6-1-15.4c0.6-11.9-12.3-29.9-3-38.5
		c3.1-2.9,40.2-24.9,40-25.6c-0.2-0.9-15.9-6.4-18.8-12.6c-3.1-6.8,25.1,0.5,27.1-3.2c3-5.3-10.5-8.6-7.7-12.4
		c-4.9,6.7,41.5,11.9,35.7-2.4c-2.6-6.5-27.4-4-9.4-19.8c13.1-11.5-16.5-11.4-17.8-14.6c-1.3-3.1,6.5-4.2,6.3-7
		c-0.4-6.6-7.8-21.4,0.7-27c13.8-9.1,32.7,39.3,36.6,33.3c4.6-7.1-10.7-20.2-9.3-28.7c2.5-15.7,14.8-5.4,0.9-21.1
		c-1.9-2.2-54.2-45.8-35.7-50.9c6.3,33.4,57.2,53.4,87.9,49.1c7.3-1,4.9-11.3,14.7,0c2.6,3,8.6,12.6,12.4,14.1
		c3.6,4.2,24.7,23.5,21.8,26.7c-0.1,0.1-12.9-2.2-14.5-2.2c-0.2-4.1,6.6-2.3,2.5-7.4c-4.6-5.6-15.5-17.1-24-15.3
		c-8.4,1.8-17.5,26.9-23.4,25.1c-7.5-2.2-14.9,33.2,2.4,18.3c7.8-6.8,23.2-13,35.3-15.2c-1.7,1.2-3,2.8-3.8,4.7
		c-0.9-2.6,32.7,13.3,18.3,16.2c-3,0.6-50.8-9.3-45.7,0c2.9,5.3,26.2,7.8,31.1,9.5c10.9,3.8,3.9,5.9,7.3,16.3
		c3.9,12.1,10.3,14.3,20.7,18c27.1,9.8,28.9-11.6,45.1-25.1c9.5-7.9,9.3-3.5,9.2-13.7c0-1.2-19-14.6-15.4-17.4
		c5.5-4.4,31.8,7.7,37.7,8.1V583z M462.1,565.5c-7.5-0.3-11.4,9-20.4-1.5c-1.7-2-22.2,2.9-23,5.9c-1.8,6.5,7.7,2.2,1.6,12.4
		c-2.9,4.9-6.9,13.5,2.2,17c11.5,4.4,32,4.1,44.9,5.4c22.5,2.2,40.9,4.7,22.7-21c-2.5-3.5-11.2-12.1-15.7-13.3
		c0-1.5-3.3-13.2-3.6-13.4C468.4,555.8,462.3,564.9,462.1,565.5C460.4,565.5,462.2,565.3,462.1,565.5 M444.7,249.4
		c1.6,4.2,2.8,8.5,3.7,12.9c-2.6-0.3-7-12.1-10.6-14.9c-4.6-3.5-9.1,9.2-11.8,7c-5-4.1,4.6-11.9-7.9-11.1
		c-4.7,0.3-5.6-14.3-4.4-17.7c6.1-17.1,7.7-37.7-2.3-53.1c-4.3-6.6-32.2-62.9-45.6-52.2c-4,3.2,8.8,17.8-3.7,23.2
		c-6.4,2.8-11.6-1.1-18.2,3.9c-6.9,5.2,3.2,4.2,2.4,8.6c-1.3,7-48,11.8-46.7,17.7c1.9,0.6,3.9,1.1,6,1.3c-9.5,4.2-27.8,1.1-34.1-2.1
		c-9.1-4.7-21.7-2.2-31.4-6c-1.1-0.4-4.3-10.7-6.1-12.4c-5.3-4.9-7.3-29.5-8-29.3c-6.3,2.3-5.5-8.1-11.9-4.6
		c-3.9,2.1-13.6,15.2-18.3,15.1c-1.1-14,45.8-37.6,56-42.4c26.6-12.6,50.6-11.5,78-2.7c28,9,65,30.1,78,57.7
		c1.7,3.6,9.8,28.8,11.8,29.5c2-2.2,6.5,28.7,7.2,29.8c1.2,10.5,1,21.3,2.1,31.8C421.4,245,441.2,245.9,444.7,249.4
		C445.7,253.8,443.4,248.1,444.7,249.4 M296.9,160.2c0-0.7-7.2,1.9-6.4-4.6c1.8-15,19-8.7,21.7-17.7c2.1-6.9,4.2-26.1,16.2-23.6
		c9.6,2,1.4-24.3-7.9-16.6c-2.3,1.9-17-0.9-21.9,0.7c-15.5,5.1-32.9,5.8-47,14.9c-9,5.8-4.9,11.1-14.3,16.1
		c-15.1,8,4.1,10.2,4.4,10.5c1.4,1.1-3.9,17.2,5,24.1c5.9,4.7,14.5,4.8,21.6,5.6c1.9,0.2,8.4-6.7,4.5-8
		c-12.9-4.1-19.5-25.9-11.9-20.1c10.8,8.2,14.1,11.6,21.5,21.3c11.6,15.2,35.4-0.2,47.4-5c3.4-1.4,11.7-29,9.1-30.3
		C321,118.6,317.5,160.2,296.9,160.2C296.9,160.2,298.2,160.2,296.9,160.2 M283.7,173.7c2.8,0.3,4.7-0.9,5.8-3.3
		C289.7,161.1,269,174.3,283.7,173.7C285,173.9,282.4,173.8,283.7,173.7 M525.3,512.9c1.2-0.9,2.4-1.9,3.6-2.8
		C529.2,512.5,527.5,513.2,525.3,512.9C525.7,510.9,525.8,512.9,525.3,512.9 M522.3,515c0.3-1.2,1-2,2.4-1.9
		C524.5,514.4,523.8,515.2,522.3,515 M381.7,297.1c0,16.4-14.8,5.9-21.9,8.6c-7.4,2.8-9.9,36.7-10.5,44.4
		c-1.8,21.4-15.2,30.7-29.3,10.8c-3.6-5.1,11.7-39.2,14.4-39.3c4.3-0.1,3.3,11.2,7.5,10.8c4.9-0.4-5.5-25.6-7.1-28.6
		c-3.5-6.4-7-9.6-9.4-16.7c-2.3-7,7.3-3.8,8.7-6.5c2.1-4-7.9-2.3-3.3-8.4C330.3,272.7,380.9,289.8,381.7,297.1
		C381.6,302,381.4,294.5,381.7,297.1 M303.3,326.9c-16,0-2.3-10-7.3-10.8c-8.3-1.3-13.7-21.7-13.5-27.1c0.6-18.5-5.1-16.5,3.8-33.5
		c3.2-6.1,13.1-4.1,14.4,2.2c2.1,10.9,7.3,14,7.6,26.4c0,1.5,1.3,17,2.9,18c4.4,2.7,10.8-2,17.7,4.5c1,0.9,1,15.8,0.6,16.4
		C327.7,325.3,310,317.1,303.3,326.9 M288.9,296.6c10.2,11.6,13.4-27.7,7.3-34.1C283.7,249.5,279.8,294.8,288.9,296.6
		C289.7,297.6,287.1,296.2,288.9,296.6 M264.6,196.6c-2.7,0.3-4.2-1.5-4.5-5.4c-1.5,1.7,52.5,11,51.5-1c-1.3-1.5-2.9-2-4.8-1.6
		c2.5-5.7,52.6-1.5,51.9,1.1c1.3-4.9-36.6,5.8-27.4,11.7c2.7,1.7,33.6-9.6,34.6-1.6c-0.7-5.6-59.5,26.3-62.6,22.4
		c-2.6-3.1-3.8-21.5-4.8-22.6C298.8,199.9,263.6,197.6,264.6,196.6C264.2,196.6,265.4,195.9,264.6,196.6 M317.8,200.8
		c-0.8-3.8-4.8-5.6-7.7-2C303.5,207.1,317.8,210,317.8,200.8C317.4,199.1,317.8,202.7,317.8,200.8 M364.8,526.6
		c-29.8,2.9-13.8-43.2-3.8-40.9C368.6,487.5,389.2,529.6,364.8,526.6C359.7,527.1,369.8,527.3,364.8,526.6 M312,173.9
		c3.3-1,43.6-10,42.7-2.5c-0.7,5.7-40,10.2-45.5,11.3c-14.7,2.9-29.4,0.6-44.3,0.5c-6.4-0.1-2.8,5.8-4.8,8
		c-2.3-0.3-24.3-13.2-24.1-11.2c-0.3-2.2,87.8,5.3,85.4-5.6C321.2,173.1,313.4,174.7,312,173.9C325.2,170,314.6,175.3,312,173.9
		 M416.4,342.7c-0.4,2.7-1.3,17.4-3.8,17.3c-3.7-3.7,0.1-24.5,0.7-29.7c1.3-6.1,1.1-12.3-0.6-18.4c-1.9-1-3.8-2-5.7-3
		c-0.1-0.9,12-24.9,9.9-26.7C430,293.6,410.7,334.5,416.4,342.7C416.3,343.4,416.3,342.4,416.4,342.7 M244.1,256.6
		c-2.7,0.2-5.9-6.9-8.4-2.3c-0.6,1-13.5,7.2-13.6,7c-11.2-8.8,24.7-11.3,29.1-9c1.5,3.3,11.5,24.2-6.4,17.3
		c-1.8-0.7-0.3-11-0.5-12.9c1.6,0.8,3.2,1.5,4.9,2c5.4-2.7-4.2-8.5-6.7-8C241.8,252.9,242.3,254.8,244.1,256.6
		C242.1,256.8,244.3,254.8,244.1,256.6 M251.7,197.4c64.6,45.9-15.5-0.2-15.5-0.6C237.4,188.9,249.9,197.5,251.7,197.4
		C253.9,198.9,249.3,197.5,251.7,197.4 M292.3,364.3c10.6-1.2,15,12.8-0.7,11.2C274.6,373.7,285.9,361.6,292.3,364.3
		C297.3,363.7,288.9,362.9,292.3,364.3 M350.8,245c0.1-0.3-13.4,16.1-11.3,16C330.5,261.6,340.1,245,350.8,245
		C350.5,246.2,349,245,350.8,245 M302,425.7c10.6,1.8-21.7,12.2-14.2,1.2C289.4,424.6,299.9,425.2,302,425.7
		C302.5,425.8,298,424.8,302,425.7 M305.9,339.9c7.2-0.4,10.5,2.1,9.9,7.5C312.7,352.8,297.3,340,305.9,339.9
		C309.4,340.2,304.4,340,305.9,339.9 M225.8,269.3c3.9-0.1,7,1.2,9.3,3.7c-0.1,3.3-18.3,0.8-15.1-4.1
		C221.2,267,224.3,269.4,225.8,269.3C228.4,270.1,225.4,269.3,225.8,269.3 M270.3,309.4c0.6,5.1-8.1,5.4-7.9,1.1
		C262.6,306.2,270.7,302.8,270.3,309.4C270.7,312.7,270.4,307.4,270.3,309.4 M425.5,310.8c5.6-11.2,9.7,3.5,3.2,3.7
		C427.7,313.3,426.6,312,425.5,310.8C426.3,309.2,425.4,313.4,425.5,310.8 M439.9,295.2c0.2,5-1.6,8.3-5.4,9.8
		C428.8,303,439.6,286.9,439.9,295.2C438.8,297.9,439.9,293.9,439.9,295.2 M435.6,321.9c-1.1,6.9-0.4,19.3-10.1,20.1
		C425.5,341.9,434.8,322.3,435.6,321.9C434.9,326.4,432.2,323.5,435.6,321.9 M449.8,278.7c1.4,3.9-4.5,12.8-6.6,15.5
		C441.3,290.1,447.7,281.6,449.8,278.7C450.3,280.1,447.1,282.3,449.8,278.7 M296.3,189.9c2.1-0.5,5.6-2.1,7.7-1.2
		c-4.2,4.2-8.5,5.4-13,3.7C292.3,190.9,294.1,190.1,296.3,189.9C296.8,189.8,295.2,191.6,296.3,189.9 M413,363.7
		c-0.1,0.4-1.1,8.6-2.9,10C409.6,372.8,410,358.9,413,363.7C412.6,365.8,412.8,363.4,413,363.7 M448.6,264.4
		c1.8,4.2,2.5,8.5,1.4,12.9C448.2,273.2,448.2,268.8,448.6,264.4 M409.7,385.8c-0.2,2.2-0.3,4.4-0.5,6.6
		C406.9,391,406.2,385.8,409.7,385.8C409.5,388.1,409.2,385.8,409.7,385.8 M441.8,298.8c-0.2,2.5-0.3,5.1-1.9,7.3
		C439.8,303.4,438.6,300.5,441.8,298.8 M408.2,419.6C406.1,419.6,407.5,412.9,408.2,419.6C407.8,419.6,408.1,418.6,408.2,419.6
		 M408.2,411.7c0.3,1.2,0.3,2.5-0.2,3.7C406.4,414,406.2,412.8,408.2,411.7 M409.6,403.7C406.8,403.9,409.5,398.7,409.6,403.7
		C409.2,403.8,409.6,402.9,409.6,403.7 M438.4,312.5c0.3,1.3,0.3,2.5-1,3.2C437,314.4,436.6,313.1,438.4,312.5 M309.9,174
		c-0.7,1.5-1.9,1.3-3.2,1C307.5,173.6,308.7,173.8,309.9,174 M437,318.3c0.2,1.3,0.3,2.5-1.2,3.1C435.6,320.1,435.2,318.8,437,318.3
		 M408.3,380.1c0,1,0,1.9,0,2.9C406.3,382,406.3,381,408.3,380.1 M409.6,378.6C406.9,378.7,408.8,375.3,409.6,378.6
		C409.2,378.6,409.5,378.1,409.6,378.6 M442.8,295.3c0.2,0.9,0.1,1.6-0.7,2.2C441,296.3,441.2,295.6,442.8,295.3 M439.8,307.4
		c0.4,0.9,0.3,1.6-0.5,2.2C438.1,308.6,438.4,307.9,439.8,307.4 M17.9,499.3c0.1,0.6,0,1.1-0.5,1.4
		C16.5,499.9,17.1,499.6,17.9,499.3 M200.7,409.5c-1.1-1.2-0.8-2.4-0.3-3.7C201.5,406.9,201.5,408.2,200.7,409.5 M199.1,389
		C203,393.2,196.4,394.3,199.1,389C199.5,389.3,198.3,390.6,199.1,389 M195.6,135.9c-1.4,2.6-3,5-5.8,6.3
		C191.2,139.6,192.1,136.6,195.6,135.9 M188.2,145.7c0.2,0.9-0.2,1.5-1.1,1.6C186.9,146.4,187.3,145.9,188.2,145.7 M190,361.3
		c2.7,1,6.8,19.3,7.2,21.7C192.7,380.4,190.6,365.5,190,361.3C190.2,361.4,190.9,367,190,361.3 M188,354.6c1.1,1.1,1.9,2.3,1.2,3.9
		C188,357.5,187.7,356.1,188,354.6 M186.5,349.6c1.1,0.6,1.3,1.4,0.8,2.5C186.1,351.6,186.2,350.6,186.5,349.6 M184.8,346.7
		c1.2-0.5,1.5,0,1.2,1.1C185.3,347.7,184.9,347.4,184.8,346.7 M239.4,260.5c-1.8-0.9-2-2.1-0.6-3.6
		C240.9,257.9,241.1,259.1,239.4,260.5C238.4,260.5,240.4,260.2,239.4,260.5 M270.1,179c0.7-1.1,1.9-0.9,2.9-1
		C272.6,180,271.4,179.6,270.1,179 M352.2,252.9c2.3-0.5,2.9,0.4,1.6,3C352,256.3,351.5,255.3,352.2,252.9
		C352.9,252.9,352,253.9,352.2,252.9 M270.2,191.3c1.6-0.2,3.2,0.1,4.5,1.2C272.7,193.8,271.4,192.8,270.2,191.3 M266.1,188.7
		C275.2,190.7,261,191.3,266.1,188.7C267.3,189,265.8,188.9,266.1,188.7 M286.1,193.5C286,189.9,288.8,195.5,286.1,193.5
		C286.1,193.2,286.8,194,286.1,193.5 M356.6,249.1c-0.5,0-1.1-0.1-1.7-0.1C355.6,247.8,356.1,247.9,356.6,249.1 M253,136.4
		c0.6,6.2-7.6,0.6-7.6-3C245.3,129.9,253.1,131.6,253,136.4C253.2,138.1,253.1,132.6,253,136.4 M246.9,129.2
		C245.8,130.1,246.5,128.6,246.9,129.2C246.8,129.4,246.9,129.2,246.9,129.2"/>
	<path id="dark_gray" fill="#595A5C" d="M162.8,443.4c-15.5,5.6-31.9,9.7-46.6,17.2c-14.5,7.3-24.4,18.2-35.9,29.6
		c-8.3,8.2-3.5-7.1-10-5.5c-1.2,2.9-2.4,5.8-3.7,8.7c-5.2-0.7-9.9-2.7-14.1-6.1c-12.7-4.7-5.9-2.7-13.6-8.1
		c-8.1-5.7-20.4,11.6-22.5,17.3c-4.2,11.9-17.7,13.7-31,13.6v2.3l4.9,0.8c2.7,0,6.2-1.8,5.4,2.3c7.3,0.6,16.1-11,21.3-13
		c0.9-6.7,3.8-12.7,9.7-16.3c21.8-13.5,2.7,26.3,26.1,21.9c24.8-4.7,36.5-29.1,56.5-41.4c7.6-4.7,87.9-36.2,91.2-36.7
		C190.9,429.4,172.2,440,162.8,443.4 M54.3,504.5c-2.8,2.8-12-1.6-11.6-5.1c1-1.3,2.3-1.8,3.9-1.4c0,0,0,0,0.1,0
		C52.1,497.9,54.6,500,54.3,504.5 M200.7,429.7c0.1,0,0.1,0,0.1,0C200.8,429.7,200.7,429.7,200.7,429.7 M-2.8,802.6
		c0.7-1.9,5.1-18.1,8.5-17.3c2.3,0.5,2.1,15.6,2.3,17.3H-2.8C-0.8,797.5,0.8,802.6-2.8,802.6 M356.3,101.4
		c-31.2-4.7-51.9-24.9-86.2-15.1c-28.8,8.2-55.5,26.9-74.5,49.6c-12.8,2.4-22.5,43-26.7,51.7c-4.8,9.8-5.6,34.7-3,44.4
		c0.7,2.6,6.8,25.7,6.1,26.3c-0.3,0.3-18.2-1.7-9.7,8.5c1.2,11.8,0.9,23.7,0.9,35.8c-1.6-0.5-3.9-35.9-3.7-40.8
		c0.4-7,7.3-3.9,8.5-7.5c1.6-5.1-3.2-17.3-4.2-22.4c-5.8-32.3,9.6-78.3,32.9-100.9c14.5-14.1,30-26.7,48-36c1.9-1,29.3-9.6,30-12.1
		C282.4,82.1,357.5,83.6,356.3,101.4C353.4,100.9,356.3,100.9,356.3,101.4 M163.3,303.9c7.5,17.9,5.3,40.3,24,48.2
		c6.4,22.9,19.4,49.6,13.2,73.9c1.3,0.4-13.7-68.4-15.6-74.4c-0.9-2.9-11-8.3-13.4-11.7C167.6,334.3,160.4,311.3,163.3,303.9
		C164.7,307.1,161.7,308.1,163.3,303.9 M413.8,160.3c1.4,0.5-28.9-37.8-28.7-37.3C398.4,125.9,414.4,146.5,413.8,160.3
		C412.3,159.8,413.8,159.3,413.8,160.3 M385.1,123c-5.4-5.4-23.7-12.5-25.8-18.8C368.3,103.8,382.5,116.3,385.1,123 M312,173.9
		c1.4,0.8,9.2-0.9,9.5,0.5c0.6,2.6-48.8,13.1-53.2,4.6C281.3,178.7,297.6,174.5,312,173.9C314.6,175.3,311.3,174,312,173.9
		 M260.4,190.9c-1.1-2.4,51.7,4.9,51.2-0.6C312.6,201.8,265.1,193.2,260.4,190.9C259.7,189.3,264,192.6,260.4,190.9 M357.4,250.6
		c-2.4-3-5.3,1.4-7.5-1.9c5-20.7,25.8,18.3,13.4,14.5C360.8,262.4,363,250.7,357.4,250.6C357.3,250.4,358.3,250.6,357.4,250.6
		 M409.7,385.8c-2.4,0-2.5-7.1,0-7.3C409.6,381,409.6,383.4,409.7,385.8C409.2,385.8,409.6,383.4,409.7,385.8 M409.6,403.7
		c0.5,1.9,0.2,3.6-0.9,5.2C406.7,405.2,407,403.5,409.6,403.7C409.5,405.5,409.2,403.8,409.6,403.7 M408.2,419.6
		c0.5,1.9,0.2,3.6-0.9,5.2C407,422.9,405.5,419.7,408.2,419.6C408.1,421.3,407.8,419.6,408.2,419.6 M413,363.7
		C409.1,357.5,418.3,360.5,413,363.7C412.8,363.4,414.5,362.8,413,363.7 M88.4,532.7c1.8-0.5,17.9,7.8,19.3,9.3
		c5.5,5.5,15.3-10.3,21.9-6c11.2,7.2-34.4,25.8-39.1,28.6c-7.6,4.6-12.1,11.1-22.4,7.7c-4.7-1.5-33.8-12.8-37.3-10.4
		C9.6,576.6,2.2,547.7,22.7,544c17.6-3.2,20.4-9.3,37.3-14.5c6.7-2.1,4.4-7.5-1.5-7.4c-8.1,0.1-17.5,9.3-27.2,10.7
		c-8,1.2-9.2-10.4-6-15.1c5.3-7.7,19.8-5.3,27-4.9c8.4,0.5,64.1,0.8,62.7,12.4c-1,8.4-32.5-7.6-35.3-3.9c-2.2,2.9,6.1,6.4,6.7,8.9
		c-2.5,1-7.3-4.2-9.6-5.5c-2.1-1.2-19,9.1-21.5,11.1c-3.2,2.6-5.9,8.6-8.8,11.9c-1.7,1.9-22.5,4.4-20.2,6.7
		c8.8,8.7,21.7-0.5,30.1-3.3c13.7-4.5,8.5,10.4,15.5,6.4c4.6-2.6,1.1-8,8.5-7.4c0.5,0,15,1.9,12.9,2.3
		C124,546.1,94.1,545,88.4,532.7C90.3,532.1,90.1,536.2,88.4,532.7 M43.2,521.6c-0.1-7.2-11.9-6.2-12-0.5
		C31.2,526.9,43.3,530.7,43.2,521.6C43.2,517.8,43.3,525.2,43.2,521.6 M221.5,616.5c-2.8,0-17.2-1.3-19.1-4.2
		c-6.6-10.2,23.1-18.2,28.8-15.3C246.5,604.8,233.9,616.5,221.5,616.5C216.9,616.6,223.4,616.5,221.5,616.5 M93.5,615
		c-2.7,0,31.2-50.7,39-53c10.3-3-10.6,25.7-10.5,25.4C121.9,588.2,96.2,614.7,93.5,615C91.9,615,94.8,614.9,93.5,615 M485.9,580.6
		c11.5,0.6,23.2,28,0,26.4c-10.1-0.7-20.8-4.1-30.7-5.3c-7.3-0.9-33,2.3-35.2-5.7c-2.9-10.4-5.4-4.2,0.2-13.7
		c6.1-10.2-3.4-6-1.6-12.4c1.7-6.4,16.7,14.5,21,14.9c5.3,0.4,50.5,12.3,51.3,11.5C494.7,592.6,486.9,582.6,485.9,580.6
		C488,580.7,487.4,583.4,485.9,580.6 M462.1,565.5c-2,13.3-22.6,5.5-34.4,1.4c11.3-9.3,10.9-2.4,19.9,1.2
		C458.1,572.3,455,565.3,462.1,565.5C461.8,567.3,460.4,565.5,462.1,565.5 M472.1,566.9c-1.3-2.6-3.4-4.6-6.2-5.8
		c1-2.2,2.6-3.6,4.8-4.1C472,560.2,472.5,563.5,472.1,566.9C470.5,566.6,471.5,564.3,472.1,566.9 M465,562.1
		c-0.3,1.5-1.2,2.5-2.7,2.6C462,562.6,461.8,560.6,465,562.1 M529.1,511.5c-0.3-2.9-0.2-2,3.5-2
		C531.8,510.9,530.6,511.5,529.1,511.5C529,511,530.4,511.1,529.1,511.5 M482.1,576.3c-1.7-0.2-2.6-1.4-3.4-2.8
		C480.8,573.3,482,574.1,482.1,576.3 M520.3,482.9c1.4,0.1,1.5,1.1,1.4,2.1C520.8,484.6,520.3,483.9,520.3,482.9 M523.1,486.6
		c1-0.1,1.5,0.4,1.3,1.4C523.7,487.9,523.2,487.4,523.1,486.6 M474.3,570.5c-0.9,0-1.4-0.4-1.4-1.3
		C473.9,569.1,474.3,569.6,474.3,570.5 M536.4,509.7c-0.7,0.3-1.3,0.2-1.6-0.5C535.6,508.5,536,509.1,536.4,509.7 M414.4,354.4
		c-0.4-3.3-0.3-6.6,1.7-9.5C416,348.1,416.3,351.4,414.4,354.4 M416.4,342.7C415.7,341.6,417.6,340.9,416.4,342.7
		C416.3,342.4,416.7,342.3,416.4,342.7 M411.3,371.4c-1-0.9-0.3-1.2,0.5-1.5C411.6,370.5,411.4,370.9,411.3,371.4 M296.9,160.2
		c11.3,0,33.8-37.5,34.7-37.1c12.5,4.6,6.1,18.5,2.7,28.5c-5.3,15.9-34.6,18.6-47.4,14.6c-7.8-2.4-9.5-14.7-16.6-19.8
		c-14.9-10.8-22.8,2.2-6.7,9.8c21.4,10.1,0.3,15.6-12.1,10.6c-17.1-6.9-6.1-23.9-9.9-26.9c-1.5-1.2-15.4,7-8.1-6.7
		c4-7.5,9.1-6.7,13.6-15.3c5.9-11.3,29.9-15.3,40.8-17.1c3.8-0.7,31.8-2.5,32.5-3.1c6.2-5.2,14.9,9.4,12.5,14
		c-3,2.4-6.5,3.6-10.3,3.7c-8.5,5.1-2.8,5.6-6.8,14.5c-5.1,11.4-20.1,9.3-23.5,18.1C287,161.3,296.9,157.1,296.9,160.2
		C298.2,160.2,296.9,160.2,296.9,160.2 M251.7,122c0.6,20.8,36,12.4,46.6,17c1.8,0.8,11.6-9.3,12.6-10.8c7.6-11.5-9.3-8.4,4-17.8
		c2.6-1.8-29,0-34.6,1.2C274.5,112.9,253.2,114.7,251.7,122C251.7,123.3,251.7,121.8,251.7,122 M253,136.4c0.1-4.8-7.7-6.5-7.6-3
		C245.5,137,253.6,142.6,253,136.4C253.1,132.6,253.2,138.1,253,136.4 M246.9,129.2C246.5,128.6,245.8,130.1,246.9,129.2
		C246.9,129.2,246.8,129.4,246.9,129.2 M526.9,513c0.3-1,1-1.4,2-1.4C528.8,512.9,527.9,513,526.9,513 M299.2,279.4
		c-0.1-5.4-6.4-19.6-12.5-7.9c-2.9,5.6,2.7,18.2,2.1,25c-3.5-0.7-6.2-26.3-3.2-30.5C298.2,248.5,301.9,278.8,299.2,279.4
		C299.1,276.8,299.8,279.3,299.2,279.4 M292,297.4c10.8-0.9,0.4-11.8,7-15.7C298.9,277.6,299.9,308,292,297.4
		C296.4,297,292.9,298.7,292,297.4 M244.1,256.6c-1.8-1.8-2.3-3.8-1.6-5.9c2.5-0.5,12.1,5.4,6.7,8
		C247.9,259.4,245.4,256.8,244.1,256.6"/>
	<path id="red" fill="#EB2227" d="M444.2,503.5c-11.6-11.2,12.1-15.6,3.8-26.7c-8.6-11.4-22.4-15.9-30.7-26.3
		c-3.1-3.9-22.3-25.5-10.5-28.8c0.2-2.4,2-20.2,2.3-20.3c2.1-10.1,3.3-36.2,2.1-45.5c-0.9-6.9,0.5-14.2,1.5-21
		c0.9-5.8,1.5-11.7,1.6-17.6c-1.6-3.6-4-6.4-7.2-8.7c0.2,1.2,10.4-28,8.4-27.4c6-1.5,3.4,45.6,3.2,50c-1.1,23,17.3,1.1,17.2-9.9
		c-1.6-8.6,22.4-58,10.8-59.3c-0.1,1.8,3.2,15.7-1.2,15.6c-0.1,0-4.3-12.6-7.4-14.7c-13.3-9.1,1.9-6.5,6.7-6.5
		c-1.9-21.4-13.8,2.1-18.9-2.2c-2.3-1.9-11.2-16-11.4-19.1c-1.4-16.2,5.1-30.8,3.9-47.4c-0.6-7.8-39.3-78.2-52.6-67.5
		c-6.4,5.1,10.9,21.2-5.8,23.6c-3.2,0.5-25.7,3.2-15.8,9.5c4.6,2.9-44.9,19.2-44.6,20.3c1.4,6.5,56.4-13.6,55.1-2.4
		c-1.6,14-94.8,9.4-93,16c8.2,0.8,97.6,0,97,2.2c0,0-28.6,0.2-28.8,9.6c-0.2,7.4,34.8-9.5,36.1,0.5c-0.7-5.3-42.1,16.3-43.8,15.2
		c-7-4.3-13.5,13.6-18.8,7.2c-4-4.9-4.1-21.9-4.8-22.6c-0.9-1-33.4-3.5-33.9-3c1.9,1.6,19.5,8.7,18.8,10.8
		c-1.9,5.8-17.3-3.2-20.2-4.2c2,4,17.5,10.3,15.8,15.9c-0.3,0.9-42.8-22-42.8-22.3c1.8-0.9,3.6-1.8,5.3-2.8
		c-13.3,2.4-65.4,25.9-26.4,18.2c19-3.8,25.5,8.6,41.2,17.1c3.3,1.8,34.2,8.7,34.5,9.4c3.3,7.1-11.7,22.1-16.2,26
		c-10.3,8.8-11,3.8-17.1-3.3c-1.2,9-26.3,11.3-32.5,12.4c5.6,6.3,20-1.2,27.2,1.3c4,1.4-0.3,6.4-1.5,7.8c-10,11.6-18,10.5-31.2,5.5
		c-7.4-2.8-13.5-2.2-17.8,5.1c-6.9,11.8,9,22.9,15.9,30.4c1.8,1.9,35.5,45.1,30,47.8c12.1-6.1,1.7,2.2,12.7,3.2
		c-2.9-0.2,19-18,18.7-11.7c-0.7,21.5,18.3,17.7,32.7,28.7c20.4,15.6,2.1,22-1.3,36.9c-7.5,33.3-10.9-3.1-7.2-2.7
		c-1.4,11-16.9,2.8-15.6,0.9c2.1-3.1,11.2-1.9,14.2-1.2c-5.6-1.9-26.6-15.9-31.9-10.2c-5.1,5.6,22.5,30.9,15.1,35.7
		c-2-1-4.1-1.9-6.2-2.7c-2.9,1.5,1.1,14.9,1.7,16.7c4.7,13.1,12,3.9,21.4,5.9c4.5,0.9,18.4,14.2,21.6,10.5
		c5.3-6.1,7.7-10.3,15.4-9.6c24.7,2.2,1.8-55.9-0.7-65c-1.8-6.6-28.6-34.5-24.5-38.6c2.8-2.9,27,19.9,29.9,22.6
		c4.1,3.9,2.6,21.5,4.7,27.9c3.6,10.6,11.5,18.1,12.4,29.7c1.5,20.5-5.1,43.6-22.8,55.5c-25.4,17,4.4,13.9-8.7,36.1
		c-5.4,9.1-3.7,11.4-0.8,20.2c1.9,5.9-6.2,7.4-9.4,11.9c-13.3,19.1-11.1-16.3-17.5-23c-10.2-10.7-27.4,27.9-30.6,26.9
		c-11.8-3.9-50.9-21.6-64.3-15.7c8.5,14.5,31.6,7.2,42.8,16c9.8,7.8-2.2,29.3,13.4,39.5c5.8,3.8,29.3,7.8,30.8,11
		c4.4,9.6-1.6,28.3-6,37.3c-1.3,2.5-27.2,8.6-29.9,8.2c-15.4-2.6-13.5-28.3-29.5-29.3c-20.9-1.2-61.8,22.9-75.5,38.7
		c-13.2,15.2,8.3,8.7,11.3,18.3c2.7,8.8,27.8,7.9,34.6,6.6c20.7-3.9,71.4-37.2,84.3,2.7c5.3,16.4,4.1,30.4,8,45.3
		c2.5,9.4,4.2,35.9-8.4,15.5c-4.3-7-8.2-33.9-18.9-24.9c-8.6,7.3,4,13-0.6,20.2c-7.1,11.2-10.8,23.4-11.1,36.7h52.5
		c0.4-13-5.3-26.2-5.9-39.3c-0.4-8.6,7.5-33.9,17.3-18.6c7.4,11.5,12.1,26.8,19.1,36.8c5,7.2,11.1,11.2,9.7,21.1h46.7
		c-1.5-6.4-11.8-6.2-16.7-16.2c-2.6-5.2-0.2-9.4-5.8-13.1c-10.5-6.8-1.1-9.6-5.4-18.5c-5.8-12-25.2-57.2-1.3-48.7
		c4.6,1.7,1.1-7.7-3.3-9.2c-9.5-3.2-13.5-8.2-5-15.2c2-1.6,6.8-14.7,8.9-13.9c6.8,2.8,11.2-0.5,4.5-7.6c-11.1-11.8-16.2-39-4.3-52
		c3.5-3.9,35.8-16.1,34.8-20.2c1.2,0.8-28.9-8.1-18.2-14.5c5.2-3.2,23.8,3.7,26.6-1.4c3.2-5.7-10.8-8.1-7.7-12.4
		c-4.3,5.9,42,13.1,35.7-2.4c-2.9-7.2-22.4,0.3-14.1-13.6c14.9-24.7-7.3-7-13.1-20.8c-1.3-3.1,7.1-6.3,4.4-12.5
		c-3.7-8.4-1.2-20.3,9.7-20.9c4.9-0.2,28.9,32.3,28.9,32.5c2.6-5.4-3.1-16-6.8-19.6C445.9,505.1,446.1,505.4,444.2,503.5
		C433.2,492.9,449.2,508.3,444.2,503.5 M433.7,302.6c-0.9,2.9,3.3-11.4,5.4-10.5C443.3,294,432.1,307.5,433.7,302.6
		C431.4,309.7,433.4,303.6,433.7,302.6 M432.7,310.7c-0.7,3.1-2.5,4.2-5.5,3.4c-4.8-2.3,1.3-8.6,4.2-7.4
		C447.1,313.1,432.7,310.4,432.7,310.7C432.4,315.3,432.8,308.4,432.7,310.7 M420.5,277.2c1.8-5.1,11.7,9.7,8.2,14.6
		C425.9,295.9,420.7,276.6,420.5,277.2C423,269.9,419.2,281,420.5,277.2 M253.2,210.2c-1.7,4.6-18.2-4.3-16.9-6.8
		C238.4,199.3,254.6,206.4,253.2,210.2C252.7,211.6,253.7,208.9,253.2,210.2 M324.3,242c1-0.6,41.4-18,36-4.9
		c-0.6,1.5-26.5,14.8-29.3,15.8C322,256.2,326.1,240.9,324.3,242C331.4,237.5,322,243.5,324.3,242 M362.4,259.3
		c0.4-2.8-0.5-5-2.8-6.6c1.1,19.2-23,11.2-14.6-2c-3.5,1.3-2.8,10.1-5.4,10.3c-9.1,0.6,4.1-16,11.3-16c15.8-2.9,14.4,18.7,12.5,18.1
		C365.1,265.1,362,257.7,362.4,259.3C361.9,257,362.7,260.6,362.4,259.3 M270.3,309.4c-0.5,3.4-2.4,4.7-5.8,3.9
		C257.5,311,270.8,300.5,270.3,309.4C271,314.5,270.4,307.4,270.3,309.4 M269.1,343.4c-9.8-6.3-20.5-8.2-16.7-21.5
		c0.9-3.2,7.9-29.1,13.1-27.6c9.4,2.8-19,21.8,0.9,23.3c12,0.9,31.7,25.4,36.8,9.3c-3.1,0-15.3,5-9.4-5.7c3.6-6.6-3.7-13.7-7.4-19
		c-7.6-10.8-13.8-47.4,6.5-50.8c23.6-4,8.2,44.5,18.2,50.7c5.8,3.6,31.1,4.4,18.2,20.9c-2.9,3.7-25.1-11.8-24.6,2.5
		c1.3-0.3,17.3-4.6,18.3,0.5C325.9,340.7,277.9,349,269.1,343.4C266.1,341.4,272.7,345.7,269.1,343.4
		C264.3,340.2,273.5,346.1,269.1,343.4 M302.2,374.1c-7.1,11.8-23.3-2-17.7-9.7C287.7,360,306.8,366.5,302.2,374.1
		C291.1,392.5,303,372.8,302.2,374.1 M312.7,347.9c-4.4-0.4-7.7-2.6-9.8-6.4C311.9,336.8,315.1,349.1,312.7,347.9
		C308.1,347.4,313.9,348.5,312.7,347.9 M376.1,520.9c-25,19.8-36.9-15.3-20.4-32.7C365.9,477.5,379.4,518.3,376.1,520.9
		C372.7,523.5,377.1,520.1,376.1,520.9 M375.3,306.9c-5,1.8-11.2-1.9-16.5-0.3c-3.7,1.2-2.8,19.1-7.3,23.4
		c-8.8,8.4,5.2,39.7-12.2,41.9c-34.9,4.5-15.5-50.2-5.1-50.5c5.1-0.2,2.5,11.3,7.5,10.8c4.8-0.4-4.8-23.3-5.7-25.5
		c-3-7-8.4-12.5-10.8-19.8c-2.5-7.5,6.8-3,8.7-6.5c1.7-3.3-6.4-4.3-3.3-8.4C329.5,273.6,408.1,294.7,375.3,306.9
		C372.6,307.9,379.1,305.5,375.3,306.9 M381.8,253.3c-5.5,14-18.5-5.6-23.7-10.1C354,239.6,387.4,239,381.8,253.3 M390.1,232.6
		c1.8-1.7-37.9-23.6-37.8-25.1C359.3,198.2,402.7,220.6,390.1,232.6 M84.9,509C84.2,508.9,105.1,513.2,84.9,509
		c6.5,1.4,23.6-26.5,39.4-9.8c27.7,29.2,6.8-5.3,15.9-10c11.1-5.6,8.9-14.9,19.6-23.4c9.9-7.8,20.8-14.2,30.6-22.1
		c20.2-16.3,1-34,9.8-53.7c22.6,22.7-10.8,65.7-9,89.4c1.2,15.9-8.2,32.1-3.3,47.8c3.1,10.1,3,14.1,4.4,24c1,7,11.6,3.4,12.8,9.1
		c-19.8,5.2-32.2-16-44.1-27.6C144.2,516.5,107,513.6,84.9,509 M175.7,314.8C179.5,319.6,172.9,311.4,175.7,314.8
		C178.3,318.1,176.5,315.9,175.7,314.8c4.7,5.9-5.7,13-3.9,20.1c-12.2-4.2-8.2-52.9-8.2-61.3c5.9,3.4,0.6,19,0.6,24
		C164.2,305.1,171.5,309.6,175.7,314.8 M504.2,523.5C501.7,525,508.9,520.8,504.2,523.5c4.5-2.6-26.9,9.6-25.6,10.3
		c-12-6.3,12.4-32,17.6-38.6c15-18.9,38.8,8.9,34.3,11.7C522.2,512.2,513.6,518,504.2,523.5 M155.4,572.6
		c-4.5,5.2-20.6-9.8-22.4-19.5C131.8,546.3,173.4,551.8,155.4,572.6 M19.1,507.7C16.1,507.3,23.5,508.3,19.1,507.7
		c1.7,0.2-5.1-10.3,0.5-9.7c-1.2,2.4-1,4.6,0.5,6.8c7.3,1.7,10.5-18.5,15-20.1c6,3.7-6.6,9.9-4.7,13.8
		C33.4,505.3,42,510.7,19.1,507.7 M76.2,506.4C74.3,506.2,79.2,506.8,76.2,506.4c-8.4-1.1,14.1-24.4,17-20.6
		C95.6,489.1,80,506.9,76.2,506.4 M140.3,675.1C141.8,674.9,133.3,676.2,140.3,675.1c1.7-0.3,4,3.9,3.7,6.4
		C142.9,690.7,127.7,677.1,140.3,675.1 M157.3,779.2C156.5,779.8,160.4,778.6,157.3,779.2c0.2-0.2,0.7-11.4,6.4-4.9
		C161.5,775.9,159.4,777.6,157.3,779.2 M113.2,725.3C113.2,724.1,114.3,726.9,113.2,725.3C113.4,712.8,121.8,737.1,113.2,725.3
		 M24.6,490.2c-0.9,2-1.9,4-4,5C20.6,492.5,21.9,490.8,24.6,490.2 M113,643C113,642.6,113,643.9,113,643c1.9-1.1,2.4-0.6,1.4,1.4
		C113.5,644.4,113,643.9,113,643 M173.5,262.1c0.7-0.1,5.5,29.7,5.7,29.7c7.5-1,9.5-42.9,2.1-44.3c-3.4-0.6,0.2,5.2-3.3,5.1
		c-9.4-0.4-10.1-44.5-5.9-51.8c5.3-9.3,11.9-18.4,19.4-26c4.5-4.5,15.5-6.8,8.8,0.9c6-6.9,69.3-5.9,69.4-0.3
		c-0.2-10.5-77.2,12.5-72,17.4c4.2,4,15.2-13.1,18.9-5.9c2.3,4.6-18.1,8-16,12.9c0.6,1.4,25.6-7.6,27.8-8.4
		c18.1-6.7,17.7,2.5,35,5.2C260,191,236.3,182,236,180c0.5,4.8,66.7-7.3,21.8-9.9c-20.6-1.2-13.7-6.3-25.9-16.6
		c-10.9-9.1,5.9-26.5-8.8-28.3c-4.4-0.5-3-7.7-8.9-4.8c-6.4,3.2-10,10.1-15.6,14.2c-9,6.6-16.7,18-21.2,28.5
		c-6.4,15.1-12.3,36.3-11,52.8c0.4,5.5,9,39.2,5.5,42.3c-3.8,3.4-5.9-6.2-9.3,1.2C166.4,258.1,173.4,262.1,173.5,262.1
		C173.9,262,169.4,262.9,173.5,262.1 M208.7,163.9c5.3-4.7,16.9-9.9,23.3-3.7c0.8,0.8-20.3,8.2-25.3,6.1
		C206.7,165.6,212.3,160.7,208.7,163.9C213.7,159.5,207.9,164.6,208.7,163.9 M280.5,172.8C279.5,171.7,281.3,173.6,280.5,172.8
		c-0.1-0.1-2.9-1.9-1.5-3.9c1.4-2.2,10.6-1.6,10.5,1.6C286.8,173.8,283.8,174.6,280.5,172.8 M162.3,260.6c0.3,2.1,0.3,4.1,0,6.2
		C160.6,264.7,160.3,262.6,162.3,260.6 M162.4,268c1,1.3,1.9,2.5,1,4.3C162.4,271,161.9,269.6,162.4,268 M175.6,343.9
		c-2.5-1.7-3.3-4.2-3.1-7.1C174.2,338.9,174.9,341.4,175.6,343.9 M277.3,389.1C278.8,389.8,272.1,386.7,277.3,389.1
		c2.7,1.2-0.4,19.9-5.2,18.8C268.4,405.6,272.7,387,277.3,389.1 M180.6,301.5C181.4,301.4,177.7,302.1,180.6,301.5
		c4.9-0.9,6.5,17.6,1.4,20.5C180.5,322.1,177.2,302.1,180.6,301.5 M217.5,267.1C220.8,266.3,213.7,268,217.5,267.1
		c5.3-1.3,1.1-21.1,12.7-17.5c-9.8,8.7-7.8,10.2-4.4,19.7c-1.1,0.1-12.1-2.7-3.7,3.6C220.7,273,213.6,268,217.5,267.1 M251.2,252.4
		C245.8,249.5,252.2,247.3,251.2,252.4C245,249.1,251.5,250.9,251.2,252.4c-6.3-3-12.8-4-19.7-3.1
		C234,245.3,252.3,246.6,251.2,252.4 M179.8,242.3C179.7,242.2,180.1,245.9,179.8,242.3c-0.7-2.2-0.3-4.2,1.3-6
		C184.3,241.4,180.2,246.4,179.8,242.3 M252.9,255.2c2.7,0.6,4,2.3,4.1,5C255.2,259,253.5,257.6,252.9,255.2 M251.7,197.4
		c-2.4,0.1-3.4-1.8-4.4-3.5C249.3,194.5,252.1,193.9,251.7,197.4 M178.5,296.4C178,298.4,179.3,293.1,178.5,296.4
		C178.5,296.5,178.6,296.1,178.5,296.4 M260.5,201.4c-1,0.4-1.5,0-1.7-1C259.6,200.4,260.1,200.7,260.5,201.4 M251.5,253
		c1,0,1.4,0.5,1.2,1.5C252,254.3,251.6,253.8,251.5,253 M304.8,325.5c-0.1,0.9-0.5,1.4-1.5,1.4C303.3,325.9,303.8,325.5,304.8,325.5
		 M312,207.4C309.9,207.1,313.3,207.6,312,207.4c-9.8-1.5,3.6-17.6,5.8-6.5C317.8,202.7,313.3,207.6,312,207.4 M355,249
		C355.5,249,353.2,249.8,355,249c8.7,0.7-10.7,2-10,1.7C346.6,246.4,352.1,250.2,355,249 M357.4,250.6c0.9,0,1.4,0.4,1.6,1.3
		C357.8,252.1,357.3,251.7,357.4,250.6 M283.8,193.1C284.3,191.8,284.6,193.2,283.8,193.1C284.2,192,288.8,193.9,283.8,193.1
		 M266.1,188.7C265.8,188.9,265.8,187.8,266.1,188.7C263,190.3,264.9,185.4,266.1,188.7 M296.3,189.9c-1.1,1.7-2.8,1.8-4.6,1.7
		C292.8,189.8,294.6,190.1,296.3,189.9 M553.5,685.7c10.5,9.4,6.8,27.7,14.4,40.2c13.3,21.8,13.8,38.2,12.3,63.5
		c-1.2,20.6-8.9,13.2-27.5,13.2h-41c-2.2-37.6,9-75.3-11.5-110.6c-7.4-12.7-8.5-42.9-1.7-56.8c4.3-8.7,18.4-14,16.2-25.3
		c-0.8-4-4.4-11.4-0.6-15.1c11.9-11.8,52.2,5,64.8,8.3c10.1,2.7,12-10,23.1-2.3c6.5,4.5,11,11,17.1,15.9c2.3,1.9,4.8,3.6,7.1,5.2
		v26.5c-15.8-12.3-46.6-26.5-59.4-27.3c-49-3-0.6,32.4-16.6,37.3c-2.2-1-4-2.5-5.5-4.4c-5.6-2.3-3.9,18.2-2.8,20.3
		C544.3,679.3,549.5,682.2,553.5,685.7 M200.5,785.9C200.5,785.9,200.5,785.9,200.5,785.9C200.5,785.9,200.5,785.9,200.5,785.9
		 M200.5,785.9c-0.3,0.1-0.5,0.1-0.5,0.1C200,786,200.2,785.9,200.5,785.9 M200,786C200,786,200,786,200,786 M202.7,785.5
		C202.8,785.4,202.8,785.4,202.7,785.5 M201.3,785.7c4.1-0.8,14.4,16.9-9.4,16.9H96.4c-12.3,0-37.1,5-42.5-5.4
		c-3.2-6.1-8.7-10.7-12.6-16.4c-3.7-5.6-15.9-37.6-12.4-42.6c11.6-16.5-3.4-49.3,4.4-69.4c3.2-8.2-26.6-5.6-32.9-8.6
		c-5.8-2.8-10.1-7.5-14.9-11.6v-66.9c14.4,0.7,30.3,0.1,34.9,3.7c18.4,14.7,33.8,66.5,61.4,63c4.3-0.5,28.4-9.8,30.2-2.3
		c1,4-6.9,17-1.1,18.9c6.9,2.3,11.1-10.1,12.6,9c0.2,2-6.7,16.3-10.3,17.4c-31.3,10.1,0.5,32.1-8.6,54.3
		c-8.6,20.8,18.3,15.5,24.5,33.8c5.7,17,38.6-8.7,42.7,3.5c0.1,0.3-13.3,4.4-10.7,6.7C165.1,793.3,195.4,786.9,201.3,785.7
		c-0.3,0.1-0.6,0.1-0.8,0.2C200.7,785.8,201,785.8,201.3,785.7c0.6-0.1,1-0.2,1.2-0.2C202.3,785.5,201.8,785.6,201.3,785.7
		 M202.5,785.5c0,0,0.1,0,0.1,0C202.6,785.5,202.6,785.5,202.5,785.5"/>
	<path id="white" fill="#F2F2F3" d="M556.9,533.9c12.7,4,23.3,8.9,28.2-5.9C602.4,537.4,562.8,551.8,556.9,533.9
		C561.4,535.4,557.7,536.2,556.9,533.9 M536.4,509.7C535.7,510,537.4,509.8,536.4,509.7c0.3-0.2-14.2,2.5-10.3,6.5
		C528.7,519,544.9,510.7,536.4,509.7 M580.7,523.1c-1.2-2.3-2.9-3.8-5.7-3.6C576.3,521.5,578.5,522.4,580.7,523.1 M85.5,530.5
		C85.8,531.3,85.8,530.4,85.5,530.5c3.8,13.8-26.4,15.9-21.6,6.2c2.9-6,15.7-7.6,20.4-6.5c-5.4-12.3-30,2.2-32.3,10.4
		c-2.3,8.2-24.7,14.9-25.7,13.9c12.6,12.5,26.8-8.1,37.5-5.7c14.9,3.4-5,14.5,11.9,2.4c8.2-5.9,27.2,9.1,31.9-1.8
		C109.4,545,86.1,530.2,85.5,530.5 M485.9,580.6C484.2,579.5,487.4,583.4,485.9,580.6c-4.3-2.8-20.8-25.9-23.8-15.1
		c-2.7,18.2-24.1-4.1-39.5,2.9c-4.2,13.5,65.5,30.8,68.4,27.9C494.7,592.6,486.9,582.6,485.9,580.6 M46.6,497.9
		C45.8,497.9,49.5,497.4,46.6,497.9c-1.7-0.5-3,0-4,1.4c-0.3,3.6,8.8,7.9,11.6,5.1C54.6,500,52.1,497.9,46.6,497.9 M299.2,279.4
		C299.1,276.8,299.1,280.2,299.2,279.4c-0.1-5.4-6.4-19.6-12.5-7.9c-2.9,5.6,2.7,18.2,2.1,25C295.7,304.3,298.8,282.2,299.2,279.4
		 M43.2,521.6C43.2,517.8,43.3,525.2,43.2,521.6c-0.1-7.2-11.9-6.2-12-0.5C31.2,526.9,43.3,530.7,43.2,521.6 M251.7,122
		C251.7,123.3,251.7,121.8,251.7,122c0.1,3,11.7,15.1,14.4,16c0.2,0.1,35.9-0.4,34.5,0.8c13.7-11.1,3.2-20.5,14.3-28.4
		c2.6-1.8-29,0-34.6,1.2C274.5,112.9,253.2,114.7,251.7,122 M556.9,533.9C557.7,536.2,561.4,535.4,556.9,533.9
		c5.9,17.9,45.4,3.4,28.2-5.9C580.2,542.9,569.6,537.9,556.9,533.9 M574.9,519.5C572.4,516.4,572.8,519.7,574.9,519.5
		c-21.7-27.4-51.7,16.7-20,14.2c-1.7-3.7-13-6.5-12-11C546.6,505.8,566.7,520.3,574.9,519.5"/>
</g>
</svg>
