<?xml version="1.0" encoding="utf-8"?>
<!-- Generator: Adobe Illustrator 16.2.1, SVG Export Plug-In . SVG Version: 6.00 Build 0)  -->
<!DOCTYPE svg PUBLIC "-//W3C//DTD SVG 1.1//EN" "http://www.w3.org/Graphics/SVG/1.1/DTD/svg11.dtd">
<svg version="1.1" id="Layer_1" xmlns="http://www.w3.org/2000/svg" xmlns:xlink="http://www.w3.org/1999/xlink" x="0px" y="0px"
	 width="700.23px" height="807.95px" viewBox="0 0 700.23 807.95" enable-background="new 0 0 700.23 807.95" xml:space="preserve">
<path d="M508.256,248.69c2.838,4.309,4.138,10.143,10.707,10.707c-4.416,3.604-6.639,5.756-7.135,11.422
	c-3.533-0.992-7.104-1.945-9.278-4.287c-2.371,8.852,8.484,5.07,13.564,6.432c4.316-1.023,7.441-5.053,12.137-5.717
	c2.439-0.338,3.979,1.447,6.43,1.43c5.537-0.051,11.263-4.686,17.137-2.145c1.52,3.018-0.574,5.854-1.429,8.562
	c0.05,4.445,5.835,5.736,7.135,9.992c0.635,2.096-1.37,4.664-1.43,9.277c-0.049,3.623,1.646,7.355,1.43,9.994
	c-0.18,2.172-1.588,4.465-1.43,6.43c0.912,11.145,13.635,22.555,2.857,29.271c-5.011-3.115-3.632-9.477-5.001-14.279
	c-4.832-17.018-17.971-27.625-29.987-37.836c-10.775-3.969-22.763-6.748-38.55-5.715c-5.17,6.27-7.254,20.371,0,23.557
	c1.994,0.873,5.159,0.07,7.849,0.715c8.644,2.084,18.179,9.129,24.272,8.562c1.646,0.219,0.793-2.062,2.144-2.143
	c0.772-5.289-4.158-4.883-2.858-10.707c5.616-0.309,8.932,2.145,15.709,2.145c2.738,7.59-7.025,15.41-2.858,22.127
	c-2.521,1.092-4.267-1.885-7.849,0c-2.174,3.959,1.062,6.449,0.715,10.707c-1.936,0.924-3.969,1.746-7.135,1.43
	c0.783-10.775-9.367-10.619-13.565-16.424c-6.438,3.324-6.955,12.562-13.563,15.709c-8.731,0.863-17.217,2.23-22.129-2.145
	c-3.988-3.543-2.231-9.912-7.85-11.422c-4.376,0.148-2.143,6.896-5,8.564c-3.604,0.506-4.902-1.281-7.136-2.145
	c-2.906,0.873-5.021,5.627-8.563,3.572c-1.845-2.67,3.137-7.541-1.429-9.277c-7.185,4.594-7.76,16.748-7.134,27.844
	c1.012,18.02,10.638,35.752,24.271,46.398c12.117,9.467,30.454,14.994,48.544,12.137c23.854-3.771,43.085-21.402,50.688-42.123
	c2.271-6.191,0.992-13.922,6.429-17.137c8.266,13.523-10.774,37.131-19.983,45.695c-17.702,16.451-38.58,27.406-65.681,19.982
	c-12.898-3.531-26.306-12.393-34.978-24.984c-9.457-13.715-17.635-30.295-18.566-47.828c-0.477-9.041-24.56-10.51-12.85-22.844
	c3.154-0.299,5,0.705,6.43,2.145c10.836-6.074-1.559-27.328,7.85-34.264c-0.934-3.295-3.424-8.229-2.145-11.424
	c4.515-0.635,5.914,5.012,10.707,4.287c7.661-1.17,2.511-10.17,7.85-14.992c3.869-0.535,4.595,2.062,7.135,2.857
	c7.413-7.789,12.988-14.469,24.271-12.852c3.385,0.486,5.745,4.506,9.277,5.002c4.545,0.635,9.734-3.186,14.994-2.145
	c3.254,0.646,3.225,3.959,7.134,3.572c3.483-0.805,4.902-3.662,7.135-5.715c-0.973-3.314-5.903-2.67-6.43-6.432
	C502.182,249.752,504.207,248.213,508.256,248.69z M697.355,338.641c-5.992,0.041-6.479-5.418-9.277-8.562
	c-8.514,3.375-12.482-8.008-20.699-2.857c0.418,7.432,5.746,9.953,6.432,17.137c-2.312,1.906-4.119,0.07-6.432,1.43
	c1.15,6.945,5.936,10.252,7.85,16.424c-8.91-1.023-5.676,11.322-6.43,16.422c3.314,1.756,4.605,3.502,5.002,9.277
	c3.006,0.863,3.125-1.15,5-1.428c4.178,1.002,3.672,6.527,4.287,9.277c-5.766,1.855-13.645-5.566-19.279-9.992
	c-3.395,3.572,0.309,8.127,1.428,11.422c-0.258,5.725-2.619,5.953-1.428,12.135c-2.898,1.768-2.193-1.33-4.287-2.143
	c-3.246,3.174-2.154,4.881-1.43,10.705c0.883,7.035-1.092,18.846,0,23.559c2.062,8.881,14.021,9.338,14.994,17.852
	c-6.264-1.131-10.25,2.641-14.279,5.717c-2.641-0.041-4.535-5.549-6.43-8.564c-4.902,2.857,0.613,6.926,1.428,8.564
	c0.389,0.793-0.287,2.736,0,3.57c1.668,4.773,7.045,8.951,7.85,14.279c-2.381,1.311-4.754,3.018-7.135,0.715
	c-2.658,6.678-1.795,13.684,0,20.699c5.102,1.736,17.752-4.02,19.984,3.57c0.119,3.205-4.256,1.938-6.43,2.859
	c5.199,9.586-2.541,22.385-5,33.549c-2.502-0.348-4.646-1.062-7.852-0.715c0.785-4.932-2.6-10.965-7.848-12.137
	c-0.26-4.971-2.441-8.027-6.432-9.277c-4.365,2.57-1.002,9.953,2.145,11.422c-0.844,8.455,0.615,14.605,4.287,18.564
	c2.926,0.07,5.854,0.141,7.848-0.715c-0.586,5.121-1.924,9.498-3.57,13.566c-5.389-0.08-4.725-6.223-7.85-8.564
	c-4.465,0.873-1.688,5.289-3.572,9.277c-6.777,0.348-9.418,10.062-15.709,6.432c-4.117,1.598-3.938,7.48-7.85,9.277
	c-3.164,0.307-1.547-4.158-4.287-4.287c-2.986-0.605-3.373,1.391-5.715,1.43c-0.328-3.475-1.598-6.023-4.287-7.135
	c-14.299,4.029-9.01,27.637-19.984,34.979c-0.109,1.775,1.121,2.213,1.43,3.572c4.732-0.27,4.672-5.328,6.43-8.562
	c8.674,1.328,12.354,7.641,16.424,13.562c-4.287,0.557-7.473,0.754-12.137,2.145c-0.637-1.271-1.994-1.814-1.43-4.287
	c-1.746,1.252-1.795,4.199-5,2.145c-2.215,3.453-0.965,8.086,0.713,11.422c2.242,1.895,3.018-2.016,5.717,0
	c6.906,12.354-3.424,25.641-9.992,34.264c-4.842,1.111-7.908,4-10.707,7.135c-2.906-0.18-3.521-2.658-7.135-2.145
	c-2.223,2.928-4.523,9.129-1.43,11.422c-3.77,3.443-3.176,11.947-0.715,16.422c4.1,0.428,9.775,1.004,10.707,6.432
	c-0.754,3.285-4.822,3.266-5.715,6.43c-14.526,0.727-26.216-9.506-37.836-9.992c-3.404-6.836-14.2-6.27-19.28-11.422
	c-9.645,23.031-4.861,60.809-23.557,76.389c-2.462,16.551-16.979,23.686-30.702,30.701c-11.034,5.646-21.215,10.568-35.691,12.85
	c-0.238,0-0.478,0-0.716,0c-9.485-1.348-18.873-1.479-28.559-2.143c-14.507-0.992-27.02-9.109-39.979-0.715
	c-15.927,1.41-31.05-4.346-43.553-7.85c-8.455-2.371-17.048-2.6-24.986-5.002c-22.862-6.904-41.677-16.232-62.107-26.414
	c-11.352-5.654-22.634-9.715-32.131-17.137c-5.092-3.98-8.98-9.27-14.278-12.852c-5.548-3.74-10.678-6.6-15.709-10.707
	c-5.349-4.365-9.913-8.723-14.993-12.135c-5.736-3.859-11.709-4.506-19.279-7.135c-7.879-2.75-23.012-13.893-34.979-10.707
	c-3.88,1.031-5.845,7.602-10.707,10.707c-7.969,5.09-17.584,4.98-20.7,14.992c-1.418-0.535,2.402-4.008,0-5.715
	c-3.453-1.658-9.833,4.197-13.563,0c-3.175-7.48,10.032-6.668,11.422-12.85c1.26-5.588-3.375-10.945-8.563-13.566
	c-3.403,0.408-5.061,2.551-7.85,3.574c-3.125,0.029-3.592-2.602-7.134-2.145c-3.802,1.598-2.004,4.613-2.145,9.277
	c-8.88,4.973-18.417-1.885-17.137-10.707c2.64-1.787,4.098-0.803,7.851-0.715c7.729-7.264,20.152-9.824,22.127-22.842
	c-8.156-6.838-7.393-22.584-17.852-27.129c-2.104,2.588-2.332,9.139-0.714,11.42c-4.952,4.029-10.798,8.059-18.566,5.717
	c-1.251-3.195-3.831-17.723,3.572-19.279C6.52,623.143,3.286,605.6,2.7,589.247c-0.188-5.289,1.736-12.037,1.429-17.852
	c-0.337-6.213-2.629-10.717,2.144-14.994c9.467-3.383,15.152-10.549,22.844-15.707c0.466-3.723-0.844-6.451,0-8.564
	c3.938,0.131,6.568-1.041,9.277-2.145c-1.875-4.234-5.605-4.723-8.562-6.43c-0.238-8.881,11.789-12.373,9.992-22.127
	c-0.734-4.02-7.154-4.834-9.992-8.564c-2.034-2.678-2.342-9.377-4.287-14.994c-2.113-6.102-4.108-9.059-0.715-15.707
	c-5.486-5.846-5.695-16.84,0.715-22.129c-1.449-8.781,2.292-12.76,4.287-18.564c2.6-7.582,11.809-10.568,16.422-17.137
	c-3.186-2.332-1.23-6.996-2.143-11.422c-0.666-3.234-3.256-5.637-2.858-7.85c0.883-4.99,6.202-3.424,8.563-7.85
	c-1.886-6.549,2.48-11.203,2.144-17.852c-0.258-5.119-3.959-8.812-3.572-13.564c0.129-1.518,2.322-4.088,2.857-6.43
	c1.062-4.625-0.198-8.752,1.429-11.422c1.975-3.244,6.352-3.385,8.562-6.432c-1.886-5.795,3.93-13.98-2.856-16.422
	c2.54-11.977,3.81-25.225,8.563-34.979c0.466-2.609-0.477-3.801-1.43-5.002c0.378-16.928,11.213-31.029,14.279-45.695
	c2.015-9.625,3.604-14.547,7.135-22.842c2.193-5.16,3.156-11.145,5.001-14.994c2.193-4.584,10.013-8.752,6.431-14.992
	c11.896-9.525,27.218-15.619,37.836-26.416c11.48,1.52,20.748-4.803,22.843-14.994c4.207-1.031,6.855-3.609,11.42-4.285
	c7.987-16.254,22.04-26.078,34.265-38.551c4.872-4.973,7.789-9.605,12.85-13.564c6.262-4.902,14.935-7.422,19.28-14.994
	c16.552-8.086,32.757-17.453,49.972-26.414c19.807-10.311,45.07-15.33,69.968-23.557c4.426,1.637,11.719,0.426,15.708-0.715
	c1.904,0,3.811,0,5.715,0C422.044,7.6,463.8,24.489,492.438,48.075c3.75,3.088,9.715,6.58,9.991,12.137
	c-2.569,1.639-3.463,0.725-7.135,0.715c-0.139-2.242-2.827-1.936-2.144-5c-10.757-4-22.782-6.729-29.986-14.279
	c-15.192-3.156-28.926-13.248-45.687-17.139c-2.888,0.686-5.686,1.461-8.562,2.145c-1.905-1.656-4.685-2.451-6.431-4.287
	c-9.229,2.611-19.211,1.291-28.559,1.43c-8.038,0.119-16.661,3.125-25.702,5.717c-9.665,2.758-19.458,3.344-20.699,15.707
	c-2.173,2.58-6.678,2.838-8.562,5.717c-2.511-1.916-5.418-2.541-8.564-0.715c-0.823,3.682,0.765,4.604,0.715,7.85
	c-6.43,1.656-5.935,10.25-9.992,14.279c4.107,5.199-3.781,10.656-2.145,17.137c-1.767,1.379-2.539-0.695-3.571,1.428
	c8.335,12.543,1.189,26.355,4.287,42.838c-1.638,1.617-2.601,4.693-5.716,2.857c0.733,5.379,1.141,9.188,1.429,13.564
	c9.288-2.145,15.439,6.867,17.137,12.137c-6.053,0.773-8.96-2.361-13.563-5.717c-2.53,1.043-4.604,2.531-4.287,6.432
	c-7.394-0.734-9.119,7.223-7.136,13.562c-0.198,4.078-6.996,2.223-9.993,4.287c-1.498,1.031-6.291,9-5.715,11.422
	c0.784,3.305,3.86,3.869,8.564,4.287c0.456,5.021,3.344,7.609,5,11.42c4.049,0.467,7.394,1.658,10.707,2.859
	c0.108,3.205-3.205,2.977-6.43,2.855c0.068,3.633-1.5,5.646-1.43,9.277c-5.924,2.174-8.404,7.781-14.279,9.994
	c4.049,10.428,15.392,7.688,24.986,9.99c2.193,0.527,3.79,2.779,6.43,3.572c2.442,0.734,5.687,0.01,7.85,0.715
	c2.193,0.717,3.959,3.385,6.43,4.287c7.801,2.85,17.713,3.363,24.986,6.43c2.104,0.885,3.93,3.643,6.43,5.002
	c5.448,2.957,13.198,3.305,15.708,9.277c2.312,0.883,0.546-2.311,2.858-1.43c8.543,5.26,7.343,20.264,14.279,27.131
	c-0.496,3.074-2.76,4.385-3.572,7.133c1.617,6.719,4.663,11.998,10.706,14.279c-0.089,3.127,1.757,7.404,0.715,10.707
	c-1.19,3.771-6.351,5.289-8.563,8.564c-3.7,5.467-3.205,11.561-5,18.564c-0.586,2.262-2.818,4.098-3.572,6.43
	c-4.06,12.613-6.887,27.219-7.135,39.98c-5.677,4.217-1.955,8.166-1.43,14.992c0.605,7.891-0.576,11.531,2.857,17.852
	c1.518,2.799,3.65,3.572,5.716,6.432c2.669,3.689,3.295,7.928,5.716,9.992c3.751,3.225,8.94,3.48,11.421,7.135
	c10.072-1.51,12.821,4.316,19.281,6.43c6.688-0.893,7.095-9.297,13.563-12.137c5.03-2.211,19.052-3.273,20.698,2.145
	c1.222,4.01-3.403,8.018-5.715,9.279c-6.946,3.811-18.209,4.098-28.56,11.42c-4.782,3.385-13.604,14.746-17.852,15.709
	c-9.348,2.111-22.346,0.922-28.559,5.715c-9.844-4.832-21.018-0.695-22.843,9.992c4.158,0.982,11.382,0.615,12.136,7.135
	c0.517,4.445-4.228,6.867-4.288,10.707c4.139,4.812,11.641,3.852,20.7,6.43c5.131,1.459,13.575,5.994,21.414,6.432
	c2.471,0.139,5.21-1.221,7.851-1.43c7.719-0.615,15.944,1.697,22.843,1.43c2.53-0.1,4.594-1.578,7.134-1.43
	c7.919,0.467,14.745,4.465,22.128,3.572c8.523-1.031,12.781-8.852,20.699-10.707c5.479,2.381,15.271,0.438,17.852,5.717
	c-0.316,5.982-4.662,7.996-0.715,12.85c-3.024,13.367-15.142,2.529-24.984,2.145c-6.698-0.258-14.002,4.268-21.414,3.572
	c-2.58-0.238-4.625-2.254-7.135-2.857c-24.152-5.826-50.846-3.832-72.813-0.715c-1.39,3.611,1.22,4.742,1.429,8.562
	c-4.704,5.199-12.314-2.908-16.423,2.143c5.578,8.625,18.606,5.549,24.986,12.854c0.468,6.668,4.427,9.852,9.993,11.42
	c4.207-1.598,2.562-5.141,2.857-7.85c5.903-0.764,9.655,4.494,12.851,8.562c13.445-2.133,35.067,20.689,8.563,14.994
	c-2.888,1.162-2.282,5.805-4.287,7.85c-6.431,1.945-14.358-1.658-18.566,2.857c-6.032-0.744-26.176-5.953-32.834-5.002
	c-3.861,0.557-6.49,5.021-10.708,5.717c-3.403,0.555-15.489-0.863-17.851-2.857c-2.124,3.779-8.326,3.115-11.422,0.715
	c2.252,2.697,0.03,2.043-1.429,4.285c-1.002,4.455,1.509,8.416,2.144,12.852c0.347,2.439-0.744,5.895,0,7.85
	c2.342,6.191,9.824,6.104,14.994,9.992c4.91,12.939,17.305,18.389,28.558,24.986c6.182-1.707,10.449-0.934,14.279-5.002
	c7.323,10.162,26.663,5.092,35.692,14.279c8.465-2.947,13.455,1.566,21.414,0.713c2.073-0.217,4.236-2.439,6.43-2.855
	c2.749-0.525,5.587,0.496,7.85,0c5.846-1.281,14.142-5.072,18.566-7.85c3.859-2.432,5.615-6.512,9.277-10.707
	c3.395-3.891,8.771-6.857,12.136-9.994c5.329-4.971,9.765-10.34,18.564-10.707c3.781-4.066,1.927-13.781,3.573-19.982
	c3.602-0.447,4.168,4.939,7.85,2.143c0.545-2.938,0.1-8.83,4.287-9.992c-1.36-2.213-2.947-4.195-2.145-8.562
	c5.249-0.695,10.38-1.52,14.994-2.857c4.088,4.158,0.228,12.105,5,14.994c-10.051,1.369-10.875,11.967-19.984,14.277
	c-3.89,9.508,6.301,12.127,12.137,6.432c3.571-10.707,12.811-15.736,19.279-23.557c-0.219-2.84,1.647-3.584,1.43-6.432
	c2.382-0.953,2.49-4.178,5.002-5.002c2.639-10.924,7.591-20.271,11.419-30.701c4.029-10.965,5.23-22.484,8.564-33.549
	c0.824-2.75,3.166-4.963,3.572-7.85c0.535-3.84-1.191-7.611-0.717-11.422c0.438-3.463,3.246-6.004,3.572-9.277
	c0.248-2.529-1.012-5.527-0.715-8.562c0.27-2.721,2.074-4.863,2.145-7.85c0.029-1.43-0.812-3.156-0.715-5.002
	c0.357-6.688,5.27-15.439,5.002-20.699c-0.1-2.023-1.459-3.779-1.43-5.715c0.07-5.051,2.412-10.619,2.857-16.424
	c1.082-14.25,2.57-24.977,8.562-34.979c-1.141-4.059-0.922-9.656,1.43-13.564c-0.555-2.4-0.436-4.533-1.43-7.85
	c1.775-2.271,3.227-4.873,5.002-7.135c6.848,1.291,3.662,10.391,2.857,14.994c6.607,9.178-1.043,19.012-2.145,28.557
	c-0.555,4.824,0.773,10.162,0,15.709c-0.773,5.566-1.656,11.074-2.857,16.422c-1.092,4.863-4.01,9.398-5.002,14.279
	c-1.051,5.25,0.934,10.906-2.855,14.994c-1.916,11.641,11.133,22.1,21.414,20.699c20.072-2.729,9.951-33.311,12.135-52.115
	c0.338-2.867,1.826-5.189,2.145-7.85c0.754-6.312-0.666-12.592,0-18.564c2.184-19.688,10.447-36.357,10.707-52.115
	c-0.535-1.607-4.01-0.277-5.717-0.715c-1.836-2.451-2.887-5.676-5.002-7.85c-5.229,3.273-7.928-2.709-12.135-2.857
	c-6.398-0.229-8.533,5.637-13.564,9.277c-3.502-2.848-2.719-9.893-2.145-14.994c3.582-0.723,2.73,2.988,6.432,2.145
	c10.07-6.826,21.682-12.115,31.416-19.279c-2.016-4.406-6.213-6.639-9.992-9.277c-8.832,2.352-16.145,6.223-24.986,8.562
	c-6.578,6.014-16.135,11.311-27.844,9.992c3.908-3.146,11.41-5.17,8.562-12.852c6.023-11.6,16.025-19.35,12.852-38.549
	c-0.455-2.77-3.027-5.32-3.572-8.564c-0.754-4.445-0.27-11.738,0-16.424c1.697-29.877-4.525-63.377-14.994-85.664
	c0.635-11.947-7.998-19.369-10.707-28.559c-2.262-7.67-2.578-15.143-8.562-20.699c0.347-3.205-0.357-5.35-0.715-7.85
	c-11.432-15.461-17.91-35.871-32.836-47.828c-1.279-4.674-5.725-6.172-6.43-11.422c1.756-2.461,5.616,1.031,6.43-2.857
	c11.086,8.146,22.317,15.719,30.702,27.129c7.035,9.576,13.107,22.119,21.414,29.988c3.969,3.762,9.764,5.17,14.279,8.562
	c5.199,3.91,10.002,8.188,13.562,13.564c3.842,5.805,11.025,10.668,16.424,16.422c2.896,3.088,4.516,7.176,7.135,9.994
	c2.223,2.391,5.766,3.959,7.85,6.43c4.246,5.02,6.449,11.648,13.564,14.279c1.229,2.826-0.318,5.18,0.715,7.135
	c4.645,3.443,10.08,6.102,14.279,9.992c1.676,4.127-2.045,5.934,0.713,8.562c5.041,1.896,10.4-0.914,14.279,2.145
	c-0.635,4.562-5.865,6.002-3.572,11.422c-5.795,3.729-7.361,11.668-12.135,16.422c2.5,11.957-0.904,26.633,9.277,32.131
	c0.506,2.639-3.057,1.23-3.572,2.857c5.576,14.895,21.938,18.992,25.699,35.693c-0.635,2.094-3.998-1.043-5.715-1.43
	C684.299,330.504,699.381,328.581,697.355,338.641z M347.542,326.506c0.625-2.293-1.103-2.232-2.145-2.857
	C344.347,324.641,345.032,327.051,347.542,326.506z M221.899,340.786c0.804,0.148,1.11,0.795,1.429,1.43
	C234.817,341.112,221.7,327.776,221.899,340.786z M300.428,295.815c14.161,7.025,23.448,18.912,39.979,23.557
	c-0.029-4.088-4.297-5.17-5-9.992c-0.387-2.648,2.123-5.596,1.43-7.85c-0.637-2.062-7.403-8.025-11.421-10.707
	C314.142,283.292,304.843,284.184,300.428,295.815z M305.42,311.512c-1.191,0-2.382,0-3.573,0
	C301.153,314.389,306.114,314.389,305.42,311.512z M335.407,394.331c4.197-8.436,3.244-18.775-1.43-24.988
	c4.704-8.621,3.374-23.277,10.707-29.271c-0.992-4.475-3.88-7.064-5.001-11.422c-8.94-1.826-12.374-15.777-21.414-12.85
	c-3.205,9.861-6.708,17.543-17.137,18.564c-9.813,0.963-15.837-6.916-24.272-6.43c1.182,10.479,17.406,5.914,19.985,14.994
	c-4.653,3.979-9.635,8.127-17.852,5c-1.519,1.102-2.66,2.58-4.287,3.572c-0.457,9.021,1.566,15.568,4.287,21.414
	c-10.409,9.912-12.622-8.314-23.558-9.277c-3.463-0.309-5.973,2.709-12.136,1.428c-3.394-0.912-5.894-8.633-8.562-5.715
	C231.761,401.872,301.837,424.913,335.407,394.331z M293.999,496.417c0.188,2.332-2.223,2.062-2.858,3.572
	c1.677,3.998-2.48,11.49,3.572,12.137C301.737,510.061,299.833,498.571,293.999,496.417z M311.135,474.288
	c1.042-5.318-3.096-5.477-3.572-9.277c-5.518,0.189-6.361,5.07-12.136,5.002c-2.64-6.877,2.53-12.83,5.001-17.852
	c1.379-2.809,2.292-6.48,3.572-8.564c6.816-11.113,22.574-16.77,24.271-31.416c-1.509-0.635-2.113-2.172-4.287-2.143
	c-21.483,12.711-54.497,7.303-76.387,17.852c1.032,10.201-4.515,19.012-0.715,28.559c1.389,3.482,7.104,5.289,9.277,9.277
	c3.375,6.191,3.314,11.084,2.858,17.852c1.339,3.652,6.479,3.514,8.563,6.432c-0.725,7.68-1.945,9.871-0.716,19.279
	c-4.107-0.299-4.275,3.344-7.134,4.287c-2.648,10.994-2.709,21.193-5.001,32.834c-0.813,4.148-3.443,8.336-2.858,11.422
	c0.605,3.225,6.996,7.113,8.564,9.992c2.282,4.178,1.171,8.732,2.857,12.852c1.537,3.762,6.985,8.732,10.707,9.277
	c1.925,0.277,5.238-2.293,7.849-2.145c3.979,0.229,5.706,3.086,9.278,1.43c1.846-8.951,4.307-22.674,0.714-32.834
	c-18.973-3.543-22.138-22-24.986-39.98c3.493-3.453,12.156-9.873,14.993-17.137c2.035-5.189-0.029-12.137,6.431-12.137
	c5.08,0,4.257,7.711,12.136,6.43c2.511-4.146,1.994-11.332,3.572-16.422C306.937,476.758,309.854,476.333,311.135,474.288z
	 M659.52,527.833c-1.102-2.471-1.25-5.885-4.287-6.43C652.146,524.907,654.539,532.071,659.52,527.833z M491.843,477.147
	c-12.275-16.283-19.697-37.42-39.98-45.686c0.734,14.457,9.914,21.791,16.424,32.129c5.497,8.732,8.712,19.688,17.137,23.559
	C483.171,480.51,488.855,480.331,491.843,477.147z"/>
</svg>
