<?xml version="1.0" encoding="utf-8"?>
<!-- Generator: Adobe Illustrator 16.2.1, SVG Export Plug-In . SVG Version: 6.00 Build 0)  -->
<!DOCTYPE svg PUBLIC "-//W3C//DTD SVG 1.1//EN" "http://www.w3.org/Graphics/SVG/1.1/DTD/svg11.dtd">
<svg version="1.1" xmlns="http://www.w3.org/2000/svg" xmlns:xlink="http://www.w3.org/1999/xlink" x="0px" y="0px" width="2953px"
	 height="4134px" viewBox="0 0 2953 4134" enable-background="new 0 0 2953 4134" xml:space="preserve">
<g id="BG_x5F_shape">
	<path fill-rule="evenodd" clip-rule="evenodd" fill="#1A1A1A" d="M2904,3046.7c-9.6-54.5-13.5-95-31.1-138
		c-12.1-29.5-33.4-58.1-42.5-87.2c-14.7-46.4-5.6-102.4-16.6-152.5c-12-54.9-37-100-57.1-147.4c-24.2-64-48.4-128-72.6-192
		c-39.9-100-78.8-194.9-107.9-309.2c-23.8-93.3-33.1-197.2-51.9-295.8c-8.4-44.3-10.6-88.7-22.8-129.7
		c-21.8-73.2-65.2-132.8-84-207.5c-9.6-38.2-3.1-89,3.1-125.6c0.3-16.6,0.7-33.2,1-49.8c10-59.4,6.7-131.5-6.2-186.8
		c-14.2-60.8-49.3-97.6-77.8-143.2c-20.2-32.4-35.8-69.5-55-101.7c-29.8-50-50.4-104.3-83-150.5
		c-93.5-132.6-217.3-225.3-384.9-284.3c-42.8-15.1-90.4-23.9-140.1-33.2c-22.5-1.7-45-3.5-67.4-5.2c-17.6-0.7-35.3-1.4-52.9-2.1
		c-21.8,1.4-43.6,2.8-65.4,4.2c-46.3,8-90.5,12.3-131.8,24.9c-219.3,66.9-375.9,204.6-461.7,404.7c-8.1,18.9-7.8,42.1-12.5,65.4
		c-9.3,57.1-18.7,114.2-28,171.2c-32.9,161.9-45.1,341.2-74.7,510.6c-4.8,48.1-9.7,96.2-14.5,144.2c-4.2,25.5-2.7,57.3,1,80.9
		c8.4,53.4,4.6,101.3,13.5,152.5c11,63.3,23.1,151.8,4.1,213.8c-23.9,78-60.3,151.2-98.6,216.9c-12.4,23.5-24.9,47-37.4,70.6
		c-19.4,14.9-38.7,29.8-58.1,44.6c-28.5,22.5-85.5,103.4-100.6,139.1c-7.6,35.6-15.2,71.3-22.8,106.9
		c-11.6,37.8-28.2,72.8-38.4,113.1c-6.6,26.2-5.8,58.6-13.5,83c-10.7,26.3-21.4,52.6-32.2,78.9c-0.3,28-0.7,56-1,84.1
		c-15.2,44.3-30.4,88.6-45.7,132.8c-19,54.1-33,111-55,160.8c-44.5,100.9-111,185.3-171.2,270.8c-48.3,68.6-83.7,143.7-127.6,217.9
		c-10,16.9-26.7,33.4-35.3,49.8c0,96.5,0,193,0,289.5c97.2,0,194.4,0,291.5,0c21.5,0,97,6.1,110-2.1c12-7.6,19.3-30.3,27-42.5
		c22.8-37,45.7-74,68.5-111c78.9-126,159.1-248.2,234.5-377.7c26.7-45.8,43.7-99.9,70.6-145.3c8.4-14.3,16.4-38,31.1-45.7
		c1.7-0.3,3.5-0.7,5.2-1c11,14.6,8.8,45.1,14.5,64.3c10.6,35.7,50.2,68.4,36.3,118.3c-10.3,37.1-56.5,78.7-46.7,128.7
		c7.6,38.7,50.9,50.2,69.5,78.9c22.1,33.9,16.3,105.8,23.9,151.5c14,84.3-79,121.1-49.8,180.6c32.1,10.9,120.4,3.1,161.9,3.1
		c119,0,238,0,356.9,0c295,0,590,0,885,0c91.3,0,182.6,0,273.9,0c38.3,0,97.6,6.7,130.7-2.1c11.5-20.2,10.5-53.7,16.6-77.8
		c11.8-49.5,23.5-98.9,35.3-148.4c3.5-38.7,6.9-77.5,10.4-116.2c47.7-113.4,95.5-226.9,143.2-340.4c23-73.1,33.3-156.2,47.7-237.6
		c4.5-40.5,9-80.9,13.5-121.4C2911,3075.6,2906.1,3058.8,2904,3046.7z M2734.8,2570.4c-12.8-3.3-59.9-57.7-74.7-69.5
		c-34.6-26.6-69.2-53.3-103.8-79.9c-25-30-37.8-69.1-50.8-111c-5.6-18.1-23.4-51.9-17.6-72.6c11.3,3.9,47.6,77.1,58.1,91.3
		c47.7,64.9,189,144.2,189.9,240.8C2735.5,2569.7,2735.2,2570,2734.8,2570.4z"/>
</g>
<g id="Shapes_x5F_Main_x5F_coments_x5F_text">
	<path fill-rule="evenodd" clip-rule="evenodd" fill="none" d="M2453.1,2468c70.2-1.3,117.3,35.7,162,62
		c17.5,8.3,35.1,16.5,52.6,24.8c6.2,3.8,12.4,7.6,18.6,11.4c8.9,2.6,16.7-3.6,23.7,1c18,11.8,58.9,72,71.2,93
		c18.8,31.9,19.9,76.2,28.9,118.8c20.9,99,5.2,211.1-15.5,302.6c-13.7,60.6-20.8,119.2-38.2,174.6c-7.6,16.2-15.1,32.4-22.7,48.5
		c-12,27.8-19.5,57-25.8,89.9c-5.5,28.6,3.5,48.7,8.3,75.4c5.2,29.4-2.7,63.5-7.2,88.8c-0.7,14.8-1.4,29.6-2.1,44.4
		c-3.8,28.6-7.6,57.2-11.4,85.7c-4.8,15.1-9.6,30.3-14.4,45.4c-3.1,16,5,27.5,4.1,40.3c-3.4,19.6-6.9,39.3-10.3,58.9
		c-3.8,36.5-7.6,73-11.4,109.5c-12.4,60.7-33.7,113.5-42.3,175.6c-1.3,9.6,6.7,10.4,5.2,16.5c-68.3,9.6-155.4,2.1-228.1,2.1
		c-18.9,0-72.3,4.9-84.6-2.1c-20.3-11.5-36.1-73.3-49.5-96.1c-8.6-12-17.2-24.1-25.8-36.2c-27-34.1-81.6-38.3-96-85.7
		c-1.7-12.7-3.4-25.5-5.2-38.2c-27.9-130.6,6.9-245.1,34.1-353.3c6.2-48.2,12.4-96.4,18.6-144.6c8.6-51.1,10.5-125.2-6.2-166.3
		c-6.4-15.6-18.5-25.9-26.8-39.2c-14.2-22.6-20.3-47.8-24.8-80.6c-5.4-39.6,16.1-76.8,26.8-104.3c8.9-24.4,17.9-48.9,26.8-73.3
		c28.3-64.7,71.4-120.9,106.3-178.7c11.8-19.6,17.4-39.3,29.9-56.8c7.6-6.5,15.1-13.1,22.7-19.6c20-25.7,39.2-55.2,52.6-86.8
		c8.6-20.2,21-90.8,35.1-101.2C2439.3,2472.2,2446.2,2470.1,2453.1,2468z"/>
	<path fill-rule="evenodd" clip-rule="evenodd" fill="none" d="M1373.6,2852.2c-1.4,0-2.7,0-4.1,0c-26.1,45.3-48.3,96-66.3,146.9
		c-7.1,20-18.2,46.4-12.2,72.4c1.7,0.3,3.4,0.7,5.1,1c5.6-8.9,10.9-25.7,22.4-28.6c7.4,9.8,2.1,29.7-2,40.8
		c-11.8,31.7-28.8,59.8-34.7,96.9c-3.2,20.4,7.8,40.7,12.2,56.1c14.9,51.8,27.1,97.1,56.1,133.6c37.4,38.4,74.8,76.8,112.2,115.3
		c93.8,116.3,205.6,219.5,325.4,310.1c74.4,56.2,144.5,118.5,244.8,148.9c78.6,23.9,145.6,57.7,184.6,121.4
		c4.4,7.2,36.8,56.3,31.6,63.2c-4.4,5.9-26.9,3.1-36.7,3.1c-36,0-72.1,0-108.1,0c-148.6,0-297.2,0-445.7,0
		c-40.8-0.3-81.6-0.7-122.4-1c-7.8-2.5-44.6-18.8-49-24.5c-10.4-13.6-15.1-30.8-25.5-43.9c-38.7-48.6-84.1-90.6-122.4-139.7
		c-13.9-15.3-27.9-30.6-41.8-45.9c-46.8-59.1-96.8-116.6-140.8-178.5c-50-70.4-91.4-148.8-137.7-222.4c-20.4-32-40.8-63.9-61.2-95.9
		c-15.2-21.4-34.4-36.1-44.9-63.2c-11.5-29.6-13.3-75.9-18.4-108.1c0.3-14.6,0.7-29.2,1-43.9c-1.4-0.3-2.7-0.7-4.1-1
		c-1.4,1-2.7,2-4.1,3.1c-3.6,10-8.9,33.9-17.3,39.8c-9.1,6.3-29.4,4.5-40.8,1c-17-7.1-34-14.3-51-21.4c-15.3-4.1-30.6-8.2-45.9-12.2
		c-16-4.9-84.5-41.7-92.8-52c-38.9-48.5-65.7-119.7-81.6-189.7c23.6-140.8,113.2-272.3,115.3-272.3c19-43.2,45.9-57.4,67.3-81.6
		c24.4-27.5,44.2-41.6,70.4-52c14.3-1.7,33.7-8.5,47.9-10.2c62.9-11.7,85.9,2.8,139.7,16.3c17.3,2.4,34.7,4.8,52,7.1
		c21.1,5.8,42.2,11.6,63.2,17.3c19.5,4.2,38.4,3,54.1,10.2c10.9,8.5,21.8,17,32.6,25.5c13.9,8.5,27.9,17,41.8,25.5
		c36.4,35.4,72.8,70.7,109.1,106.1L1373.6,2852.2z"/>
	<path fill-rule="evenodd" clip-rule="evenodd" fill="none" d="M-42,4127c0-96.6,0-193.1,0-289.7c8.2-9.2,16.3-18.4,24.5-27.5
		c12.2-19.7,24.5-39.4,36.7-59.2c32.6-56.4,65.3-112.9,98-169.3c33.9-54.1,78.3-99.4,111.2-155c17.8-30.1,27.6-65.5,41.8-98.9
		c12.9-24.1,25.9-48.3,38.8-72.4c3.4-14.3,6.8-28.6,10.2-42.8c13.6-39.4,27.2-78.9,40.8-118.3c9.2-30.2,11.5-61.5,20.4-89.8
		c15.3-39.8,30.6-79.6,45.9-119.3c7.6-15.1,18.5-28.8,23.5-46.9c10.8-39.5-9.7-85.1,1-125.5c6.5-15.6,12.9-31.3,19.4-46.9
		c1.7-15.6,3.4-31.3,5.1-46.9c6.8-19.4,13.6-38.8,20.4-58.1c2.7-10.5,5.4-21.1,8.2-31.6c14.5-32.6,84.9-109.6,113.3-130.6
		c8.5-4.4,17-8.8,25.5-13.3c18.1-10.9,32.7-39.8,58.2-40.8c30.8,9.1,53.9,41.6,32.7,76.5c-14.9,24.4-7.4,19.2,45.9-4.1
		c12.9-5.7,80.5-40.8,99-25.5c12.6,10.5,4.2,47.8-1,60.2c-16.1,37.7-97.4,48.3-130.6,73.4c-10.6,8.1-9.9,25.3-15.3,38.8
		c-8.8,13.3-17.7,26.5-26.5,39.8c-65.2,92.7-147.3,132.9-150,321.3c-0.5,31.7,9,82.7,15.3,107.1c5.8,30.9,11.6,61.9,17.3,92.8
		c9.5,25.8,19,51.7,28.6,77.5c4.8,16,9.5,32,14.3,47.9c19.8,39.7,74.5,57.5,62.2,128.5c-22,127.1-89.7,216.9-156.1,300.9
		c-6.3,8-18.5,13.6-23.5,19.4c-13.6,20.1-27.2,40.1-40.8,60.2c-32.7,46.5-66.4,95.7-95.9,144.8c-24.1,45.2-48.3,90.4-72.4,135.7
		c-9.9,20.4-19.7,40.8-29.6,61.2c-9.5,10.6-28.9,7.8-41.8,15.3c-3.7,3.7-7.5,7.5-11.2,11.2C133.5,4127,45.7,4127-42,4127z"/>
	<path fill-rule="evenodd" clip-rule="evenodd" fill="none" d="M1550,411c51.4-1,95.2,10.2,135,22c114.5,33.8,186.6,64.4,272,125
		c36,25.6,76.2,51.4,100,89c-15,0-30,0-45,0c-2.3,2.7-4.7,5.3-7,8c-21.7,0-43.3,0-65,0c-4,3.3-8,6.7-12,10c-8,2.3-16,4.7-24,7
		c-21.3,21.3-42.7,42.7-64,64c-3.3,4.7-6.7,9.3-10,14c-5.3,0.3-10.7,0.7-16,1c-6.3,5.3-12.7,10.7-19,16c-6.3,0-12.7,0-19,0
		c-7.7,7.3-15.3,14.7-23,22c-46.3,33.3-83.8,63.6-118,109c-24,24.3-48,48.7-72,73c-53.3,68.6-92.8,169.1-93,288
		c-13.7,13.3-27.3,26.7-41,40c-6.3,19.7-12.7,39.3-19,59c-8.7,8.7-17.3,17.3-26,26c-13.7,28-27.3,56-41,84c-22,30-44,60-66,90
		c-13.3,27.7-26.7,55.3-40,83c-16.2,26.7-47.9,41.4-58,74c-8.8,28.4-6.9,159.8,3,184c11.6,28.4,37.2,41.6,54,64
		c23.7,31.6,47.7,69.8,84,88c9.7,2.7,19.3,5.3,29,8c18.7,11.3,37.3,22.7,56,34c-19.3,7.1-60.5,52.3-66,73c-0.3,10.3-0.7,20.7-1,31
		c-6.3,6.3-12.7,12.7-19,19c-0.3,62-3,128.6,1,190c-24.8,18-35.8,43.2-44,78c-0.3,0-0.7,0-1,0c-21.5-12.9-37.8-33.4-62-43
		c-19-2-38-4-57-6c-15.3-5.3-30.7-10.7-46-16c-19.7-2-39.3-4-59-6c-20.5-5.1-38.3-15.2-61-19c-0.7-15-1.3-30-2-45
		c-4.3-11.4-61-70.4-72-74c-31.3,0-62.7,0-94,0c0-0.3,0-0.7,0-1c4.3-6.3,8.7-12.7,13-19c0.3-5,0.7-10,1-15c3.3-3,6.7-6,10-9
		c0-4.7,0-9.3,0-14c3.7-11,17.6-24.5,23-42c13.5-44,13.1-94.7,21-144c5.9-36.7-2.5-82.2-8-113c-5.4-30.5,2.2-59.3-4-87
		c-4.3-15-8.7-30-13-45c-1.7-36.7-3.3-73.3-5-110c12.8-109.4,23.9-218.9,43-324c3.3-28,6.7-56,10-84c0.7-15,1.3-30,2-45
		c13.3-56.4,21.3-129.1,34-184c0.3-9.3,0.7-18.7,1-28c5.7-28.7,11.3-57.3,17-86c1-18.7,2-37.3,3-56c5.3-17.3,10.7-34.7,16-52
		c0-7.3,0-14.7,0-22c4.3-6.7,8.7-13.3,13-20c15.2-33.4,30.4-63.4,49-93c78.6-124.9,196.9-194.4,351-243c33-10.4,70.8-15.5,107-23
		C1520.7,414.3,1535.3,412.7,1550,411z"/>
</g>
<g id="red">
	<path id="face_2_" fill-rule="evenodd" clip-rule="evenodd" fill="#E52126" d="M2001,825c1,0,2,0,3,0c1,0.7,2,1.3,3,2
		c14.7,68.3,40.3,130.8,66,191c4.9,11.5,31.9,63.8,31,70c-21,0.7-42,1.3-63,2c0.3-0.7,0.7-1.3,1-2c15.3-2,30.7-4,46-6
		c1.8-10.8-21.6-28.3-28-37c-10.5-14.3-26.5-23-37-37c-8.7-14-17.3-28-26-42c-5.6-5.9-12.9-7.3-20-12c-3.7-5-7.3-10-11-15
		c-0.7,0-1.3,0-2,0c-1.9,3.8-1.6,4.5-6,6c-0.7-0.3-1.3-0.7-2-1c0.9-9,5.3-12.4,2-20c-13.7-2.7-27.3-5.3-41-8c0.7-3.5,1.2-2.6-1-5
		c-12.4-3.2-49.6,20.3-61,26c-56.5,28.1-109.4,57.6-159,91c2.3-3,4.7-6,7-9c14-6.5,37.2-29.1,53-39c54.4-34.1,111-65.1,163-100
		C1946.9,861.3,1981.3,852.1,2001,825z M1654,1080c0.8,2.3-0.3,3.7-2,6C1652.7,1084,1653.3,1082,1654,1080z M2018,1091c4,0,8,0,12,0
		c0,0.3,0,0.7,0,1c-67,10.3-185.1,87.1-200,146c12.3-4,20.8-19.2,30-27c11.8-9.9,55.7-32.1,73-31c0,0.3,0,0.7,0,1c-2,2-4,4-6,6
		c-0.6,7.4-2.8,9.7-6,14c-8.7-1.3-17.4-1.4-25,3c0,0.3,0,0.7,0,1c1,2.3,2,4.7,3,7c-1,0.3-2,0.7-3,1c-7.3,3-14.1,4-20,7
		c2.3,3.7,3.3,2.1,1,6c-5.4,8.4-49.4,32.5-38,43c1.3-0.3,2.7-0.7,4-1c-10.5,15.1-23.4,29.3-35,44c-1.3-1-2.7-2-4-3
		c-6.8-27.3,6.1-57.7,14-78c15.9-40.9,38-53.2,70-77c10.7-8,21.3-16,32-24c9-2.3,18-4.7,27-7c12.3-7.7,24.7-15.3,37-23
		C1995.3,1097,2006.7,1094,2018,1091z M1627,1139c0.8,2.2,0.3,1.8-1,4C1626.3,1141.7,1626.7,1140.3,1627,1139z M1625,1143
		c0.3,0.7,0.7,1.3,1,2C1625.7,1144.3,1625.3,1143.7,1625,1143z M1621,1156c5.3,14.5-9.2,49.7-4,73c7.2,31.9,40.6,62.9,29,106
		c-4.9,18.3-19.3,17.6-33,27c-3.7,6.7-7.3,13.3-11,20c-3.7,1-7.3,2-11,3c-5.4,4-6.4,11.1-13,15c-0.7-0.7-1.3-1.3-2-2
		c2.4-7.6,5.5-12,6-22c-1,0-2,0-3,0c-6.1,3.4-16.8,5.5-23,10c-18.2,13.1-31.3,60.6-40,85c-13.2,37.2-49.4,127.9-74,151
		c7-13.7,14-27.3,21-41c13.3-29.3,26.7-58.7,40-88c15-37.5,23.3-88.9,48-118c8.2-9.6,35.3-10,46-8c11.1-14.5,32.5-19.1,38-39
		c9.7-35.1-16.1-66.7-25-90C1602.3,1217.8,1615.2,1169.2,1621,1156z M2115,1158c11.4,12.3-5.2,39.5-18,40c-12.3-3.3-24.7-6.7-37-10
		c-14.3-0.7-28.7-1.3-43-2c0.7,0,1.3,0,2,0C2057.8,1171.4,2115.5,1214.5,2115,1158z M2005,1202c2,0.3,4,0.7,6,1c0,0.3,0,0.7,0,1
		c-2,0-4,0-6,0C2005,1203.3,2005,1202.7,2005,1202z M1954,1206c4.3,0.3,8.7,0.7,13,1c0,1.3,0,2.7,0,4c-11.7,2-23.3,4-35,6
		C1935.1,1209.7,1947.2,1209.5,1954,1206z M1971,1236c2.8,2.6,3.1,7.5,3,13c-0.7-0.3-1.3-0.7-2-1c0-0.7,0-1.3,0-2
		C1970.1,1242.9,1969.9,1239.9,1971,1236z M2149,1255c2.3,0.3,4.7,0.7,7,1c23.6,19.5,25.1,83.3,25,122c-0.7-0.3-1.3-0.7-2-1
		c-5.1-33.7-8.7-92.5-38-103c-9.7,3-19.3,6-29,9c-17.1,8-91,64.7-100,11c0.7-0.3,1.3-0.7,2-1c38.5,8.8,59.1-8.1,85-19
		C2116.2,1266.8,2135.7,1265.8,2149,1255z M2041,1266c0.7,0.3,1.3,0.7,2,1c-1,0.7-2,1.3-3,2C2040.3,1268,2040.7,1267,2041,1266z
		 M1859,1275c1.3,0.7,2.7,1.3,4,2c-1.7,4.4-2.9,4.2-7,6c-0.7-0.7-1.3-1.3-2-2C1855.7,1279,1857.3,1277,1859,1275z M1999,1283
		c5.3,0.3,4.8-0.2,7,3c0.3,1.7,0.7,3.3,1,5c-0.7,0-1.3,0-2,0c-2.7-0.3-5.3-0.7-8-1C1997.7,1287.7,1998.3,1285.3,1999,1283z
		 M1613,1558c8.8,6.4,7.6,31.5,10,42c1,0.3,2,0.7,3,1c5.7-1.7,11.3-3.3,17-5c0.3,0.3,0.7,0.7,1,1c-2.8,5.6-3.1,6.9,0,12
		c15.7,6.3,38.1,10.4,54,18c1.7,2,3.3,4,5,6c11-1,22-2,33-3c5.5,1.5,17.6,7.1,27,5c11-5.3,22-10.7,33-16c7.7-1,15.3-2,23-3
		c6.1,4,8.1,6.4,16,10c-0.3,0.7-0.7,1.3-1,2c-5.7,1-11.3,2-17,3c-4.8-1.4-7.6-7.2-16-6c-15.1,2.1-23.7,13-37,15
		c-12.7-1.7-25.3-3.3-38-5c-8,4-16,8-24,12c-14.9,4.4-25.6-1.9-40-2c0.3-0.7,0.7-1.3,1-2c10.8,0.2,22.2,0.5,29-3
		c0.3-0.7,0.7-1.3,1-2c-1.3-1.3-2.7-2.7-4-4c-14.2-5.5-42.5-4.3-56-6c-0.3,0.3-0.7,0.7-1,1c0,2,0,4,0,6
		C1610.6,1622.8,1610.6,1588.3,1613,1558z M1867,1565c8.3,3,16.7,6,25,9c2.3,8.5-8.2,35-15,39c-3.4,2.1-5.9,2.4-9,0
		c4.3-4,8.7-8,13-12c-0.3-1.7-0.7-3.3-1-5c-0.3,0-0.7,0-1,0c-13.9,4.7-25.5,17-44,14c-7.3-18.7,8.2-14.3,21-21
		c4.7-4.7,9.3-9.3,14-14C1869,1571.7,1868,1568.3,1867,1565z M1782,1592c1,0,2,0,3,0c0.3,4.3,0.7,8.7,1,13c-4.8,13.8-44.4,20-46,0
		c1.7-3.3,3.3-6.7,5-10C1757.4,1597,1773.5,1600.4,1782,1592z M2160,1615c4.3,4.9-13.6,61.6-17,71c-13.8,38.2-37.8,99.2-66,122
		c-10,8-20,16-30,24c-11.3,6.1-28,11.5-36,21c-12.2,14.6-35.7,32.2-42,51c0,11.7,0,23.3,0,35c-3.9,18.4-12,37.7-21,52
		c-26.8,42.3-90.9,64.8-147,77c-83.1,18.1-164.3-9.7-199-51c-14.2-16.9-22.3-42-40-55c-10.7-6.3-21.3-12.7-32-19
		c-3.3-0.3-6.7-0.7-10-1c-2-2.7-4-5.3-6-8c-15-5.7-30-11.3-45-17c-6.7-4.7-13.3-9.3-20-14c-15.3-7.1-33.5-8.2-47-17
		c-18.2-11.8-57.3-91.4-47-128c7.2-25.6,46.5-69.5,62-93c7.7-13,15.3-26,23-39c-12.9,46.9-54.4,76.5-66,127c-6.7,29.2,8.2,58,17,76
		c7.8,16.1,11.1,35.3,25,45c38.6,26.9,84.5,31.1,137,45c16.5,4.3,31.4,12.8,51,13c8-9.6,54.4-29.5,69-33c0.3-0.7,0.7-1.3,1-2
		c-0.7-1-1.3-2-2-3c-7.8-2.8-13.7-9.5-19-15c0.7-3.7,1.3-7.3,2-11c-2.7-3.3-5.3-6.7-8-10c1.3-3.8,0-2.1,3-4
		c29.5-17.3,69.3,2.8,106-3c43.4-6.9,80.2-9,111-25c7.9-4.1,35.1-15.5,42-2c-6.5,1.9-7.7,4-11,9c0.3,1.7,0.7,3.3,1,5
		c7.3,2.6,15.3-1.2,21,0c8.4,3.2,9.4,8,11,18c41.4,21.2,58.5-16,84-30c7-1.7,14-3.3,21-5c8.3-5.3,16.7-10.7,25-16
		C2104,1772.2,2145.3,1676.1,2160,1615z M1645,1620c-0.3,1.7-0.7,3.3-1,5c1,1,2,2,3,3c6.1,1.5,12.5,4.5,18,1c0.7,0,1.3,0,2,0
		C1664.4,1621.6,1655.5,1619.5,1645,1620z M1850,1620c0.7,0,1.3,0,2,0c-1,1-2,2-3,3c-2.7,0.7-5.3,1.3-8,2c0.3-0.7,0.7-1.3,1-2
		C1844.7,1622,1847.3,1621,1850,1620z M1441,1622c0.3,0.7,0.7,1.3,1,2C1441.7,1623.3,1441.3,1622.7,1441,1622z M1440,1624
		c0.3,0.7,0.7,1.3,1,2C1440.7,1625.3,1440.3,1624.7,1440,1624z M1649,1641c3.3,0.7,6.7,1.3,10,2c0,0.3,0,0.7,0,1c-2,0-4,0-6,0
		C1650.6,1643,1647.5,1643.7,1649,1641z M1854,1757c71.5-1.1,135.1-2.8,170,32c-0.3,0.7-0.7,1.3-1,2c-9.7-1.3-19.3-2.7-29-4
		c-24.3,5.7-48.7,11.3-73,17c-17-1.3-34-2.7-51-4c-71.7,11.9-157.3,5.3-219,27c-15.7,5.5-91.9,19.6-107,4c14.1-19.9,41.6-23.9,68-32
		c37.7-11.6,80.2-22.6,126-30c15.3-0.3,30.7-0.7,46-1c12.7-2.7,25.3-5.3,38-8C1832.7,1759,1843.3,1758,1854,1757z M1930,1770
		c-19.3,1.3-38.7,2.7-58,4c-28.6,6.2-61.5,12.1-92,17c-37,1.7-74,3.3-111,5c-40.8,6.6-81.6,16.1-112,34c0.7,1,1.3,2,2,3
		c57.4,0.9,89.1-16.1,135-25c55.8-10.8,117.6-6.6,176-16c16-2.6,31.7,2.8,45,5c17.1,2.8,71.3-9.7,78-17c-0.7-1-1.3-2-2-3
		C1972.7,1774,1954.9,1770.1,1930,1770z M1832,1875c-30.1,11.2-80.8-1.7-107,14c-0.3,1.7-0.7,3.3-1,5c2.3,2.7,4.7,5.3,7,8
		c22.6,13.3,112.5-10.4,124-21c-0.7-1-1.3-2-2-3C1846,1877,1839,1876,1832,1875z M1883,1906c-30.6,11.9-72.1,3.9-107,10
		c-29,5.3-58,10.7-87,16c-39.7,6.8-61.8,8.6-72,45c-1.8,6.5-5.6,14.3-3,23c4.1,13.6,17.8,24.9,28,33c71.1,56.1,178.3,35,246-5
		c15.3-9,31.1-12.9,41-27C1956.7,1961.7,1940,1905,1883,1906z"/>
	<path id="bg" fill-rule="evenodd" clip-rule="evenodd" fill="#E52126" d="M1345,2665c3-4,6-8,9-12c4.1,1.8,9.6,4.6,14,3
		c1-0.7,2-1.3,3-2c-0.3-1-0.7-2-1-3c-2-2.7-4-5.3-6-8c2.3-1,4.7-2,7-3c-0.7-2.7-1.3-5.3-2-8c6.7,0.1,11-0.9,15-3
		c-1.8-9.9,15.5-20.3,22-26c-1.3-2.7-2.7-5.3-4-8c1.7,0,3.3,0,5,0c7,4.9,21.5,19.9,32,16c5.5-4.4,6.7-15.5,10-22
		c18.3-36.1,20.7-83.2,29-131c-1-9.3-2-18.7-3-28c-3.7-22.1,7.6-69.8,16-82c43.7-8.9,24.3-36.8,47-53c28.8-20.6,66,3.9,89,10
		c15.6,4.1,32.2-1.2,45,1c0.9-4.3,1.4-4.7,4-7c5.3,2.5,6.6,7.6,12,4c-2.6-3.6-4.1-4.1-5-10c1.3-1,2.7-2,4-3c4.7,2.2,4.4,4.1,11,5
		c0-0.7,0-1.3,0-2c0-5.3,0-10.7,0-16c13,2.2,17.1,15.7,23,25c6.3-0.6,15.8-2.7,21-1c13,6.5,14.4,24,23,35c8,10.3,22.6,16,32,25
		c0.1,27.2,3.6,64.3,15,83c9.5,15.5,26.3,30,36,46c14.7,32,29.3,64,44,96c-7,39-65.2,75.8-103,84c0.3-0.7,0.7-1.3,1-2
		c38.1-14.1,124.4-71.5,69-113c-5.4-4.1-4.7-11.3-12-14c-1.5,4-0.7,3.5-5,5c-1.3-1-2.7-2-4-3c-5.9-15.9-39.7-71.9-53-77
		c0,0.7,0,1.3,0,2c0.3,6,0.7,12,1,18c-15.2-0.8-27.1-28.9-38-37c-1,0.3-2,0.7-3,1c0,4.3,0,8.7,0,13c-0.7,0.7-1.3,1.3-2,2
		c-13.7,5.4-32.7,7.1-44,15c0,4,0,8,0,12c-1.3,0-2.7,0-4,0c-1-2-2-4-3-6c-0.7,0-1.3,0-2,0c-3.4,5.4-4.3,13.8-8,20
		c-5.1,8.6-13.7,14.7-18,25c-5.9,14.1-3,29.6-13,39c-1-0.7-2-1.3-3-2c0-7.4-6.2-38.5-9-45c-4.3-6.3-8.7-12.7-13-19
		c-3.5-9.9,2.7-22.5-3-31c-2.5-3.7-5.9-4.6-12-5c-0.6,4.4-0.8,4.7-3,7c-0.7-0.3-1.3-0.7-2-1c-5.9-16.6-57.3-35.6-80-37
		c-37.1,21-37,102.1-50,150c-4.8,17.7-15.4,45.8-33,51c-12,3.5-24.4,1.2-33,6 M1612,2482c0.7,0,1.3,0,2,0c-0.7,0.7-1.3,1.3-2,2
		C1612,2483.3,1612,2482.7,1612,2482z M1090,4134c-47,0-94,0-141,0c0-1,0-2,0-3c1.3-2.3,2.7-4.7,4-7c13-3.3,26-6.7,39-10
		c0.3-7.2,2.6-12.2,7-15c4.7-3,56.8-17.1,62-15c6.9,2.8,15.7,15.9,6,21c-4.7,1-9.3,2-14,3c0,0.3,0,0.7,0,1c0.3,1.3,0.7,2.7,1,4
		c9.8,3.4,27,4.5,36,9C1090,4126,1090,4130,1090,4134z M2151,3531c1.3,0,2.7,0,4,0c0.7-0.7,1.3-1.3,2-2c5-20.3-1.6-42,2-62
		c4,1.3,3.4,1.9,6,4c0.7-1,1.3-2,2-3c3-29,6-58,9-87c6.1-40.1,15.2-97.8,3-139c-8.7-29.6-27.4-48-42-71c-5.7-17.7-11.3-35.3-17-53
		c-0.3,0-0.7,0-1,0c-0.3,0.3-0.7,0.7-1,1c-0.7,2.7-1.3,5.3-2,8c-0.3,0-0.7,0-1,0c-5.8-53,12.4-92.3,27-128
		c27.8-68,55.7-125.2,90-184c20.2-34.6,39.1-66.2,60-98c6-10,12-20,18-30c-8.2,39.9-41,75.8-60,107c-24.6,40.4-51,82.8-70,127
		c-9.7,26.7-19.3,53.3-29,80c-8.5,21.8-18.4,44.7-23,71c-14.2,81.4,42.5,107.5,57,160c17,61.6,2.4,149.6-8,208c-2,22.7-4,45.3-6,68
		c-16.9,83.7-62.7,192.9-48,288c0.3,16,0.7,32,1,48c2.4,14.2,6.7,30.7,10,43c4.9,18.3-1.4,36.9,8,50c2.6-2.1,2.1-2.7,6-4
		c0.3,0.3,0.7,0.7,1,1c2,31.9,57.2,49.4,79,67c17.9,14.4,66.6,105.3,72,132c-0.3,0.3-0.7,0.7-1,1c-11.5,0.4-21.7,0.3-28-4
		c-19.5-48.1-55.3-98.2-98-124c-22.1-13.4-46.1-24.7-67-37c-6.3-3.7-13.3-3-18-8c0-0.3,0-0.7,0-1c8,0.5,13.6,2.3,19,0
		c-6.7-5.3-13.3-10.7-20-16c0.4-10.6,4.9-9,7-15c-0.3-10.3-0.7-20.7-1-31c1-20,2-40,3-60c10.6-66.3,18.5-128.6,33-188
		c9-36.8,8.3-73.8,22-103 M2686,2359c10.4,11.4,13.9,33.9,20,49C2697.5,2401.9,2683.5,2371.1,2686,2359z M2417,2361
		c23.4,0.7,39.2,12.4,56,20c0,0.7,0,1.3,0,2c-1,0-2,0-3,0c-12.6-5-29-13.8-45-11c0,1.7,0,3.3,0,5c7.4,18.1,4.4,41.7,13,57
		c24.9,4,21.6-21.1,52-15c28.3,5.7,88.7,29.3,110,44c18.3,16,36.7,32,55,48c18.8,14.7,42.8,31.2,54,53c-5.6-2.1-6.2-4.8-13-6
		c0.2,5.3,0.1,9.4-2,12c-8.8-5.4-13.5-17.6-22-24c-37.2-28.2-77.6-62-122-81c-34-14.5-74.1-9.9-118-18c-4.4-9.9-4.5-19.7-8-33
		c-2.3-0.3-4.7-0.7-7-1c0.2-15.2,2.9-24.4,2-38C2418.6,2369.2,2416,2366.4,2417,2361z M2675,2367c14.4,13.5,26.6,54.1,36,74
		c3.6,7.6,12.4,12.1,15,19c16,41.7,34.8,81,50,121c2,10.7,4,21.3,6,32c6.8,19.2,20.6,36.1,21,62c-1.3-1-2.7-2-4-3
		c-8.1-32.8-28-53.2-40-81c-14.7-40.7-29.3-81.3-44-122C2702.9,2441.5,2676.9,2399.7,2675,2367z M2396,2509c1,1,2,2,3,3
		c-2,17.4-7.8,31.2-12,46c-0.3,0-0.7,0-1,0c0.9-7.3,3.7-14.1,2-21c-1,0.7-2,1.3-3,2c-8.3,27.6-25.4,51.7-36,77c-0.3,0-0.7,0-1,0
		c2.3-13.4,11.3-22.8,16-34C2374.5,2557.1,2381.6,2530.1,2396,2509z M2412,2511c0.3,0.7,0.7,1.3,1,2
		C2412.7,2512.3,2412.3,2511.7,2412,2511z M2410,2517c5,12.2-8.4,40-13,50c-17.6,38.5-38,69.9-60,103c-7.3,10.9-14.3,31-27,36
		c17.4-49.8,55.1-87.6,72-139c0.3,0,0.7,0,1,0c-2.3,8.3-4.7,16.7-7,25c0.3,0,0.7,0,1,0c1-0.7,2-1.3,3-2
		C2389,2565.9,2402.5,2544,2410,2517z M2333,2525c1.3,0,2.7,0,4,0c0,2,0,4,0,6c-1.8,6.1-2.8,12.3-7,16c-0.9-5.8-1-7-7-8
		C2324.7,2531.9,2329.2,2529.8,2333,2525z M2385,2558c0.3,0.7,0.7,1.3,1,2C2385.7,2559.3,2385.3,2558.7,2385,2558z M2779,2656
		c32.7,25.5,29.5,99,39,147c20.1,101.5,3.1,208-13,299c0,31,0,62,0,93c-0.3,14.3-0.7,28.7-1,43c-6.6,41.4-3.4,84.4-9,122
		c-0.7,0.3-1.3,0.7-2,1c-0.7-0.7-1.3-1.3-2-2c-9.5-54.8,3.9-120.2-8-167c-4,0.6-3,0-5,2c-5,13.7-10,27.3-15,41c-0.3,0-0.7,0-1,0
		c1.2-14.3,6.9-24.2,10-36c7.3-27.8,10.7-59.7,18-85c1-9.7,2-19.3,3-29c13.3-57.2,17.4-121.8,29-183c-1-17.7-2-35.3-3-53
		c-8.8-52.9-9.3-101.7-23-151C2790.3,2684,2784.7,2670,2779,2656z M2318,2670c0.3,0.7,0.7,1.3,1,2
		C2318.7,2671.3,2318.3,2670.7,2318,2670z M2317,2672c0.3,0.7,0.7,1.3,1,2C2317.7,2673.3,2317.3,2672.7,2317,2672z M2803,2676
		c0.7,1.7,1.3,3.3,2,5c-0.3,0-0.7,0-1,0c0-0.7,0-1.3,0-2C2803.7,2678,2803.3,2677,2803,2676z M2225,2759c3.5,11.8-10.9,28.6-13,42
		c10.2-3.3,13.6-14.5,22-20c0.3,0,0.7,0,1,0c0,1.3,0,2.7,0,4c-13.5,34-37.6,62.9-56,93c-10,17.7-20,35.3-30,53c-0.3,0-0.7,0-1,0
		c0-2,0-4,0-6c5.3-16.3,10.7-32.7,16-49c-0.3-0.3-0.7-0.7-1-1c-1,0.3-2,0.7-3,1c-8.3,13-16.7,26-25,39c-11.3,23.3-22.7,46.7-34,70
		c16-63.7,62.5-121.6,94-172C2205,2795,2215,2777,2225,2759z M2843,2865c15.8,9.6,40.8,99.9,47,127c19.1,84,8,190.3-9,272
		c-7.2,34.8-4.4,67.9-16,99c-11.7,31.5-32.7,65.6-50,93c-12.3,19.4-39.8,69.3-61,76c-0.3-0.3-0.7-0.7-1-1c0.8-21.3,37.8-65.3,49-84
		c32.7-54.8,62.9-120.7,78-191c-1.7-29.3-3.3-58.7-5-88c-0.7-30-1.3-60-2-90c0.3-16,0.7-32,1-48c-6.6-30.6-9.3-67.3-17-100
		C2852.3,2908.3,2847.7,2886.7,2843,2865z M2073,3069 M2686,3863c5,12.9-5.2,56-8,69c-8.7,40-17.3,80-26,120
		c-2.3,15.7-4.7,31.3-7,47c-0.7,0-1.3,0-2,0c-0.5-48.1,17.5-99.1,26-142C2675.3,3925.5,2675.5,3891.4,2686,3863z M2782,3593
		c0.7,0.7,1.3,1.3,2,2c-10.7,28.2-21.4,65.9-39,89c-12.7,16.6-56.6,60.7-59,82c12.5,14,1.7,42-2,62c-10.5,56.8-13.4,109.5-28,159
		c-3,10-2.1,22.8-8,30c-0.3,0-0.7,0-1,0c0-1.3,0-2.7,0-4c20.5-62.1,22.3-148.6,35-216c3.6-19.3-7.9-39.7-4-53
		c4.3-15,16.4-28.6,24-41c6.7-13,13.3-26,20-39C2742,3640.3,2762,3616.7,2782,3593z M2693,3831c0,2.7,0,5.3,0,8c-0.3,0-0.7,0-1,0
		C2692.3,3836.3,2692.7,3833.7,2693,3831z M2456,2047c0.7,0,1.3,0,2,0c9.5,53.5,10,103.4,33,141c21.3,34.9,52.3,59,77,90
		c27.6,34.7,52.2,70.2,76,109c7.7,11.3,15.3,22.7,23,34c-0.3,0-0.7,0-1,0c-22.8-13.5-42.6-44.5-59-65c-20.8-25.9-41.9-52.8-63-79
		c-28.4-35.4-61.4-60.4-77-110c-8.6-27.2-2.5-52.7-8-85C2457.3,2071.9,2452.7,2059.2,2456,2047 M2502,1838c9.1,6.7,13,59.7,17,75
		c10.7,41.7,21.3,83.3,32,125c4.6,15.3,5.8,36.8,15,48c0.7-0.3,1.3-0.7,2-1c0-0.3,0-0.7,0-1c-6.8-44.2-17.2-86.7-22-134
		c-1.3-12.8-7.6-43.6-1-53c0.7,0.3,1.3,0.7,2,1c1.7,72.6,22.3,145.1,39,206c3.3,21.3,6.7,42.7,10,64c9,27,18,54,27,81
		c9.8,27.9,14.8,55.7,28,80c0.7-0.3,1.3-0.7,2-1c-2.3-57.6-48.7-118.9-48-173c3.8,1.3,2.1,0,4,3c22.3,49.7,40.4,101.3,61,150
		c9.2,21.7,9.8,46.7,19,69c10,24.2,23.2,46.9,30,75c-0.3,0-0.7,0-1,0c-0.7-0.3-1.3-0.7-2-1c-13.3-28-26.7-56-40-84
		c-0.7,0.7-1.3,1.3-2,2c12.4,41.3,32.3,78,48,116c12.3,35.3,24.7,70.7,37,106c13.2,30.5,34.5,56.1,45,91c0.7-0.7,1.3-1.3,2-2
		c-4.9-12.4-28.6-82.5-25-88c0,0.7,0,1.3,0,2c24.4,42.8,33.6,98.3,36,163c0.4,10,3,18.6,0,27c-0.7-0.3-1.3-0.7-2-1
		c-5.5-107.2-43.5-135.9-89-200c-12.7-15.3-25.3-30.7-38-46c19.1,11.3,28.3,32.5,45,46c1,0,2,0,3,0c0-1,0-2,0-3
		c-8.3-30-16.7-60-25-90c0-5.3,0-10.7,0-16c-1.5-4.8-9.4-9.5-11-12c-1.3-6.3-2.7-12.7-4-19c-10.5-19.3-25.9-40.1-35-61
		c-32.4-74.1-60.7-149.7-86-230C2546.1,2060.2,2502.2,1956.3,2502,1838z M2656,2341c-0.7,0-1.3,0-2,0c0-1,0-2,0-3
		C2656,2339.8,2654.7,2338,2656,2341z M2761,3235c0.3,0.7,0.7,1.3,1,2C2761.7,3236.3,2761.3,3235.7,2761,3235z M2642,4108
		c4.9,4.9-0.5,15.1-3,19c-0.7-0.7-1.3-1.3-2-2C2638.7,4119.3,2640.3,4113.7,2642,4108z M2744,3285c0.7,0.3,1.3,0.7,2,1
		c-4,40.4-45,98.8-32,148c0.3,0,0.7,0,1,0c6.1-2.2,9.7-5.6,17-2c3.2,37.5-7.6,75.5-14,112c-1,20-2,40-3,60c-6,34.4-11.9,63.2-20,94
		c-0.3,0-0.7,0-1,0c3.7-29.3,7.3-58.7,11-88c6.6-37.8,3.8-76.9,10-112c3.6-20.5-0.5-62-13-68C2703.5,3375.2,2723.3,3323,2744,3285z
		 M2640,4032c0,0-8.3,89.8-11,102c-6.8,0.4-10.9,0.2-14-3C2628.9,4105.9,2632.2,4061.3,2640,4032z M653,3127c17,3,41,28.1,59,36
		c27.1,11.9,59.6,15.5,85,28c18.2,9,52.6,24.4,77,11c1.1-21.1,11.8-49,25-59c0,0.7,0,1.3,0,2c5.2,18.1-12.6,29.7-17,42
		c-3.8,10.4-2.3,17.2-8,26c-15.3,3.5-37.2-2.3-45,1c0,0.3,0,0.7,0,1c5.8,3.8,13.5,4.5,16,12c-1.7,0-3.3,0-5,0
		c-16.7-5.7-33.3-11.3-50-17c-11.3-1.3-22.7-2.7-34-4c-26.2-7.6-48.3-24.4-68-39C675.6,3157.8,652.7,3144.8,653,3127z M892,3211
		c11.6,13.3,14,86.8,22,109c15.1,41.9,57.8,65.2,73,109c-1.3-1-2.7-2-4-3c-15.1-37.8-52.1-59.6-72-93
		C894.1,3304.5,892.1,3255.4,892,3211z M1096,2574c14.9,7.9,34.5,38.3,40,55c-0.3,0-0.7,0-1,0
		C1126.2,2622.4,1095.9,2583.8,1096,2574z M838,2582c50.3-0.9,65.5,16.5,95,34c44.5,26.5,69.4,40,95,86c0,0.3,0,0.7,0,1
		c-0.3,0-0.7,0-1,0c-22.1-12.8-33.5-38.4-54-53c-27.4-19.5-72.8-46.1-110-53c-24.7-1-49.3-2-74-3c-0.3-0.7-0.7-1.3-1-2
		C799,2583.1,824.4,2587.8,838,2582z M741,2647c8.8,5.8,6,23.9,15,30c12.4,8.5,48.9-3.1,70,6c16.9,7.3,26.6,21.5,40,32
		c42.1,32.8,67.7,50.1,94,100c16.4,31.2,18.8,49.9,12,91c-1.2,7.2,2,12.7-3,16c-4.6-18.9-2-48.6-9-66c-20.9-52.3-88.3-112-134-141
		C802.4,2700,722.5,2693.3,741,2647z M987,3429c0.3,0.7,0.7,1.3,1,2C987.7,3430.3,987.3,3429.7,987,3429z M989,3432
		c1.7,2.3,3.3,4.7,5,7c-1-0.7-2-1.3-3-2C990.3,3435.3,989.7,3433.7,989,3432z M1390,3984c26.6,20.3,47.8,51.2,68,78
		c6.3,6,12.7,12,19,18c8.3,11.2,10.3,31.8,20,42c10,4,20,8,30,12c-2,0-4,0-6,0c-8.7-3.3-17.3-6.7-26-10c-18.8-11.9-37.4-55-52-74
		C1426.4,4028.4,1402,4009.3,1390,3984z"/>
	<path id="forearm-right" fill-rule="evenodd" clip-rule="evenodd" fill="#E52126" d="M739,2397c0.3,0.7,0.7,1.3,1,2
		C739.7,2398.3,739.3,2397.7,739,2397z M738,2399c0.3,0.7,0.7,1.3,1,2C738.7,2400.3,738.3,2399.7,738,2399z M684,2648
		c-1-7.7-2-15.3-3-23c4.7-4.3,9.3-8.7,14-13c-0.3-0.7-0.7-1.3-1-2c-5.3,0.1-8-0.5-11-2c-5-11.1-12.6-25.8-23-32c-1,0-2,0-3,0
		c-3.3,3-6.7,6-10,9c-0.7-0.7-1.3-1.3-2-2c1.7-1.7,3.3-3.3,5-5c3-7.5,9.8-17.6,17-21c12.9-3.1,18.5,7.1,32,4c15-3.4,30.7-22.2,39-33
		c3-10.7,6-21.3,9-32c24.2-20.8,76.6-18,105-35c13-7.8,25-22.3,31-37c1.3-5.7,2.7-11.3,4-17c0,0.7,0,1.3,0,2
		c6.4,19.2-12.7,45.7-21,56c-16.1,20-62.1,19-84,33c-34.5,22-34,74.6-82,93c0,1.3,0,2.7,0,4c1.3,2,2.7,4,4,6c1.3,0,2.7,0,4,0
		c0.7-3.3,1.3-6.7,2-10c5.3-1.7,10.7-3.3,16-5c0,2,0,4,0,6c-2.8,6.7-5.5,16.8-2,24c1.3,0,2.7,0,4,0c-0.3,1-0.7,2-1,3
		C715.1,2628.1,701.5,2646,684,2648z M587,2417c0.7,0,1.3,0,2,0c-7.3,7.3-14.7,14.7-22,22C570,2429.6,581.3,2424.4,587,2417z
		 M727,2419c-0.9,10-58.8,62.7-68,77c-7.8,12.1-6.4,31.7-11,47c-3.7,9-7.3,18-11,27c-7.1,29.2-6.3,56.9-14,84
		c-5.3,18.8-16.9,35.6-26,51c-6.2,10.6-9.7,24.5-19,32c-0.7-0.3-1.3-0.7-2-1c1.6-25,12.4-47.8,18-69c3.7-22,7.3-44,11-66
		c6.4-21,18.5-37,26-56c7.5-19,5.6-48.5,17-64C664.2,2458.9,708.5,2443,727,2419z M441,2739c2.3,4.7,1.1,9.8,0,16c-0.3,0-0.7,0-1,0
		C440.3,2749.7,440.7,2744.3,441,2739z M443,2808c10.2,17.5-10.6,68.3-22,72C429.3,2858.5,438.1,2833.8,443,2808z M418,3078
		c0.2-9.2,11.2-25.6,16-29c7.4-4.7,23.7-10.5,35-9c4.3,0.7,8.7,1.3,13,2c25.2-8.7,40.1-33.9,46-62c-6.7-8.4-8-16.9-14-27
		c-10-6.3-20-12.7-30-19c-10.6-8.2-13.8-19.2-22-30c-5,1.6-6.4,2.8-12,2c-0.3-2-0.7-4-1-6c19-16,38-32,57-48
		c26.6,6.3,5.6,31.7,12,44c5.9,2,11.9,0.7,17,2c1,0.7,2,1.3,3,2c-0.9,12.8-2.9,21.1-5,31c-2.7,12.9,2.3,26,4,36
		c6.8,40.9-15.4,73.4-38,87c-7.8,4.7-20.1,13-32,10c0-0.3,0-0.7,0-1c0.3-1.3,0.7-2.7,1-4c3-0.7,6-1.3,9-2c0-1.3,0-2.7,0-4
		c-0.7,0-1.3,0-2,0c-12.2-5.2-40.9,3.5-45,11c-1,4.7-2,9.3-3,14C424,3078,421,3078,418,3078z M413,2855c0.7,0.3,1.3,0.7,2,1
		c0,11.8-13,55.5-18,66c-0.3,0-0.7,0-1,0c-0.7-0.3-1.3-0.7-2-1C393.8,2898.2,403.7,2875.3,413,2855z M414,2892c0,1.7,0,3.3,0,5
		c-0.3,0-0.7,0-1,0C413.3,2895.3,413.7,2893.7,414,2892z M554,2899c0,12,0,24,0,36c1.7,7.3,3.3,14.7,5,22c-2-1.7-4-3.3-6-5
		c0.1,27.1,23.5,86.5,16,106C564.5,3012.2,528.7,2937.1,554,2899z M409,2912c0.3,1,0.7,2,1,3c-0.3,0-0.7,0-1,0
		C409,2914,409,2913,409,2912z M389,2915c1.3,1,2.7,2,4,3c-4.8,42.3-0.4,89-6,132c-0.3,0-0.7,0-1,0c-1-3-2-6-3-9
		c-4.6,2.2-5.1,4.2-11,3c0-0.3,0-0.7,0-1C386.9,3011.1,369.7,2944.1,389,2915z M399,3026c5,3.9,7.2,5.5,7,15c-0.7,2.7-1.3,5.3-2,8
		c-0.7,0.3-1.3,0.7-2,1c-1-0.7-2-1.3-3-2C399,3040.7,399,3033.3,399,3026z M572,3080c0.7,2.7,1.3,5.3,2,8c-0.7-0.3-1.3-0.7-2-1
		C572,3084.7,572,3082.3,572,3080z M412,3093c9.4,5.5,10.3,13.3,21,21c-0.3,0.7-0.7,1.3-1,2c-1.7,0-3.3,0-5,0c-5-2.6-12.1-9.4-15-14
		C412,3099,412,3096,412,3093z M352,3100c1.3,2.7,0.4,1.9-1,4C351.3,3102.7,351.7,3101.3,352,3100z M577,3106c1,3,2,6,3,9
		c-0.7-0.3-1.3-0.7-2-1C577.7,3111.3,577.3,3108.7,577,3106z M581,3121c2.7,3.7,3.8,7.7,4,14c-0.7-0.3-1.3-0.7-2-1c0-0.7,0-1.3,0-2
		C582.3,3128.3,581.7,3124.7,581,3121z M438,3175c12.4,7.2,24.5,48.2,16,69c-1.7-16-3.3-32-5-48C446.5,3187.8,439.8,3184.7,438,3175
		z M619,3227c2.7,7.3,5.3,14.7,8,22c7.4,15,20.9,35.2,34,45c11.4-4.2,10-15.7,27-17c26.5,10.9,60.2,42.2,39,78
		c-8.3,9.3-16.7,18.7-25,28c-6.3,11-12.7,22-19,33c-25.3,37.5-76.5,74.4-129,86c0.7-1,1.3-2,2-3c55.5-15.6,135.6-74.5,113-156
		C656.9,3299.6,626.7,3272.2,619,3227z M711,3308c6.7,8.4,13.7,26.8,6,41c-3.7,6.6-10,4.5-12,13c-3.1,1.5-3.3,1.7-7,1
		c-3.8-19.3-2.5-44.5,6-57C706.3,3306.7,708.7,3307.3,711,3308z M271,3334c3.3,12.1-49.4,98.2-60,103
		C231,3402.7,251,3368.3,271,3334z M465,3365c1,5.7,2,11.3,3,17c-0.7,0.3-1.3,0.7-2,1c-0.3-0.3-0.7-0.7-1-1
		C465,3376.3,465,3370.7,465,3365z M469,3397c2.3,3.6,1.6,5.8,1,11c-0.3,0-0.7,0-1,0C469,3404.3,469,3400.7,469,3397z M202,4134
		c0.3-5.3-0.2-4.8,3-7c16-3.3,32-6.7,48-10c9.1-5.8,17.3-55.5,24-68c5-6.7,10-13.3,15-20c4.9-12.8,3.9-28.7,11-39
		c6.5-9.5,17.7-15.7,24-26c3-9,6-18,9-27c6-14.8,15.9-32.7,25-47c16-18.3,32-36.7,48-55c9.7-16.7,19.3-33.3,29-50
		c9.3-10,18.7-20,28-30c5-9.7,10-19.3,15-29c9.7-13.9,24.3-22,33-38c11.2-20.6,20.6-45.2,35-63c21.5-26.6,54.6-23.5,49-70
		c-16.3,1.7-21.2,15.4-39,17c-8.1-3.9-12.9-9.2-17-17c0.3-1,0.7-2,1-3c1.3,1,2.7,2,4,3c1.7,4.5,5.3,10,12,9c6.3-4.7,12.7-9.3,19-14
		c18.7-11.7,47.6-26.9,72-30c-14.3,28.4-30,56.9-49,81c-13.7,17.3-35.1,27.5-48,46c-10.3,19-20.7,38-31,57
		c-25.3,33.8-56.1,67-81,101c-15.2,20.7-24.5,44.1-38,66c-14,22.7-36.4,43.3-47,69c-10.7,26-25.4,41-38,63c-3.3,10.7-6.7,21.3-10,32
		c-5,13.8-15.3,28.5-23,40c-6.6,10-4.5,33.9-14,41c-12,3.3-24,6.7-36,10c-0.8,2.6-1.5,5.2-3,7C222,4133.3,212,4133.7,202,4134z
		 M0,4134c0-82,0-164,0-246c13.3-11,26.7-22,40-33c22.3-24.3,44.7-48.7,67-73c31-35,62-70,93-105c26.8-21.8,68.9-57.9,89-85
		c10-19.3,20-38.7,30-58c0.3,0,0.7,0,1,0c0,0.7,0,1.3,0,2c17.7,33.8-25.3,70.2-39,85c-5.3,5.7-5.2,13.6-12,18c-2.7,0-5.3,0-8,0
		c-4.3,13.1-10.8,18.7-14,35c-3.9,0.8-5.1,0.1-9-1c-2.5,9-8.4,11.9-12,19c-8.2,16.3-14.7,34.4-20,51c-6.9,21.8-4.2,46.7-22,57
		c-1,0-2,0-3,0c-1-1.7-2-3.3-3-5c-7.9,3.8-12.4,14.1-17,21c-6-0.7-12-1.3-18-2c-10.2,17.3-8,33.2-16,54c-6.1,15.8-24.7,30.6-30,46
		c-2.4,7,1,13-2,19c-19.9,5.1-15.7,29-32,38c0.3,35.4-13.2,54.6-18,86c-3.5,22.7,8.8,39.7-1,53c-5.7,3-11.3,6-17,9c1,3.3,2,6.7,3,10
		c8.3,1.7,16.7,3.3,25,5C36.7,4134,18.3,4134,0,4134z M266,3644c3.8,2.5,2.9,3.3,2,8c-0.7,0.3-1.3,0.7-2,1c-0.7-0.3-1.3-0.7-2-1
		C264.7,3649.3,265.3,3646.7,266,3644z M135,3678c1,0,2,0,3,0c-6.7,19.7-30.5,30-36,50c0.7,0.3,1.3,0.7,2,1c9.7-8,19.3-16,29-24
		c-7,24.6-75.4,82.1-97,99c-10.1,7.9-19.2,22.4-34,25c0-1,0-2,0-3c0-0.3,0-0.7,0-1c21.1-16.1,39-44.8,55-66
		C83,3732,109,3705,135,3678z M43,3698c1.9,4-36.2,86.4-42,91c-0.3,0-0.7,0-1,0C-0.8,3751.2,28.1,3723.4,43,3698z M138,3827
		c13.8,2.5,3.6,29.2-2,34c-1-1.7-2-3.3-3-5C134.7,3846.3,136.3,3836.7,138,3827z M89,3926c0,1,0,2,0,3c-0.7-0.7-1.3-1.3-2-2
		c0.3-0.3,0.7-0.7,1-1C88.3,3926,88.7,3926,89,3926z M45,4097c-0.3,1.7-0.7,3.3-1,5c0,0.7,0,1.3,0,2c-1.3,0-2.7,0-4,0
		c0.3-2.7,0.7-5.3,1-8C42.3,4096.3,43.7,4096.7,45,4097z"/>
</g>
<g id="Midd_x5F_gray">
	<path id="face_1_" fill-rule="evenodd" clip-rule="evenodd" fill="#5C5C5C" d="M1908,912c9.2,0.5,42.4,9.5,50,14c0,5.7,0,11.3,0,17
		c13.9-1,31.9,16.3,39,26c12.8,17.5,25.3,36.4,39,53c15.5,18.7,39.3,33.6,52,55c-1,3.9-0.4,3-3,5c-30.3,4.7-60.7,9.3-91,14
		c-14.7,8.3-29.3,16.7-44,25c-9.7,3-19.3,6-29,9c-12.5,4.7-22,15.6-32,23c-32.2,23.7-55,37-71,78c-7,17.8-24.2,56.4-12,78
		c1,0,2,0,3,0c25.2-36,65.2-74.4,110-90c0.7,0.7,1.3,1.3,2,2c-0.7,1-1.3,2-2,3c-20.9,9.2-47.8,34.2-61,52c0.3,1.3,0.7,2.7,1,4
		c14.7-0.8,20.5-11.3,31-17c1.3,0.3,2.7,0.7,4,1c-1.2,8.7,1.2,11,3,18c-23.9,6-40,10.1-55,24c0.3,1.7,0.7,3.3,1,5
		c14.8-5.7,44-17.2,64-13c11.2,2.4,18.8,7.8,34,4c15.2-3.8,34.2-23.2,44-26c8.7,0.3,17.3,0.7,26,1c5.1-0.9,10-2.9,15-2
		c0,0.3,0,0.7,0,1c-0.3,1-0.7,2-1,3c-9,2.3-18,4.7-27,7c0,1,0,2,0,3c14.6,8.6,20,23.2,39,27c38.8,7.8,72.1-49.2,106-40
		c18.7,3.1,19.7,24.2,24,42c9.8,40.1,20.3,93.7,12,144c-4.3,43.3-8.7,86.7-13,130c-15.9,72.1-59,181.8-111,217
		c-12.5,8.5-29,10.6-43,19c-24.7,14.8-58,62.8-86,13c-6.9-1.6-20.5-1.8-26-5c0.4-8.6,3.1-8.5,7-13c-0.7-1-1.3-2-2-3
		c-0.7,0-1.3,0-2,0c-29.1-8.2-49.6,16.8-73,22c-28.4,6.3-67,14.4-101,9c-25.9-4.1-56.9-3-80,3c-0.3,0.7-0.7,1.3-1,2
		c3.2,16.5,10.4,30.2,23,38c-0.7,2-1.3,4-2,6c-23.3,6.3-42.8,24.4-65,31c-12.4,3.7-67.9-14-81-18c-34.7-10.5-97.4-23.2-115-47
		c-8.5-11.5-10.6-25.9-18-39c-9.1-16.2-21.7-45.7-16-72c7.7-35.6,29.4-61.9,46-89c20-36.7,40-73.3,60-110c26.4-51.7,45.1-157,97-178
		c2.4,1.8,2.5,2.2,4,5c-1,4.7-2,9.3-3,14c1,0,2,0,3,0c4.2-2.6,17.4-12.4,21-16c3.7-6.3,7.3-12.7,11-19c12.8-9.3,26.7-8,32-25
		c11.5-36.9-15-66.7-23-92c-11.4-36-3.5-82.5,9-112c11.3-26.5,24.2-57,41-79C1725.9,983.3,1827.8,956.8,1908,912z M1870,969
		c-22.3,9.2-49.2,7.8-70,16c-77.7,30.5-112.5,57.9-143,137c-8,20.7-22.3,48.5-17,80c7,41.4,33.7,90.1,25,140
		c-5.3,30.3-36.7,74-32,108c12.8-4.9,11.1-28.8,20-38c10,13.4,2.5,10.4,19,20c4.7,19.6,18.7,78.7,6,99c-9.5,15.1-36.9,20.1-40,41
		c6.3,4.3,12.7,8.7,19,13c4.3-1.7,8.7-3.3,13-5c0.7-3.7,1.3-7.3,2-11c13.7,1.8,25.6-7.4,42-4c13.6,2.8,27.9,23.8,49,20
		c25.1-4.6,37.3-24,56-34c3.3,4.3,6.7,8.7,10,13c6.9,2.7,9.5-4.9,13-6c17.5-5.3,21.6,6.4,35-8c-0.3-2.3-0.7-4.7-1-7
		c-6.5-14.5-23.9-16.1-32-28c-12.9-18.9-6.4-48.5-15-73c-13-30.7-26-61.3-39-92c-15.4-50.5-4.1-133.3,19-166
		c21.5-30.3,55.2-47,84-70c8-10,16-20,24-30c20.1-12.8,51-3.9,58-32C1984,1015.6,1904.7,968.6,1870,969z M2053,1142
		c26.2-0.7,48.6,2.8,61,16c0.7,14.7-2.4,24.7-12,29c-15.3,8.1-38.3-6.3-58-4c-38.7,4-77.3,8-116,12c0-7.3,1.3-8.1,4-12
		c7.4-2.4,11-8.1,17-11c6.7-1.3,13.3-2.7,20-4c16.3-6.3,32.7-12.7,49-19C2029.7,1146.7,2041.3,1144.3,2053,1142z M1902,1202
		c2.7,0.3,5.3,0.7,8,1c-0.7,1-1.3,2-2,3c-0.7,0.3-1.3,0.7-2,1c-5.5-0.5-4.4,0.4-6-4C1900.7,1202.7,1901.3,1202.3,1902,1202z
		 M1949,1228c8,0.1,13.1,2,18,5c0,0.3,0,0.7,0,1c-0.3,1.7-0.7,3.3-1,5c-6.7-3-13.3-6-20-9C1947,1229.3,1948,1228.7,1949,1228z
		 M1873,1321c-7.1,3.4-16.8,3.4-26,5c-1.7,1.7-3.3,3.3-5,5c-1.7,39.4,21.6,66.6,34,98c7.3,33.7,14.7,67.3,22,101
		c6.1,28.8,1,78.1-16,91c-3.2,2.4-39.8,23.8-41,24c-21.4,4.3-29.5-9.3-48-5c-9.6,15-19.8,28.6-47,23c-4-4-8-8-12-12
		c-18.9,1.1-21.4,16.7-42,13c-42.4-7.7-74.6-14.4-86-53c-10.8-36.5,2.6-120.7-12-138c-1,0.3-2,0.7-3,1c-7.1,10-18.5,16.5-25,26
		c-4,9.3-8,18.7-12,28c-14,9.7-28,19.3-42,29c-28.5,33.9-55.8,76.9-70,124c-12.6,41.8-15.7,100,18,123c42.8,29.1,59.4-7,86-18
		c13.3-2,26.7-4,40-6c40.8-7.8,76.3-25.2,114-34c23.7,0,47.3,0,71,0c22.7-6.3,45.3-12.7,68-19c20.9-3.9,40,3.3,56,6
		c25.9,4.4,68.7-5,83-16c11.2-8.6,3.9-21.1,10-31c22.5,12.8,34.1,23.8,60,4c15.8-12.1,15.1-43.9,26-61c7.3-11.4,15.1-21.4,19-37
		c1.7-11.3,3.3-22.7,5-34c16-47.9,61.9-147.7,31-210c-9-18.2-44.7-13.3-69-9c-14.3,3.3-28.7,6.7-43,10c-33.5,5.6-89.1-3.2-115-11
		C1889.7,1334.3,1883.8,1324.5,1873,1321z M1614,1565c-2.6,6.4-2.3,19.3-1,27c6.7,40.2,14.4,46.6,55,53c10,0.7,20,1.3,30,2
		c9-3.7,18-7.3,27-11c13.7,1,27.3,2,41,3c10.7-4.3,21.3-8.7,32-13c10,1.3,20,2.7,30,4c17.3-6.3,34.7-12.7,52-19
		c4.4-10.8,12.6-22.1,10-37c-50.3-25.2-68.6,8.1-101,24c-6.7-3-31.5-5.3-42-2c-4.6,1.5-5.3,7.9-14,6c-18.4-4.1-34.9-19.9-63-15
		c-14.2,2.5-33.4,15.7-47,10C1621.3,1587.8,1620.4,1570,1614,1565z M1646,1621c9.5-0.4,13.3,1.1,18,5c-0.7,1-1.3,2-2,3
		c-0.3,0-0.7,0-1,0C1651.7,1629.8,1645,1628,1646,1621z M1855,1757c-10.7,1-21.3,2-32,3c-18,3-36,6-54,9c-10,0-20,0-30,0
		c-53.8,8.6-168,28.5-193,60c0,1.3,0,2.7,0,4c0.7,0.3,1.3,0.7,2,1c59.6,14,111.5-11.3,162-20c54-4.7,108-9.3,162-14
		c15.7,1.3,31.3,2.7,47,4c25.7-5.7,51.3-11.3,77-17c8,0.7,16,1.3,24,2c0-0.3,0-0.7,0-1c-1-1.3-2-2.7-3-4c-13.7-7.7-27.3-15.3-41-23
		C1943.4,1751.1,1893.8,1757,1855,1757z M1885,1906c56.4-0.8,70.8,59.7,42,97c-9.4,12.2-23.2,15.9-37,24c-24.8,14.5-50.8,28.4-83,36
		c-75.6,17.9-171.4-10.3-191-59c-6.6-16.4,3.3-46.6,13-54c6.7-3,13.3-6,20-9c12.6-7.2,27.1-6.4,45-10c41.1-8.2,85.6-11.3,131-19
		C1845,1910,1865,1908,1885,1906z M1799,1932c-18,4-36,8-54,12c-19,7.5-63.7,41.3-58,66c34,25.3,101.5,27.5,146,9
		c9.3-6.7,18.7-13.3,28-20c10.7-6.8,24.3-13.4,31-24C1886.3,1940.3,1840.9,1931.4,1799,1932z"/>
	<path id="forearm-left_1_" fill-rule="evenodd" clip-rule="evenodd" fill="#5C5C5C" d="M1738,4134c-61.8,0.1-195.4,10.3-236-10
		c-13.5-6.7-17.9-35.9-28-47c-46.5-50.8-93.1-101.8-136-156c-14.7-16-29.3-32-44-48c-44.1-55.6-90.4-110-132-168
		c-48.6-67.8-88.4-143.5-133-215c-23.7-37-47.3-74-71-111c-13.9-19.1-33.3-33.4-43-57c-11.7-28.6-15.7-76.9-21-109
		c-3.9-23.7,3.7-43.8,4-64c-0.7-0.3-1.3-0.7-2-1c-1.7,1.3-3.3,2.7-5,4c-2.6,7-17.5,49.1-22,52c-10.4,6.7-32.4,2-43-1
		c-18.3-7.7-36.7-15.3-55-23c-17.3-4.7-34.7-9.3-52-14c-21.9-9-38-25.5-58-35c-5.7-1.7-11.3-3.3-17-5c-39.3-27.9-76-130.4-89-186
		c-0.6-9.5-1.1-19-1.7-28.5c-0.8-8.4,2-8.4,3.7-8.4c1.7,0,4,2.6,4.8,1.5c-2.7,21.5,26,77.8,33.2,94.3c40.6,92.8,75.5,149,183,176
		c20.9,5.3,48.2,28.1,78,16c25.1-10.2,57.1-98,63-132c6.3-36.7-1.9-67.5,21-86c0.7,0.3,1.3,0.7,2,1c-3.7,11.7-7.3,23.3-11,35
		c1.3,20.7,2.7,41.3,4,62c-9.6,59.3-19.8,179.2-3,234c8,26,29.4,38,40,62c28.4,64.4,70.7,113.7,109,168c20.3,33,40.7,66,61,99
		c16.7,20.3,33.3,40.7,50,61c13.5,21.9,23.8,44.3,39,64c31,32.3,62,64.7,93,97c15,19,37.1,60,66,63c1.3-4,2.7-8,4-12
		c6.9,0.2,7.3,1.4,11,4c1.7,3,3.3,6,5,9c1.3-1,2.7-2,4-3c3.9-7,7-9.3,9-20c1.7,0.7,3.3,1.3,5,2c0.5,10,2,18.4,8,23
		c4.5-0.9,3,0.1,5-3c0.3-9,0.7-18,1-27h4c3,7.7,6,15.3,9,23c1-0.3,2-0.7,3-1c5.8-9,5.6-24,8-37c3.8,1.3,2.1,0,4,3
		c4.7,16.7,9.3,33.3,14,50c1.7-0.7,3.3-1.3,5-2c0.5-6.7,1.4-15.8,7-18c3.8,11.1,11.5,6.6,17,14c3.7,9.7,7.3,19.3,11,29
		c4.3,2.3,8.7,4.7,13,7c11.8,8.5,22.6,31.5,28,46c3.3,0.7,6.7,1.3,10,2c1.6,5.8,5.1,15.1,10,18c4.7,1,9.3,2,14,3l11,22
		c8.5-2.4,5.8-12.7,11-18h3l1,2c0.7,12.3,1.3,24.7,2,37c3.3,3.7,6.7,7.3,10,11c3.7,7.2,0.8,13.1,9,16c1.3-3,2.7-6,4-9l8,4
		c0.3-1,0.7-2,1-3c4.2-8,3-20.9,9-27c0.7,0.3,1.3,0.7,2,1v2c1.3,7.3,2.7,14.7,4,22c3.7,3.3,7.3,6.7,11,10c4.7,8.1,2.3,28.3,19,23
		c3-3.7,6-7.3,9-11h3C1720,4127.6,1728,4124.6,1738,4134z M2244,4084c-19.7-33-40.1-59.5-73-79c-13-6-26-12-39-18
		c-15.2-9-28.9-19-47-26c-28.5-11.1-57.9-15.5-84-27c-92.3-40.7-166.5-106.2-242-165c-58.5-45.6-121.5-97.3-168-155
		c-11.7-11.3-23.3-22.7-35-34c-33.3-37-66.7-74-100-111c-47.4-58.8-110.9-94.4-139-174c-8.2-23.1-34.4-101.9-28-128
		c6.6-26.7,51-108.6,40-132c-1-1.3-2-2.7-3-4h-4c-7.7,11.8-15.8,25.2-20,40c-1.7,0.3-3.3,0.7-5,1c-13.8-70.1,46.4-152.4,72.4-215.7
		c-0.7-0.2,4.4-5.9,3.8-6.6c-2.1-2.2-4.6-14.1-5.9-16.7c-10.2,26.4-32.4,65.7-41.3,81c-4.7,9.7-9.3,19.3-14,29
		c-13.3,9-26.7,18-40,27c-2.1,1.6-26.2,23-27,24c-6,8.2-5.5,21.4-16,25c-1.9-14.1,6-26.2,5-40c-3-1.3-6-2.7-9-4
		c-1.7,0.3-3.3,0.7-5,1c-13.5,21.3-27.4,137.6-13,172c6.7,10.7,13.3,21.3,20,32c6.7,13.7,13.3,27.3,20,41c10,13.5,23.9,21.7,28,42
		c7.2,35.5-46.2,35.9-28,82c8.2,20.7,26.8,30.3,42,44c35.3,31.8,65.3,67.2,103,97c28.2,22.3,47.8,54.3,70,83
		c13.3,17.1,36.3,25.6,50,42c14.5,17.4,22.4,40,37,58c7.1,8.8,38.1,24.2,49,33c14,11.3,15,28.6,26,43c15,10.3,30,20.7,45,31
		c0.3,7.3,0.7,14.7,1,22c7.8,12.4,28.9-0.8,42,9c11.9,8.9,23.8,34.1,28,50c3.4,12.7,1.7,28.9,5,39c21,12.4,48.1-7.9,67,2
		c10.4,5.3,11.3,24.6,12,37c3,0.3,6,0.7,9,1c2.9,5.2,2.4,16.5,6,22c5.5,8.4,21.4,16.8,22,27c7.4,3.2,13.4-2.5,20-1
		c1.3,1.4,7.4,27.3,8,30c8.4,5.1,15.4-0.1,21-6h4c2.1,11.5-7.2,22.5-4,38c11.1,6.9,14.1,2.1,26,5c1,9.3,2,18.7,3,28
		c1.3,0.7,2.7,1.3,4,2c5.3-6.3,10.7-12.7,16-19h5c4.4,16.6,1.7,34.4,9,48v2c1.7,0.3,3.3,0.7,5,1c1.7-3,3.3-6,5-9
		c7.5-0.6,14.8,3.3,23,4c1.7,10.3,1,18.4,7,24c9.1,8.1,38.3-6.3,46-9c3.5,2.8,4.5,4.9,5,11h77c11.7-4.3,32.3-50.4,39-63
		c-0.7-0.7-1.3-1.3-2-2c-19.4,1.8-33.2,37.5-38,54h-1c-0.7-0.3-1.3-0.7-2-1c11-28.9,14.1-53.4,39-68c39,20.7,33.4,80.3,93,80l1-1
		C2266.8,4114.2,2252.7,4098.5,2244,4084z"/>
	<path id="chest" fill-rule="evenodd" clip-rule="evenodd" fill="#5C5C5C" d="M1424,2800c-21-32.1-56.7-56.2-74-92c4.3,3,8.7,6,13,9
		c1.7-0.7,3.3-1.3,5-2v-2c3.5-12.9-4.6-23.3-7-34c1.3-1,2.7-2,4-3c6.6,3.4,11.1,4.1,19,2c7-10.3,18.3-31.1,30-36
		c22.2-9.2,36.5-1.7,48-21c30.3-51,15.1-152.9,65-184c17.4,3.1,89.8,29.6,95,38c5.1,6.8,1.5,16.8,4,27c4,6.7,8,13.3,12,20
		c3.7,14.7,7.3,29.3,11,44c0.7,0.3,1.3,0.7,2,1c1.3-0.7,2.7-1.3,4-2c9.3-30.6,19.4-52.7,34-77h10c3.7-20.4,28.2-13.2,42-23l7-14h1
		c10,11,19.4,23.6,30,34c1.7-0.3,3.3-0.7,5-1c0.7-0.7,1.3-1.3,2-2v-13c16.5,5.4,36.3,48.2,46,64c8,13,6,5,19,11
		c7.6,3.5,24.3,26.4,27,36c10,35.2-81.4,91.6-110,98c3.5-9.7,8.7-17.6,11-26h-1c-56.3,27.8-123.2,143-150,204
		c-10.8,24.6-22.4,90.5-68,71c48.2-5.3,48.5-46.4,64-83c21.5-50.9,47.2-97.5,79-138c23-25,46-50,69-75c-3.4-2.9-9.4-6.9-14-8
		c-7.7,4-15.3,8-23,12c-26.9,21.2-47.5,51.6-74,73c-12.7,10.3-25.3,20.7-38,31c-12.7,16.3-25.3,32.7-38,49c-16,15.7-44.9,21.7-58,40
		c-3,7.3-6,14.7-9,22c0.3,4.3,0.7,8.7,1,13c-6.3,5-12.7,10-19,15c0.1,18.7,9.5,21.7,7,37c-4.3,4-8.7,8-13,12c1.7,2,3.3,4,5,6h-2
		c-12.8,5.7-46.4,7.5-60,5c-7.6-21.9,15.8-65.1,11-94c-0.7-0.3-1.3-0.7-2-1c-19.3,24.6-26.6,57.8-49,79c-2-0.3-4-0.7-6-1
		c1.7-29.6,3.3-65.5-9-87c-1.7,0.3-3.3,0.7-5,1c-1.1,3.7-2.3,7.6-3.7,11.5c-2.7-3.6-4-8.1-5.4-12.3c-0.1-0.4-0.3-0.8-0.5-1.1
		c3.4-12.9,4.6-25.8,1.7-38c-4.2-18.1-16.9-28.1-25-42c35.3,14.9,43.7,59.2,61,93c5.7-1,11.3-2,17-3
		C1432.5,2834,1431.6,2811.6,1424,2800z M1527,2540c-1.3,1-2.7,2-4,3c-10.2,7.3-9.7,30-13,44c-5.7,24-14.6,54.1-27,74
		c-18.9,30.3-72.5,23.3-92,68c4.8,33,34.6,46.8,51,69c11,15,11.9,31.9,17,54c3.7,1,7.3,2,11,3c15.9-9.8,32.1-35.2,36-57
		c1-14,2-28,3-42c9-31,33.2-35.3,49-57c8-11,7.2-28.7,11-44c4-14,8-28,12-42C1588.4,2573.1,1560.8,2539.6,1527,2540z M2295,2565
		c-0.3,1-0.7,2-1,3c13,6.2,18.1,12,18,31c0.7,0.3,1.3,0.7,2,1c7.7-15.3,14.5-35.7,14-58c-2-0.3-4-0.7-6-1
		C2313,2549,2304,2557,2295,2565z M1282,2691c0.7,0.3,1.3,0.7,2,1c-4.3-6.7-8.7-13.3-13-20C1274.7,2678.3,1278.3,2684.7,1282,2691z
		 M1329,2686c3.3,3.7,6.7,7.3,10,11C1335.7,2693.3,1332.3,2689.7,1329,2686z M2201,2784c-19.9,27.9-44,52.6-62,83
		c-16.5,27.9-23.7,64.1-41,91c-0.7,0-1.3,0-2,0c-0.7-0.3-1.3-0.7-2-1c-4.7-34.1,23.6-66.8,37-89c19.7-32.6,36.1-73.5,37-123
		c-15.6,14.8-22.2,48.2-31,69c-21.2,49.9-50.9,94.3-63,153c-3.2,15.5-10.5,78.8-5,92c0,0.7,0,1.3,0,2c7.3-2.6,27.9-71.2,33-83
		c29-67.3,66.4-123.3,102-183c6.4-10.7,36.3-59.7,34-70C2225.7,2744.7,2213.3,2764.3,2201,2784z"/>
	<path id="forearm-right_1_" fill-rule="evenodd" clip-rule="evenodd" fill="#5C5C5C" d="M592,2745c-10.1,9.6-32.9,33.9-28,53
		c0.3,0,0.7,0,1,0c1.7-1,3.3-2,5-3c6.1-18.3,23.1-27.9,25-50C594,2745,593,2745,592,2745z M557,2807c9.4,17-2.1,41.9-8,54
		c-2,0.3-4,0.7-6,1c-0.7-0.7-1.3-1.3-2-2c1.2-8.1,5.6-11.4,4-19c-4.5-10-17.4-11.9-28-14c-21,17.3-42,34.7-63,52
		c15.4-30,53.2-57.9,83-74C543.7,2805.7,550.3,2806.3,557,2807z M552,3074c-5.6,22-21.3,34.8-41,43c-1.7,0-3.3,0-5,0
		c4.2-12.4,19.2-17.6,25-31c-3.7-2.7-4.9-1-10,0c6-11,12-22,18-33c2.8-12.3-7.1-12.9-1-25C550.3,3030.7,555.9,3058.7,552,3074z
		 M562,3111c6.6,4.7,11.7,47.9,16,58c17.8,41.5,41.2,91,51,139c8.6,42.2-21.6,89.1-55,90c-9.5-9.4-18.1-20.1-30-27
		c-14.6-8.4-32.4-8.8-42-22c-13.4-18.4-34.1-92.8-24-129c3.4-12.1,11.2-19.4,16-29c-6.4-14.5-20.3-19.4-28-32
		c7.4-8.1,25.3-9.6,36-14c21-8.6,42.5-20.6,58-35C560.7,3110.3,561.3,3110.7,562,3111z M705,3307c3.7,2,7.3,4,11,6
		c3,9.9,3.7,25,1,36c-5,4.3-10,8.7-15,13c-1.3-0.7-2.7-1.3-4-2c-2.7-17.8-2.6-39.4,5-52C703.7,3307.7,704.3,3307.3,705,3307z
		 M107,3594c1.2,3.4-2,6.8-5,9C103.7,3600,105.3,3597,107,3594z M81,3767c-0.4,3.5-4,7.2-8,10C75.7,3773.7,78.3,3770.3,81,3767z
		 M48,3800c0.7,0,1.3,0,2,0c-8,12.4-28.2,35.2-44,39c4.3-4.7,8.7-9.3,13-14C28.7,3816.7,38.3,3808.3,48,3800z M515,2702
		c-0.3,0.7-0.7,1.3-1,2c-0.7-0.3-1.3-0.7-2-1c0.3-2,0.7-4,1-6C514.6,2699,514.4,2698.4,515,2702z M501,2693c-0.3,1-0.7,2-1,3
		c-0.7-1-1.3-2-2-3C499,2693,500,2693,501,2693z M610,2466c8.7,14.7,6.9,44.6-2,59c-7.6,12.3-27.3,14.4-36,26
		c-27.1,36-40.6,81.8-53,133c-1.3,1-2.7,2-4,3c-7.2-0.6-11.6-3.7-14-9c-3.2-11.1,9.3-37.5,14-47c5.3-12.3,10.7-24.7,16-37
		c12.2-20.7,27.3-38.4,35-64c9.2-30.4-6-53.3,21-69C598.2,2460.9,602.8,2463.2,610,2466z M605,2406c1,0,2,0,3,0c-0.3,1-0.7,2-1,3
		c-5.3,5-7.4,10.1-16,12c0.7-1,1.3-2,2-3C597,2414,601,2410,605,2406z M628,3258c15.9,33,62.3,92.2,39,149
		c-13.3,32.5-46.7,63.1-76,80c-12.6,7.2-29.3,8.8-41,16c-7,21.5-20.3,67.7,15,68c10.8-4.5,18.1-12.9,31-14c0.7,1,1.3,2,2,3
		c8,9.7-4.6,28.2-10,35c-13.3,10.3-26.7,20.7-40,31c-14.7,18.5-21.2,43.3-34,64c-8.5,13.8-22.7,22.5-32,35
		c-6.3,11.3-12.7,22.7-19,34c-10,11.3-20,22.7-30,34c-9,15.3-18,30.7-27,46c-13.8,17.8-34.6,33.2-46,53c-8.1,14.1-16.9,28.9-23,43
		c-3,9-6,18-9,27c-9.7,12-19.3,24-29,36c-2.7,11-5.3,22-8,33c-5.7,12.8-17.1,24.6-23,39c-6.1,15-5.8,33.9-14,46
		c-15.7,3.3-31.3,6.7-47,10c-3.3,2.7-6.7,5.3-10,8h-42c-37.4,0-98.1,8.1-125-6c-0.3-2.7-0.7-5.3-1-8c5.1-8.9,15.2-9.2,20-20
		c-14.1-42.7,15.2-128.8,31-157c5.3-4.3,10.7-8.7,16-13c1-6,2-12,3-18c5-7,10-14,15-21c8.2-13.7,13-28.4,18-45h2
		c0.3,3.3,0.7,6.7,1,10h4c5.8-18.2,2-15.4-1-31c6.1-13.2,12-4,24-11c5.9-3.4,6.7-12.4,13-16c6.8-2.1,9.6,0.7,16-3
		c12-32.8,19.6-72.3,35-103c4.6-9.3,16.2-13.3,21-21c5.8-9.3,5.8-19.6,12-28c4-2,8-4,12-6c3.8-2.6,27.4-30.9,31-36
		c0.3-0.7,0.7-1.3,1-2c0.3-0.3,0.7-0.7,1-1c0.3-1.3,0.7-2.7,1-4h1c0.3-0.7,0.7-1.3,1-2c0.3-0.3,0.7-0.7,1-1c0.6-0.9,30.8-60.4,7-50
		c-15.8,49.4-57.4,87.6-94,117c-30.7,24.7-57.5,59-82,90c-16.3,16.7-32.7,33.3-49,50c-16.1,20-63,80.7-90,84v-27
		c23.4-8.8,59.6-46.9,75-66c14-14,28-28,42-42c23-27.3,46-54.7,69-82c12.3-14.3,24.7-28.7,37-43c-16.6,7-28.3,25.6-39,39
		c-22.4,28.2-64.4,76.3-93,97c1.3-1.7,2.7-3.3,4-5c6.6-14.6,23.7-19.9,28-37c-5,2.6-13.1,10-17,7c8-12.3,16-24.7,24-37
		c-33.5,25-65.3,62.2-91,95c-9,11.5-22.7,38.1-39,41v-26c20.6-47.6,44.5-97,70-140c6.3-10.6,9.9-23.3,19-31
		c-5.7,13.3-11.3,26.7-17,40c1.3,1.3,2.7,2.7,4,4c12.6,4,48.1-41.8,57-51c27-28,48.1-59.6,71-92c15.9-22.5,35.1-43.1,50-67
		c11.1-17.8,25.6-47.2,15-72h-1c-28.6,2.9-32.6,39.7-51,54c14.3-26,28.7-52,43-78c28.2-62.4,50.1-131.5,71-199
		c7.6-24.6,31.2-109.2,47-120c5,0.6,3.9-0.2,6,3c12.1,27.4,6.6,85.1,12,120c2,28.7,4,57.3,6,86c5.2,33.1,7.4,74,2,108
		c-5.4,34.2,12.2,84.2,47,75c28.1-7.4,19.9-58.5,15-90c-4.7-51.3-9.3-102.7-14-154c-8.6-23.5-45-44.8-36-82h1c3,1.3,6,2.7,9,4
		c0.7-0.3,1.3-0.7,2-1v-3c-24.4-22,9.7-67,46-56v1l-3,6c0.3,0.7,0.7,1.3,1,2c56.6-0.5,69.2-63.6,61-118c-2.4-15.8,6-27.1,3-43
		c-4.3-4.3-15-5.8-20-9c1.9-17.6,8.1-26.5-5-39c-16.4,0.8-23,15.2-33,23c-14.9,11.6-31.2,20.2-39,39c-10.5,25.1-19,95.5-34,111l-3-3
		c-3.9-9.5,0.4-27.5,2-37c5.2-31.8,0.9-58.7,9-85c8.7-16,17.3-32,26-48c14.1-43.6-7-94.2,4-140c7.4-30.7,23.7-66.1,32-99
		c6.6-26,6-51.3,18-71c7.8-12.9,23.8-19.9,33-32c0.7,0.3,1.3,0.7,2,1v1c-8,20.7-16,41.3-24,62c0.7,0.3,1.3,0.7,2,1
		c0.7-0.3,1.3-0.7,2-1c8.3-16,16.7-32,25-48c8.1-18.8,10.6-44,22-60c10.5-14.7,26.8-22.8,41-34c16.5-13,29.8-29.6,47-43
		c24.8-19.3,29.5-49.9,71-42c0.3-0.3,0.7-0.7,1-1v-3c-1.7-2-3.3-4-5-6c30.8,6.5,36,53.1,19,77c-18.6,26.1-62.7,41.1-80,64
		c-11.6,15.4-9.4,42.4-17,62c-7.9,20.2-20.3,37.1-27,59c-4,22.7-8,45.3-12,68c-4.8,16.2-18.6,43-14,62h1c2-1.3,4-2.7,6-4
		c10.5-31.1,31.9-53.8,41-90c3.3-21.7,6.7-43.3,10-65c4.3-12.7,8.7-25.3,13-38c3.3-13.3,2.8-26.9,9-37c8.5-13.8,26-14.8,39-24
		c34.5-24.4,64.8-51.8,110-66c0.3-2.7,0.7-5.3,1-8c19.8-6,40.9-19.2,66-13c8.4,11.2,12,22.9,6,39c-21.4,57.2-88.7,38.5-132,70
		c-7.9,5.7-4.4,19.7-9,29c-9.7,10.7-19.3,21.3-29,32c-23.7,15.3-50-17.4-59,22c20.5-1,16.9,11.5,26,24c4.7,4,9.3,8,14,12
		c-7.8,9.4-13.5,17.5-5,31c2.3,0.7,4.7,1.3,7,2c-20.7,22-41.3,44-62,66c-18.3,25.7-39,56.9-50,88c-7.9,22.3-4,47.5-9,74
		c-3.7,10.9-7.5,21.8-11.2,32.6c-0.2-2.3-1.8-4.5-4.8-4.5c-2.3,0-3.7,1.2-4.4,2.8H552c-0.7,0.3-1.3,0.7-2,1c-12.6,39.7,6,86,15,124
		c2.7,21,5.3,42,8,63c10.1,40.5,23.6,73.1,37,107C616,3220,622,3239,628,3258z"/>
	<path id="bicep_1_" fill-rule="evenodd" clip-rule="evenodd" fill="#5C5C5C" d="M2690,3855c5.5,5.3,1.7,21.3,0,30
		c-6.1,32.3-2.5,78.3-21,99c5.3-29.3,10.7-58.7,16-88C2686.7,3882.3,2688.3,3868.7,2690,3855z M2470,4078c0,2,0,4,0,6
		c-0.7,1-1.3,2-2,3c-3.5-3-4.1-3.6-3-9C2466.7,4078,2468.3,4078,2470,4078z M2436,2469c3.3,0,6.7,0,10,0c-5.8,7.2-15.5,12.7-19,22
		c-9.2,24.3-10.2,47.9-19,70c-18.3,46-41.5,88.2-66,130c-11,17.3-22,34.7-33,52c-6.2,7.8-19,9-25,17c-51.8,68.8-118.5,184.6-136,284
		c-7.4,42,20.7,69.2,36,90c22,29.9,43.4,69.6,53,110c12.9,54.2,1.3,138.6-11,184c-4.7,11.7-9.3,23.3-14,35c-4.9,16.7-8.5,48.9-5,69
		c0.7,7.3,1.3,14.7,2,22c-4.7,18.3-9.3,36.7-14,55c4.3,24,8.7,48,13,72c2.8,16.2-9,33.7-4,44c5.5,11.4,26.4,30.4,30,42
		c6.5,21-15.7,43.4-22,56c6.5,31.4,30.4,51.9,44,76c3.7,9,7.3,18,11,27c6.7,6.7,13.3,13.3,20,20c7.6,11.4,10,43.3,15,57
		c3.1,8.4,27.6,31.6,35,37c5.3,3,10.7,6,16,9c5.9,7.6,7.6,18,15,24c2-1.7,4-3.3,6-5c1.3,1,2.7,2,4,3c1.3,9.4,3.9,21.1,8,28
		c1.3,0,2.7,0,4,0c17.1-16.3,20.6-7,33-33c1,0,2,0,3,0c1.7,3.7,3.3,7.3,5,11c1.3-0.7,2.7-1.3,4-2c3.3-7.7,6.7-15.3,10-23
		c1,0.7,2,1.3,3,2c1.7,5.7,3.3,11.3,5,17c1.7-0.3,3.3-0.7,5-1c1.1-4.4,2.1-6.5,5-9c0.3,0,0.7,0,1,0c1.3,1.7,2.7,3.3,4,5
		c16.5-10.3,14-38,24-55c9.9-16.8,32.7-23.8,40-41c15.6-36.8,8.5-96.6,17-133c2.7-1,5.3-2,8-3c-1.6-17.9,7.8-36.8,5-50
		c-2.5-11.7-13.2-34.4-6-51c8.3-19.1,38.3-11.6,33-44c-0.3,0-0.7,0-1,0c-1,0.7-2,1.3-3,2c-2.3,5-4.7,10-7,15c-3.7,0.3-7.3,0.7-11,1
		c-16.8-8.4-16.1-37.8-12-61c6.6-37.1,39.3-77.9,33-116c-10.6-64.1,26.2-109.2,41-157c6.7-21.4,3.8-51.1,9-69c3.3-6,6.7-12,10-18
		c6-24.3,12-48.7,18-73c3-24.3,6-48.7,9-73c8.7-22.1,32-30.9,44-50c7.7-12.3,4.5-30.9,14-41c3.3,1,6.7,2,10,3c0.3-1,0.7-2,1-3
		c2-11.3,4-22.7,6-34c3.5-4,8.3,0.4,12-4c8.6-12.7,8-32.4,13-49c4.1-13.5,11.5-45.3,18-58c3.7-3,7.3-6,11-9c1-9.3,2-18.7,3-28
		c3.3-4.7,6.7-9.3,10-14c0.7,0.3,1.3,0.7,2,1c7.7,73.5-8.7,151.1-23,216c-14.9,67.6-21.4,135.1-43,196c-11.1,31.3-31,61-40,96
		c-2.6,10.2-14,57.7-10,68c5.9,15.2,16.2,39,12,65c-4.7,51.3-9.3,102.7-14,154c-6,34.8-16.5,61.6-22,93c1.3,15.3,2.7,30.7,4,46
		c-9,53.7-11.9,119.5-24,175c-6.2,28.1-15.5,55.5-23,80c-9.4,30.9-6.9,70.2-26,91c-74.7,0-149.3,0-224,0c-26.3,0-70.9,5.7-87-6
		c-12.7-33.8-48.8-109.4-74-129c-27.7-21.5-69.4-33.5-85-67c-2.3-15.7-4.7-31.3-7-47c-31.3-128.4,7.1-250.2,34-357
		c5.7-43.3,11.3-86.7,17-130c9.8-54.4,12.6-140.6-6-184c-17.3-40.3-62.2-68.9-50-139c5.8-33.6,17.1-60.1,28-88c8-22,16-44,24-66
		c28.6-66.1,72.5-123.2,108-182c5-12,10-24,15-36c29.3-50.3,50.2-106.6,81-157c0.7,0.3,1.3,0.7,2,1c0,0.3,0,0.7,0,1
		c-3.3,38.4-36.7,87.4-54,117c-5.4,9.2-13.1,18.7-15,31c1-0.3,2-0.7,3-1c28.7-45.5,60.8-85.9,82-140
		C2413.2,2526.5,2411.7,2484.6,2436,2469z M2698,2561c14.1,1.7,32.7,27.2,36,40C2717.6,2598.7,2692.2,2581.2,2698,2561z M2430,2372
		c20.3-0.1,49.2,11.2,59,23c-4.8-1.2-11.9-3.2-17-1c-2,1.7-4,3.3-6,5c0,1.7,0,3.3,0,5c35.2,20.8,87.4,13,111,45c0,0.3,0,0.7,0,1
		c-1.7,0-3.3,0-5,0c-25.9-12-54.6-25.8-86-31c-24.4-4-26.2,21.7-46,14c-10.7-5.9-15.4-44.2-13-59C2428,2373.3,2429,2372.7,2430,2372
		z"/>
</g>
<g id="Light_x5F_gray_x5F_gray">
	<path id="face_3_" fill-rule="evenodd" clip-rule="evenodd" fill="#BFBEBE" d="M1869,969c35.1-0.4,119.8,48.7,105,86
		c-5.2,13-25.1,22.8-40,26c-6,1-12,2-18,3c-9.4,6.5-13.7,22.6-23,30c-23.5,18.8-55.5,33.3-74,57c-26.8,34.3-48.3,114.2-30,176
		c9.4,31.7,26.9,62.2,39,92c9.7,24.1,2.7,56.6,16,76c7.1,10.3,24.1,18.6,33,28c-0.3,2.3-0.7,4.7-1,7c-6.2,13.2-18.7,5.3-33,8
		c-4,0.8-8.3,9-15,6c-2.7-4-5.3-8-8-12c-14.7,2.7-33.2,28.4-57,33c-19.1,3.7-34.8-14.9-47-19c-15.7-5.3-33.4,3.6-44,5
		c-0.7,5-1.4,7.8-5,10c-11.2,8.3-23.1-3.6-29-10c0.3-1.7,0.7-3.3,1-5c13-11.7,26-23.3,39-35c11.2-18-0.2-87.7-8-101
		c-8.9-2.4-13.7-5.7-16-15c-1.3,0.3-2.7,0.7-4,1c-3.4,9.9-7.8,28.3-16,34c-0.7-0.3-1.3-0.7-2-1c3.3-41.5,26.8-71.4,33-106
		c9.1-50.3-18-99.5-25-141c-5.3-31.5,9-59.3,17-80c30.6-79,65.3-106.5,143-137C1820.3,977,1847.7,978.5,1869,969z M1943,1233
		c22.9-0.2,36.9,25.2,38,45c-12.4,9.4-36.2,31.6-61,26c-7.8-1.8-14.6-8.7-28-6c-16.3,3.7-32.7,7.3-49,11c0-0.3,0-0.7,0-1
		c0-1,0-2,0-3c15.3-13.3,30.7-14.9,53-23c-3.1-19,9.5-39.1,27-45C1930.6,1234.4,1937.5,1236.5,1943,1233z M1869,1322c3,0,6,0,9,0
		c23.8,33.5,132.3,28.2,176,18c17.3-4,62.9-7.9,71,2c15,18.4,17.1,71.1,10,101c-3.3,8.7-6.7,17.3-10,26c-7,35.6-17.1,59.7-27,89
		c-2.7,15-5.3,30-8,45c-7,12-14,24-21,36c-11.5,28-11.9,51.9-41,62c-17.4,6.1-27.5-9.7-40-13c-0.3,0.3-0.7,0.7-1,1
		c0.3,6.7,2.2,13.7-1,19c-10.4,17.4-60.2,30.2-91,25c-15.7-2.3-31.3-4.7-47-7c-25.7,6.7-51.3,13.3-77,20c-21.7-0.3-43.3-0.7-65-1
		c-28.3,9-56.7,18-85,27c-19.4,5.9-37.9,5.5-60,10c-38.8,7.8-47.3,48.2-98,24c-37.1-17.7-33.3-84.7-21-125c13-42.5,36.9-83.3,62-115
		c12.8-16.2,37.7-22.1,50-38c3.7-8.7,7.3-17.3,11-26c9.3-9.3,18.7-18.7,28-28c1,0.3,2,0.7,3,1c11.8,25.4-2,25.3,2,49
		c12.8,76.5-8.4,116.1,68,134c10.3,2.4,19.4,6.6,33,7c14,0.4,18.3-13.6,36-14c27.3,38.9,46.9-5.5,62-12c15.3-5.8,25,10.3,45,6
		c6.1-1.3,46.3-29.9,49-36c22.9-51.7-8.9-164.5-26-208c-6.8-17.4-34.1-42.6-23-70C1845.3,1322.8,1861.7,1326.1,1869,1322z
		 M1799,1932c37.4-1.1,97,12.5,92,46c-28.8,16.3-47.3,40-85,49c-7.7-0.3-15.3-0.7-23-1c-25.4,4.5-36.7,9.6-63-1
		c-11.4-4.6-27.7-6.3-33-17c-9-16.7,12.4-28.3,21-35c10.8-8.4,18.5-21,32-27C1757.8,1938.1,1779.5,1939.6,1799,1932z"/>
	
</g>
<g id="Black_x5F_texure">
	<path id="face_4_" fill-rule="evenodd" clip-rule="evenodd" fill="#010202" d="M1909,1238c0.3-1,0.7-2,1-3c17.4-13,31.2-17,58-23
		c0.3-1.7,0.7-3.3,1-5c-0.7-1-1.3-2-2-3c-23.1-2.1-42,11.3-63,14c0.3-1,0.7-2,1-3c12.7-5.3,25.3-10.7,38-16
		c36.1-10.8,104.5-12.1,135,4c12.2,6.5,16.9,20.4,26,30c2.3-0.3,4.7-0.7,7-1c5.3-11.7,10.7-23.3,16-35c1.7-6.3,3.3-12.7,5-19
		c9.5-51.2-53.7-54.7-96-45c-15.6,3.6-42.7,18.6-58,12c0-1.7,0-3.3,0-5c37-42.9,94.2-46.4,161-31c-0.3-1.3-0.7-2.7-1-4l22,106
		c-1,0-2,0-3,0c-11.6,22.6-30.4,37.2-60,42c-10.9,1.8-16.2-5.1-25-2c-23.4,8.3-49.3,28.7-81,23c-11.2-8.8-13.6-25.3-17-42
		c-23.3-15.8-45.5,1-65,7C1909,1238.7,1909,1238.3,1909,1238 M1844,1570c5.3,0.3,10.7,0.7,16,1c-2.2,6.3-49,36.9-59,33c-1-1-2-2-3-3
		C1802.8,1581.3,1826.7,1577.7,1844,1570z M1672,1590c22.4-0.6,47.2,5.3,58,17c-0.7,2-1.3,4-2,6c-18.8,5.9-63.3,1.2-75-13
		c0-0.7,0-1.3,0-2C1658.7,1594.3,1664.8,1593.3,1672,1590z"/>
</g>
<g id="Gray_x5F_texure">
	<path id="face_5_" fill-rule="evenodd" clip-rule="evenodd" fill="#272727" d="M1999,776c0.7,0,1.3,0,2,0c5.6,5.9,6.5,15.9,10,24
		c6,12,12,24,18,36c4,16,8,32,12,48c17.2,54.6,42.3,101.5,61,153c6,15.7,12,31.3,18,47c5.2,8.6,19,15.3,21,26c-0.3,0.7-0.7,1.3-1,2
		c-50.4-29.9-143.8-7.8-164,32c0.7,1.7,1.3,3.3,2,5c0.3,0,0.7,0,1,0c50.5-12.4,190.7-53.4,146,54c-5,10-10,20-15,30
		c-6-0.1-6.7-0.9-10-3c-21.1-56.2-162.6-45.4-201-11c2.3,3,2.4,2.3,3,5c-6,3.3-12,6.7-18,10c0.7-1.3,1.3-2.7,2-4
		c-6,0.8-7.2,2.3-10,6c1.3,0.3,2.7,0.7,4,1c-10.8,14.1-28.2,20.8-42,32c-0.7-0.3-1.3-0.7-2-1c0-0.3,0-0.7,0-1c5.6-15.7,15-18,27-27
		c22.9-17.2,43.9-36.2,76-45c21-2,42-4,63-6c17.3-2.7,39.5-4.3,58-1c14,3.3,28,6.7,42,10c11.9-8,19.1-25.1,14-44
		c-18.2-13.5-67.6-17.3-94-7c-42.8,16.6-100.9,27.4-139,50c-19.9,11.9-34.3,28.4-52,42c-0.3,0-0.7,0-1,0c7.9-54.7,85.8-93.6,128-118
		c12.9-7.5,24-18.5,40-23c18.3-3,36.7-6,55-9c17.3-0.7,34.7-1.3,52-2c0-0.3,0-0.7,0-1c-4.3-7-8.7-14-13-21
		c-13.2-32.2-26.3-64.2-39-95c-11.7-33-23.3-66-35-99c-4.4-15.6-5.7-33.3-13-46c-1.3,0-2.7,0-4,0c-19.4,25.9-51.2,35.5-79,53
		c-19,13.3-38,26.7-57,40c-69.9,42-154,75.2-200,141c-28.1,40.2-46,90.8-56,148c-8.6,49,43.8,80.9,24,127c-6.1,14.2-27.2,23.7-38,34
		c-38.7-23.2-60.8,38.7-70,62c-35,88.8-66,171.4-115,245c-15.5,23.2-62.4,69.6-56,108c5.2,30.9,26.8,89.3,48,103
		c13.5,8.7,31.7,9.9,47,17c6.7,4.7,13.3,9.3,20,14c15,5.7,30,11.3,45,17c2,2.7,4,5.3,6,8c3.3,0.3,6.7,0.7,10,1
		c10.7,6.3,21.3,12.7,32,19c15.7,11.5,24.8,33.5,36,50c12.5,18.3,56.5,47.8,81,54c103.8,26.2,237.1-21,272-80
		c18.9-31.9,13.1-77.4,34-105c26-34.3,72.5-47,99-80c37.3-46.4,65-115.2,79-183c8.5-41.1,5.9-82.2,13-127c7.9-49.9,10.6-125.1,0-168
		c0-10,0-20,0-30c-3.7-11.9-12.1-32.7-23-38c-35.4,5.5-63.7,32.1-97,40c-13.3,3.1-45.1,1.5-49-9c12.2-3.2,27.3-7,35-15
		c3.3-3.5,1.8-8.1,6-11c7-2.8,26.1-10.6,32-10c5.6,0.6,5.2,5.3,13,4c36.8-6,46.6-21.5,65-45c1,0.7,2,1.3,3,2c4.7,7.7,9.3,15.3,14,23
		c10.2,18.8,17.4,41.3,22,65c9,45.9,5.4,125.4-2,170c-0.3,35.7-0.7,71.3-1,107c-1.3,20.3-2.7,40.7-4,61c-7,37.2-14.8,80.3-29,113
		c-17.1,39.5-45.9,70.3-71,102c-13.7,13-27.3,26-41,39c-32.2,42.4-74.1,112.3-115,143c-40,30-97.3,43.3-155,55
		c-88.7,17.9-144.1-17.9-194-48c-25.3-11.7-50.7-23.3-76-35c-9.7-6.7-19.3-13.3-29-20c-36.8-16.8-104.3-46.3-126-76
		c-18.4-25.1-69.1-59.9-59-112c2.9-14.7,4.1-35.3,11-47c17.3-20.7,34.7-41.3,52-62c9-19.3,18-38.7,27-58c27.3-38,54.7-76,82-114
		c12.3-25,24.7-50,37-75c0.7,0.3,1.3,0.7,2,1c0,0.3,0,0.7,0,1c-7.7,25.7-15.3,51.3-23,77c1-0.7,2-1.3,3-2c11.7-29.3,23.3-58.7,35-88
		c9-25.3,18-50.7,27-76c14.2-21.8,61.1-27.4,55-66c-9.5-0.7-11.1-7.1-15-13c0-20.4,7.3-37.9,11-55c22.6-103.4,51.7-154.3,107-223
		c14.7-18.3,37.8-29,55-45c4.3-4,2.7-9.6,6-15c10.1-16.4,82.1-60.5,102-65c-2,2.7-4,5.3-6,8c0,0.3,0,0.7,0,1
		c32.7-7.6,76-72.4,103-93c0.3,0,0.7,0,1,0c-5.1,32.9-50.4,51.8-58,79c18.1-9.8,75.9-57.4,86-74C1996.3,788,1997.7,782,1999,776z
		 M2010,1198c8.3,1.3,16.7,2.7,25,4c0.3,0.7,0.7,1.3,1,2c-0.3,0.7-0.7,1.3-1,2c-14.8,0.5-25.7-1.5-35-7
		C2003.3,1198.7,2006.7,1198.3,2010,1198z M1941,1208c1,0,2,0,3,0c0,0.3,0,0.7,0,1c-9.5,2.9-30.4,13.1-38,11c0.7,0,1.3,0,2,0
		C1915.9,1212.1,1930.8,1213.8,1941,1208z M1936,1227c1.3,0,2.7,0,4,0c-0.3,0.7-0.7,1.3-1,2c-1.7,0.3-3.3,0.7-5,1c0-0.7,0-1.3,0-2
		C1934.7,1227.7,1935.3,1227.3,1936,1227z M1970,1230c1.3,1,2.7,2,4,3C1972.7,1232,1971.3,1231,1970,1230z M1910,1231
		c3.7,9.9-33.9,44.5-47,45c0-1,0-2,0-3c0-0.3,0-0.7,0-1C1878.7,1258.3,1894.3,1244.7,1910,1231z M2436,1460c1.3,0,2.7,0,4,0
		c0,0.7,0,1.3,0,2c9.2,18.3,23,54.6,25,76c-0.7-0.3-1.3-0.7-2-1C2455.2,1511.7,2436.8,1490.1,2436,1460z M1856,1566
		c4,0.7,8,1.3,12,2c0.7,2.3,1.3,4.7,2,7c-11.1,10.9-22.3,13.8-37,22c-0.3,1-0.7,2-1,3c0.7,5,1.4,7.8,5,10c15,5.6,31-10.9,43-14
		c0.3,0.7,0.7,1.3,1,2c-3.7,11.5-37.5,32-53,26c-3-2.7-6-5.3-9-8c-7.7,1-15.3,2-23,3c-11,5.3-22,10.7-33,16c-12.7-1.7-25.3-3.3-38-5
		c-3.9,0.8-14.6,6.3-22,3c-7-3.1-16.2-11.4-25-14c-16.1-4.8-28-2.8-37-14c0.3-1.7,0.7-3.3,1-5c4.3-2,8.7-4,13-6
		c-0.7,2.7-1.3,5.3-2,8c18.8,9.1,57.6,20.9,78,9c0-1.3,0-2.7,0-4c-4-3-8-6-12-9c19.6,4,29.8,28.5,57,18c6.7-6.3,13.3-12.7,20-19
		c0.3,0,0.7,0,1,0c0.2,4.5,0.7,5.4,2,8c24.2,2.2,43.1-21.6,62-31c0-0.7,0-1.3,0-2c-0.3-0.7-0.7-1.3-1-2c-4-0.3-8-0.7-12-1
		c0-0.3,0-0.7,0-1c0.7-0.3,1.3-0.7,2-1C1852,1566.7,1854,1566.3,1856,1566z M1633,1628c12,1.3,50.7,2.9,60,8c0,1,0,2,0,3
		c-1,1-2,2-3,3C1674.1,1643.8,1631.2,1644.9,1633,1628z M1930,1770c20-0.8,57.9-1.9,63,12c-20.3,5.9-42.8,11.2-66,15
		c-18-1.7-36-3.3-54-5c-50,4-100,8-150,12c-20,3.3-40,6.7-60,10c-28.8,8.1-64.6,25.5-106,18c0-0.3,0-0.7,0-1c0.7-1,1.3-2,2-3
		c11.7-5,23.3-10,35-15c24.3-8.4,48.2-12.6,75-17c37-1.7,74-3.3,111-5c32.7-6,65.3-12,98-18C1895.3,1772,1912.7,1771,1930,1770z
		 M1832,1875c7.1,0.6,18.5,1.3,23,5c-0.7,1.3-1.3,2.7-2,4c-22.8,8.3-95.1,32-125,17c-1-5-1.6-4-4-7
		C1730.1,1872.5,1808.4,1883.9,1832,1875z"/>
</g>
<g id="White_x5F_highlight">
	<path id="face" fill-rule="evenodd" clip-rule="evenodd" fill="#FFFFFF" d="M1866,1026c10.1-0.3,17.2,2,22,7c0,1.3,0,2.7,0,4
		c-14.5,10.9-23,29.3-37,40c-51.9,39.5-94.3,66.1-113,140c-1.7,14.7-3.3,29.3-5,44c-4.2,25.8-4,66.5,1,91c8.1,39.7,25.5,70.2,40,104
		c4.5,10.4,15.4,33.5,9,50c-4.1,8-16.5,15.4-25,19c-8.3-4-16.7-8-25-12c-0.3-18.3-0.7-36.7-1-55c-3-15.7-6-31.3-9-47
		c-3.7-9-6.4-23.6-8-35c6.5-69.1,4.9-95.1-6-132c-4.7-15.8-20.3-41.3-16-61c5-12.3,10-24.7,15-37c24.5-59.9,43.7-81,103-106
		C1827.1,1033.2,1848.4,1033.7,1866,1026z M2077,1390c2.7,0.3,5.3,0.7,8,1c4.6,27.8-8.2,49.1-15,73c-16.8,59-31,127.1-61,174
		c-19.5,16.8-16.1,24.6-75,38c-11.5,2.3-23.7,7.2-37,3c0-1,0-2,0-3c14.4-10.4,39-29.2,46-46c6.5-15.5,6-36.5,6-58
		c0-42.1-0.6-79.3-9-113c-5.3-20-10.7-40-16-60c1-0.3,2-0.7,3-1c11,0,22,0,33,0C1998,1398,2048.8,1403.3,2077,1390z M1549,1600
		c1.3,0.7,2.7,1.3,4,2c8.3,48.1,17.9,69.9,51,92c10.3,4.7,20.7,9.3,31,14c-0.3,0.7-0.7,1.3-1,2c-17.7,5.3-35.3,10.7-53,16
		c-18,2.7-36,5.3-54,8c-11,6.7-22,13.3-33,20c-1.7-0.7-3.3-1.3-5-2C1476.5,1706.2,1525.4,1622.3,1549,1600z"/>
	<path id="bicep" fill-rule="evenodd" clip-rule="evenodd" fill="#FFFFFF" d="M2512,2601c16.3,9.3,32.7,18.7,49,28
		c84,37.2,117.1,49.4,138,152c2.9,14.1,9.9,32.9,7,50c-2.7,16-12.4,18.2-17,31c-6.3,26-12.7,52-19,78c-4.7,12.4-15.7,17.2-21,27
		c-1,6.7-2,13.3-3,20c-5,4.7-10,9.3-15,14c-9.1,14.2-8.8,33.7-18,47c-10.4,15.1-33,24-39,43c-2,21-4,42-6,63c-6.3,27-12.7,54-19,81
		c-5,11.7-10,23.3-15,35c-1.7,18.3-3.3,36.7-5,55c-9.1,35.4-30.6,64.1-40,102c-6.3,25.5,3.7,59.5-3,88c-7.5,32.1-26.8,54.1-33,91
		c0.3,60.7,0.7,121.3,1,182c-3.7,7.7-7.3,15.3-11,23c-7.7,32.6,4.6,71.3-7,99c-12,12.7-24,25.3-36,38c-0.3-0.7-0.7-1.3-1-2
		c-8.1-11.7-2.7-36.3-11-49c-7.3-7-14.7-14-22-21c-3.7-10-7.3-20-11-30c-6.7-8.7-13.3-17.3-20-26c0-33.7,0-67.3,0-101
		c-9-12-18-24-27-36c0-18.3,0-36.7,0-55c-2.1-22.5-3.4-85,3-111c4.9-20,15.6-39.1,21-61c12.4-50.3,8-116.4,8-177c0-23.3,0-46.7,0-70
		c-13.4-69.5-49.5-109.5-81-159c3.5-21.8,14.2-41.7,22-60c24-56.1,51.2-110.8,86-157c16.3-16,32.7-32,49-48c10-18.3,20-36.7,30-55
		C2470.5,2688.6,2492.6,2648.9,2512,2601z"/>
	<path id="forearm" fill-rule="evenodd" clip-rule="evenodd" fill="#FFFFFF" d="M1122,2719c18.7,0,37.3,0,56,0c5-4.7,10-9.3,15-14
		c3.6,0.5,53.5,54.3,58,61c1,61.5-5.9,73.6-34,109c-15,0-30,0-45,0c-7.7,7.7-15.3,15.3-23,23c-10.3,10-20.7,20-31,30
		c-18.6,27.5-17,104.8-17,151c0,34.6-6.2,81.7,3,111c13,24.7,26,49.3,39,74c-0.7,6.7-1.3,13.3-2,20c0,36.8-6.6,91.9,8,116
		c17.6,29.1,60.2,64.4,87,86c31.8,25.6,56.9,59.1,89,85c12.3,16.3,24.7,32.7,37,49c22.3,21.7,44.7,43.3,67,65
		c6.7,11.7,13.3,23.3,20,35c19.7,19,39.3,38,59,57c-30.3,0-60.7,0-91,0c-3.3,3.7-6.7,7.3-10,11c-2-1.7-4-3.3-6-5
		c-25-26.7-50-53.3-75-80c-11.3-19.7-22.7-39.3-34-59c-16.7-19.7-33.3-39.3-50-59c-31.7-43.4-55.2-92.8-86-136
		c-21.6-30.3-44.5-60.5-64-93c-8.3-16.3-16.7-32.7-25-49c-10.8-17-27.7-29.4-35-50c-7.2-20.2-4.7-40.4-1-62c1.3-37,2.7-74,4-111
		c0-14,0-28,0-42c3.2-12.9,7-25.7,7-46c9.7-9.3,19.3-18.7,29-28c13.6-27.5,7.5-139.5,3-174c16-16,32-32,48-48
		C1122,2737,1122,2728,1122,2719z M712,2791c51.3,15.6,97.3,40,125,79c2.5,3.5,23.6,31.2,22,35c-8,7.7-16,15.3-24,23
		c-4.7,10.3-9.3,20.7-14,31c-0.3,16-0.7,32-1,48c-3.1,18-8.9,49.4-20,61c-65.7-16.6-82.2-68.2-107-125c-6-11.3-12-22.7-18-34
		C666.6,2865.3,699,2816.2,712,2791z M1630,3903c3.3,0.3,6.7,0.7,10,1c0.7,3.7,1.3,7.3,2,11C1638,3911,1634,3907,1630,3903z
		 M1838,4134c0.3-3.7,0.7-7.3,1-11c0.9,6.4,3,7.1,6,11C1842.7,4134,1840.3,4134,1838,4134z"/>
</g>
</svg>
