<?xml version="1.0" encoding="utf-8"?>
<!-- Generator: Adobe Illustrator 16.2.1, SVG Export Plug-In . SVG Version: 6.00 Build 0)  -->
<!DOCTYPE svg PUBLIC "-//W3C//DTD SVG 1.1//EN" "http://www.w3.org/Graphics/SVG/1.1/DTD/svg11.dtd">
<svg version="1.1" xmlns="http://www.w3.org/2000/svg" xmlns:xlink="http://www.w3.org/1999/xlink" x="0px" y="0px" width="2953px"
	 height="4134px" viewBox="0 0 2953 4134" enable-background="new 0 0 2953 4134" xml:space="preserve">
<g id="BG_x5F_shape">
	<path fill-rule="evenodd" clip-rule="evenodd" fill="#1A1A1A" d="M2904,3046.7c-9.6-54.5-13.5-95-31.1-138
		c-12.1-29.5-33.4-58.1-42.5-87.2c-14.7-46.4-5.6-102.4-16.6-152.5c-12-54.9-37-100-57.1-147.4c-24.2-64-48.4-128-72.6-192
		c-39.9-100-78.8-194.9-107.9-309.2c-23.8-93.3-33.1-197.2-51.9-295.8c-8.4-44.3-10.6-88.7-22.8-129.7
		c-21.8-73.2-65.2-132.8-84-207.5c-9.6-38.2-3.1-89,3.1-125.6c0.3-16.6,0.7-33.2,1-49.8c10-59.4,6.7-131.5-6.2-186.8
		c-14.2-60.8-49.3-97.6-77.8-143.2c-20.2-32.4-35.8-69.5-55-101.7c-29.8-50-50.4-104.3-83-150.5
		c-93.5-132.6-217.3-225.3-384.9-284.3c-42.8-15.1-90.4-23.9-140.1-33.2c-22.5-1.7-45-3.5-67.4-5.2c-17.6-0.7-35.3-1.4-52.9-2.1
		c-21.8,1.4-43.6,2.8-65.4,4.2c-46.3,8-90.5,12.3-131.8,24.9c-219.3,66.9-375.9,204.6-461.7,404.7c-8.1,18.9-7.8,42.1-12.5,65.4
		c-9.3,57.1-18.7,114.2-28,171.2c-32.9,161.9-45.1,341.2-74.7,510.6c-4.8,48.1-9.7,96.2-14.5,144.2c-4.2,25.5-2.7,57.3,1,80.9
		c8.4,53.4,4.6,101.3,13.5,152.5c11,63.3,23.1,151.8,4.1,213.8c-23.9,78-60.3,151.2-98.6,216.9c-12.4,23.5-24.9,47-37.4,70.6
		c-19.4,14.9-38.7,29.8-58.1,44.6c-28.5,22.5-85.5,103.4-100.6,139.1c-7.6,35.6-15.2,71.3-22.8,106.9
		c-11.6,37.8-28.2,72.8-38.4,113.1c-6.6,26.2-5.8,58.6-13.5,83c-10.7,26.3-21.4,52.6-32.2,78.9c-0.3,28-0.7,56-1,84.1
		c-15.2,44.3-30.4,88.6-45.7,132.8c-19,54.1-33,111-55,160.8c-44.5,100.9-111,185.3-171.2,270.8c-48.3,68.6-83.7,143.7-127.6,217.9
		c-10,16.9-26.7,33.4-35.3,49.8c0,96.5,0,193,0,289.5c97.2,0,194.4,0,291.5,0c21.5,0,97,6.1,110-2.1c12-7.6,19.3-30.3,27-42.5
		c22.8-37,45.7-74,68.5-111c78.9-126,159.1-248.2,234.5-377.7c26.7-45.8,43.7-99.9,70.6-145.3c8.4-14.3,16.4-38,31.1-45.7
		c1.7-0.3,3.5-0.7,5.2-1c11,14.6,8.8,45.1,14.5,64.3c10.6,35.7,50.2,68.4,36.3,118.3c-10.3,37.1-56.5,78.7-46.7,128.7
		c7.6,38.7,50.9,50.2,69.5,78.9c22.1,33.9,16.3,105.8,23.9,151.5c14,84.3-79,121.1-49.8,180.6c32.1,10.9,120.4,3.1,161.9,3.1
		c119,0,238,0,356.9,0c295,0,590,0,885,0c91.3,0,182.6,0,273.9,0c38.3,0,97.6,6.7,130.7-2.1c11.5-20.2,10.5-53.7,16.6-77.8
		c11.8-49.5,23.5-98.9,35.3-148.4c3.5-38.7,6.9-77.5,10.4-116.2c47.7-113.4,95.5-226.9,143.2-340.4c23-73.1,33.3-156.2,47.7-237.6
		c4.5-40.5,9-80.9,13.5-121.4C2911,3075.6,2906.1,3058.8,2904,3046.7z M2734.8,2570.4c-12.8-3.3-59.9-57.7-74.7-69.5
		c-34.6-26.6-69.2-53.3-103.8-79.9c-25-30-37.8-69.1-50.8-111c-5.6-18.1-23.4-51.9-17.6-72.6c11.3,3.9,47.6,77.1,58.1,91.3
		c47.7,64.9,189,144.2,189.9,240.8C2735.5,2569.7,2735.2,2570,2734.8,2570.4z"/>
</g>
<g id="Shapes_x5F_Main_x5F_coments_x5F_text">
	<path fill-rule="evenodd" clip-rule="evenodd" fill="none" d="M2453.1,2468c70.2-1.3,117.3,35.7,162,62
		c17.5,8.3,35.1,16.5,52.6,24.8c6.2,3.8,12.4,7.6,18.6,11.4c8.9,2.6,16.7-3.6,23.7,1c18,11.8,58.9,72,71.2,93
		c18.8,31.9,19.9,76.2,28.9,118.8c20.9,99,5.2,211.1-15.5,302.6c-13.7,60.6-20.8,119.2-38.2,174.6c-7.6,16.2-15.1,32.4-22.7,48.5
		c-12,27.8-19.5,57-25.8,89.9c-5.5,28.6,3.5,48.7,8.3,75.4c5.2,29.4-2.7,63.5-7.2,88.8c-0.7,14.8-1.4,29.6-2.1,44.4
		c-3.8,28.6-7.6,57.2-11.4,85.7c-4.8,15.1-9.6,30.3-14.4,45.4c-3.1,16,5,27.5,4.1,40.3c-3.4,19.6-6.9,39.3-10.3,58.9
		c-3.8,36.5-7.6,73-11.4,109.5c-12.4,60.7-33.7,113.5-42.3,175.6c-1.3,9.6,6.7,10.4,5.2,16.5c-68.3,9.6-155.4,2.1-228.1,2.1
		c-18.9,0-72.3,4.9-84.6-2.1c-20.3-11.5-36.1-73.3-49.5-96.1c-8.6-12-17.2-24.1-25.8-36.2c-27-34.1-81.6-38.3-96-85.7
		c-1.7-12.7-3.4-25.5-5.2-38.2c-27.9-130.6,6.9-245.1,34.1-353.3c6.2-48.2,12.4-96.4,18.6-144.6c8.6-51.1,10.5-125.2-6.2-166.3
		c-6.4-15.6-18.5-25.9-26.8-39.2c-14.2-22.6-20.3-47.8-24.8-80.6c-5.4-39.6,16.1-76.8,26.8-104.3c8.9-24.4,17.9-48.9,26.8-73.3
		c28.3-64.7,71.4-120.9,106.3-178.7c11.8-19.6,17.4-39.3,29.9-56.8c7.6-6.5,15.1-13.1,22.7-19.6c20-25.7,39.2-55.2,52.6-86.8
		c8.6-20.2,21-90.8,35.1-101.2C2439.3,2472.2,2446.2,2470.1,2453.1,2468z"/>
	<path fill-rule="evenodd" clip-rule="evenodd" fill="none" d="M1373.6,2852.2c-1.4,0-2.7,0-4.1,0c-26.1,45.3-48.3,96-66.3,146.9
		c-7.1,20-18.2,46.4-12.2,72.4c1.7,0.3,3.4,0.7,5.1,1c5.6-8.9,10.9-25.7,22.4-28.6c7.4,9.8,2.1,29.7-2,40.8
		c-11.8,31.7-28.8,59.8-34.7,96.9c-3.2,20.4,7.8,40.7,12.2,56.1c14.9,51.8,27.1,97.1,56.1,133.6c37.4,38.4,74.8,76.8,112.2,115.3
		c93.8,116.3,205.6,219.5,325.4,310.1c74.4,56.2,144.5,118.5,244.8,148.9c78.6,23.9,145.6,57.7,184.6,121.4
		c4.4,7.2,36.8,56.3,31.6,63.2c-4.4,5.9-26.9,3.1-36.7,3.1c-36,0-72.1,0-108.1,0c-148.6,0-297.2,0-445.7,0
		c-40.8-0.3-81.6-0.7-122.4-1c-7.8-2.5-44.6-18.8-49-24.5c-10.4-13.6-15.1-30.8-25.5-43.9c-38.7-48.6-84.1-90.6-122.4-139.7
		c-13.9-15.3-27.9-30.6-41.8-45.9c-46.8-59.1-96.8-116.6-140.8-178.5c-50-70.4-91.4-148.8-137.7-222.4c-20.4-32-40.8-63.9-61.2-95.9
		c-15.2-21.4-34.4-36.1-44.9-63.2c-11.5-29.6-13.3-75.9-18.4-108.1c0.3-14.6,0.7-29.2,1-43.9c-1.4-0.3-2.7-0.7-4.1-1
		c-1.4,1-2.7,2-4.1,3.1c-3.6,10-8.9,33.9-17.3,39.8c-9.1,6.3-29.4,4.5-40.8,1c-17-7.1-34-14.3-51-21.4c-15.3-4.1-30.6-8.2-45.9-12.2
		c-16-4.9-84.5-41.7-92.8-52c-38.9-48.5-65.7-119.7-81.6-189.7c23.6-140.8,113.2-272.3,115.3-272.3c19-43.2,45.9-57.4,67.3-81.6
		c24.4-27.5,44.2-41.6,70.4-52c14.3-1.7,33.7-8.5,47.9-10.2c62.9-11.7,85.9,2.8,139.7,16.3c17.3,2.4,34.7,4.8,52,7.1
		c21.1,5.8,42.2,11.6,63.2,17.3c19.5,4.2,38.4,3,54.1,10.2c10.9,8.5,21.8,17,32.6,25.5c13.9,8.5,27.9,17,41.8,25.5
		c36.4,35.4,72.8,70.7,109.1,106.1L1373.6,2852.2z"/>
	<path fill-rule="evenodd" clip-rule="evenodd" fill="none" d="M-42,4127c0-96.6,0-193.1,0-289.7c8.2-9.2,16.3-18.4,24.5-27.5
		c12.2-19.7,24.5-39.4,36.7-59.2c32.6-56.4,65.3-112.9,98-169.3c33.9-54.1,78.3-99.4,111.2-155c17.8-30.1,27.6-65.5,41.8-98.9
		c12.9-24.1,25.9-48.3,38.8-72.4c3.4-14.3,6.8-28.6,10.2-42.8c13.6-39.4,27.2-78.9,40.8-118.3c9.2-30.2,11.5-61.5,20.4-89.8
		c15.3-39.8,30.6-79.6,45.9-119.3c7.6-15.1,18.5-28.8,23.5-46.9c10.8-39.5-9.7-85.1,1-125.5c6.5-15.6,12.9-31.3,19.4-46.9
		c1.7-15.6,3.4-31.3,5.1-46.9c6.8-19.4,13.6-38.8,20.4-58.1c2.7-10.5,5.4-21.1,8.2-31.6c14.5-32.6,84.9-109.6,113.3-130.6
		c8.5-4.4,17-8.8,25.5-13.3c18.1-10.9,32.7-39.8,58.2-40.8c30.8,9.1,53.9,41.6,32.7,76.5c-14.9,24.4-7.4,19.2,45.9-4.1
		c12.9-5.7,80.5-40.8,99-25.5c12.6,10.5,4.2,47.8-1,60.2c-16.1,37.7-97.4,48.3-130.6,73.4c-10.6,8.1-9.9,25.3-15.3,38.8
		c-8.8,13.3-17.7,26.5-26.5,39.8c-65.2,92.7-147.3,132.9-150,321.3c-0.5,31.7,9,82.7,15.3,107.1c5.8,30.9,11.6,61.9,17.3,92.8
		c9.5,25.8,19,51.7,28.6,77.5c4.8,16,9.5,32,14.3,47.9c19.8,39.7,74.5,57.5,62.2,128.5c-22,127.1-89.7,216.9-156.1,300.9
		c-6.3,8-18.5,13.6-23.5,19.4c-13.6,20.1-27.2,40.1-40.8,60.2c-32.7,46.5-66.4,95.7-95.9,144.8c-24.1,45.2-48.3,90.4-72.4,135.7
		c-9.9,20.4-19.7,40.8-29.6,61.2c-9.5,10.6-28.9,7.8-41.8,15.3c-3.7,3.7-7.5,7.5-11.2,11.2C133.5,4127,45.7,4127-42,4127z"/>
	<path fill-rule="evenodd" clip-rule="evenodd" fill="none" d="M1550,411c51.4-1,95.2,10.2,135,22c114.5,33.8,186.6,64.4,272,125
		c36,25.6,76.2,51.4,100,89c-15,0-30,0-45,0c-2.3,2.7-4.7,5.3-7,8c-21.7,0-43.3,0-65,0c-4,3.3-8,6.7-12,10c-8,2.3-16,4.7-24,7
		c-21.3,21.3-42.7,42.7-64,64c-3.3,4.7-6.7,9.3-10,14c-5.3,0.3-10.7,0.7-16,1c-6.3,5.3-12.7,10.7-19,16c-6.3,0-12.7,0-19,0
		c-7.7,7.3-15.3,14.7-23,22c-46.3,33.3-83.8,63.6-118,109c-24,24.3-48,48.7-72,73c-53.3,68.6-92.8,169.1-93,288
		c-13.7,13.3-27.3,26.7-41,40c-6.3,19.7-12.7,39.3-19,59c-8.7,8.7-17.3,17.3-26,26c-13.7,28-27.3,56-41,84c-22,30-44,60-66,90
		c-13.3,27.7-26.7,55.3-40,83c-16.2,26.7-47.9,41.4-58,74c-8.8,28.4-6.9,159.8,3,184c11.6,28.4,37.2,41.6,54,64
		c23.7,31.6,47.7,69.8,84,88c9.7,2.7,19.3,5.3,29,8c18.7,11.3,37.3,22.7,56,34c-19.3,7.1-60.5,52.3-66,73c-0.3,10.3-0.7,20.7-1,31
		c-6.3,6.3-12.7,12.7-19,19c-0.3,62-3,128.6,1,190c-24.8,18-35.8,43.2-44,78c-0.3,0-0.7,0-1,0c-21.5-12.9-37.8-33.4-62-43
		c-19-2-38-4-57-6c-15.3-5.3-30.7-10.7-46-16c-19.7-2-39.3-4-59-6c-20.5-5.1-38.3-15.2-61-19c-0.7-15-1.3-30-2-45
		c-4.3-11.4-61-70.4-72-74c-31.3,0-62.7,0-94,0c0-0.3,0-0.7,0-1c4.3-6.3,8.7-12.7,13-19c0.3-5,0.7-10,1-15c3.3-3,6.7-6,10-9
		c0-4.7,0-9.3,0-14c3.7-11,17.6-24.5,23-42c13.5-44,13.1-94.7,21-144c5.9-36.7-2.5-82.2-8-113c-5.4-30.5,2.2-59.3-4-87
		c-4.3-15-8.7-30-13-45c-1.7-36.7-3.3-73.3-5-110c12.8-109.4,23.9-218.9,43-324c3.3-28,6.7-56,10-84c0.7-15,1.3-30,2-45
		c13.3-56.4,21.3-129.1,34-184c0.3-9.3,0.7-18.7,1-28c5.7-28.7,11.3-57.3,17-86c1-18.7,2-37.3,3-56c5.3-17.3,10.7-34.7,16-52
		c0-7.3,0-14.7,0-22c4.3-6.7,8.7-13.3,13-20c15.2-33.4,30.4-63.4,49-93c78.6-124.9,196.9-194.4,351-243c33-10.4,70.8-15.5,107-23
		C1520.7,414.3,1535.3,412.7,1550,411z"/>
</g>
</svg>
